M48
;GenerationSoftware,Autodesk,EAGLE,9.4.2*%
;CreationDate,2019-07-17T06:09:14Z*%
FMAT,2
ICI,OFF
METRIC,TZ,000.000
T5C0.350
T4C1.000
T3C1.016
T2C1.270
T1C3.175
%
G90
M71
T1
X30480Y54610
X5080Y16510
X59690Y16510
T2
X55880Y54610
X55880Y49606
X55880Y44602
X55880Y39599
X55880Y34620
X55880Y29616
T3
X2540Y41910
X2540Y49530
X24130Y57150
X36830Y55880
T4
X3810Y54610
X6350Y54610
X16510Y54610
X19050Y54610
X6350Y26670
X6350Y24130
X6350Y21590
X7620Y36830
X7620Y39370
X7620Y41910
T5
X20320Y48260
X49530Y55880
X49530Y48260
X49530Y40640
X49530Y25400
X49530Y33020
X36830Y19050
X31750Y19050
X26670Y19050
X21590Y19050
X15240Y16510
X19050Y20320
X19050Y24130
X11430Y40640
X11430Y38100
X26670Y53340
X10160Y49530
X3810Y34290
X10795Y26670
X29210Y17780
X22860Y31750
X33020Y45720
X33020Y47625
X27305Y50800
X27305Y49530
X27305Y48260
X27305Y46990
X27305Y45720
X27305Y44450
X27305Y43180
X27305Y41910
X27305Y40640
X27305Y39370
X27305Y38100
X27305Y36830
X27305Y34925
X27305Y33655
X30480Y33020
X3810Y45720
X36147Y44450
X36830Y26670
X33020Y43180
X34290Y26670
X32337Y41910
X30480Y26670
X31654Y40640
X29210Y26670
X34290Y17780
X24130Y17780
X19050Y17780
X22860Y34290
X38100Y17780
X17145Y44250
X15875Y34290
X15875Y22225
X15875Y41910
X15875Y38100
X14605Y19685
X20955Y57785
X27305Y57785
X52705Y57785
M30