G04 EAGLE Gerber RS-274X export*
G75*
%MOMM*%
%FSLAX34Y34*%
%LPD*%
%INBottom Copper*%
%IPPOS*%
%AMOC8*
5,1,8,0,0,1.08239X$1,22.5*%
G01*
%ADD10P,2.336880X8X22.500000*%
%ADD11C,2.032000*%
%ADD12C,1.508000*%
%ADD13P,2.336880X8X202.500000*%
%ADD14C,0.756400*%
%ADD15C,0.304800*%
%ADD16C,0.406400*%
%ADD17C,1.016000*%
%ADD18C,0.203200*%
%ADD19C,0.812800*%

G36*
X596010Y124475D02*
X596010Y124475D01*
X596136Y124482D01*
X596182Y124495D01*
X596230Y124501D01*
X596349Y124543D01*
X596471Y124578D01*
X596513Y124602D01*
X596558Y124618D01*
X596665Y124687D01*
X596775Y124748D01*
X596821Y124788D01*
X596851Y124807D01*
X596885Y124842D01*
X596961Y124907D01*
X612830Y140776D01*
X612923Y140893D01*
X613020Y141007D01*
X613031Y141029D01*
X613047Y141049D01*
X613111Y141185D01*
X613179Y141317D01*
X613185Y141342D01*
X613196Y141364D01*
X613227Y141510D01*
X613263Y141656D01*
X613264Y141681D01*
X613269Y141705D01*
X613267Y141854D01*
X613269Y142004D01*
X613264Y142028D01*
X613263Y142053D01*
X613227Y142198D01*
X613195Y142345D01*
X613184Y142367D01*
X613178Y142391D01*
X613109Y142525D01*
X613045Y142659D01*
X613030Y142679D01*
X613018Y142701D01*
X612922Y142815D01*
X612828Y142932D01*
X612809Y142948D01*
X612793Y142966D01*
X612672Y143055D01*
X612555Y143148D01*
X612532Y143159D01*
X612512Y143174D01*
X612375Y143233D01*
X612239Y143297D01*
X612215Y143302D01*
X612192Y143312D01*
X612045Y143338D01*
X611899Y143369D01*
X611874Y143369D01*
X611849Y143373D01*
X611700Y143366D01*
X611550Y143363D01*
X611526Y143357D01*
X611501Y143355D01*
X611358Y143314D01*
X611212Y143277D01*
X611185Y143264D01*
X611166Y143259D01*
X611125Y143236D01*
X610991Y143172D01*
X606949Y140839D01*
X600328Y139064D01*
X593472Y139064D01*
X586851Y140839D01*
X580914Y144266D01*
X576066Y149114D01*
X572639Y155051D01*
X570864Y161672D01*
X570864Y168528D01*
X572639Y175149D01*
X576066Y181086D01*
X580914Y185934D01*
X586851Y189361D01*
X593472Y191136D01*
X600328Y191136D01*
X606949Y189361D01*
X612886Y185934D01*
X617734Y181086D01*
X621161Y175149D01*
X622936Y168528D01*
X622936Y161672D01*
X621161Y155051D01*
X618828Y151009D01*
X618768Y150871D01*
X618704Y150736D01*
X618699Y150712D01*
X618689Y150689D01*
X618662Y150541D01*
X618631Y150395D01*
X618631Y150370D01*
X618627Y150346D01*
X618634Y150196D01*
X618637Y150047D01*
X618643Y150023D01*
X618644Y149998D01*
X618685Y149854D01*
X618722Y149709D01*
X618733Y149687D01*
X618740Y149663D01*
X618813Y149532D01*
X618882Y149399D01*
X618898Y149380D01*
X618910Y149358D01*
X619010Y149248D01*
X619107Y149134D01*
X619127Y149119D01*
X619144Y149100D01*
X619267Y149015D01*
X619388Y148926D01*
X619411Y148917D01*
X619431Y148902D01*
X619570Y148848D01*
X619708Y148788D01*
X619732Y148784D01*
X619755Y148775D01*
X619903Y148753D01*
X620051Y148727D01*
X620076Y148728D01*
X620100Y148724D01*
X620249Y148737D01*
X620399Y148745D01*
X620423Y148752D01*
X620447Y148754D01*
X620590Y148800D01*
X620734Y148841D01*
X620755Y148853D01*
X620779Y148861D01*
X620907Y148938D01*
X621038Y149011D01*
X621061Y149031D01*
X621077Y149041D01*
X621111Y149074D01*
X621224Y149170D01*
X648777Y176723D01*
X648843Y176806D01*
X648884Y176848D01*
X648892Y176863D01*
X648940Y176916D01*
X648964Y176958D01*
X648994Y176996D01*
X649048Y177110D01*
X649109Y177221D01*
X649122Y177267D01*
X649143Y177311D01*
X649169Y177434D01*
X649204Y177556D01*
X649209Y177617D01*
X649216Y177652D01*
X649215Y177700D01*
X649223Y177800D01*
X649223Y571500D01*
X649209Y571626D01*
X649202Y571752D01*
X649189Y571798D01*
X649183Y571846D01*
X649141Y571965D01*
X649106Y572087D01*
X649082Y572129D01*
X649066Y572174D01*
X648997Y572281D01*
X648936Y572391D01*
X648896Y572437D01*
X648877Y572467D01*
X648842Y572501D01*
X648777Y572577D01*
X638361Y582993D01*
X638262Y583072D01*
X638168Y583156D01*
X638126Y583180D01*
X638088Y583210D01*
X637974Y583264D01*
X637863Y583325D01*
X637817Y583338D01*
X637773Y583359D01*
X637650Y583385D01*
X637528Y583420D01*
X637467Y583425D01*
X637432Y583432D01*
X637384Y583431D01*
X637284Y583439D01*
X536634Y583439D01*
X536534Y583428D01*
X536434Y583426D01*
X536362Y583408D01*
X536288Y583399D01*
X536193Y583366D01*
X536096Y583341D01*
X536030Y583307D01*
X535960Y583282D01*
X535875Y583227D01*
X535786Y583181D01*
X535729Y583133D01*
X535667Y583093D01*
X535597Y583021D01*
X535521Y582956D01*
X535476Y582896D01*
X535425Y582842D01*
X535373Y582756D01*
X535313Y582675D01*
X535284Y582607D01*
X535246Y582543D01*
X535215Y582447D01*
X535175Y582355D01*
X535162Y582282D01*
X535140Y582211D01*
X535131Y582111D01*
X535114Y582012D01*
X535118Y581938D01*
X535112Y581864D01*
X535126Y581764D01*
X535132Y581664D01*
X535152Y581593D01*
X535163Y581519D01*
X535200Y581426D01*
X535228Y581329D01*
X535265Y581264D01*
X535292Y581195D01*
X535349Y581113D01*
X535398Y581025D01*
X535463Y580949D01*
X535491Y580909D01*
X535517Y580885D01*
X535557Y580839D01*
X555625Y560771D01*
X555724Y560692D01*
X555818Y560608D01*
X555860Y560584D01*
X555898Y560554D01*
X556012Y560500D01*
X556123Y560439D01*
X556169Y560426D01*
X556213Y560405D01*
X556336Y560379D01*
X556458Y560344D01*
X556519Y560339D01*
X556554Y560332D01*
X556602Y560333D01*
X556702Y560325D01*
X561629Y560325D01*
X566858Y558159D01*
X570859Y554158D01*
X573025Y548929D01*
X573025Y543271D01*
X570859Y538042D01*
X566858Y534041D01*
X561629Y531875D01*
X555971Y531875D01*
X550742Y534041D01*
X546741Y538042D01*
X544575Y543271D01*
X544575Y548198D01*
X544561Y548324D01*
X544554Y548450D01*
X544541Y548496D01*
X544535Y548544D01*
X544493Y548663D01*
X544458Y548785D01*
X544434Y548827D01*
X544418Y548872D01*
X544349Y548979D01*
X544288Y549089D01*
X544248Y549135D01*
X544229Y549165D01*
X544194Y549199D01*
X544129Y549275D01*
X524129Y569275D01*
X524030Y569354D01*
X523936Y569438D01*
X523894Y569462D01*
X523856Y569492D01*
X523742Y569546D01*
X523631Y569607D01*
X523585Y569620D01*
X523541Y569641D01*
X523418Y569667D01*
X523296Y569702D01*
X523235Y569707D01*
X523200Y569714D01*
X523152Y569713D01*
X523052Y569721D01*
X379916Y569721D01*
X379816Y569710D01*
X379716Y569708D01*
X379643Y569690D01*
X379570Y569681D01*
X379475Y569648D01*
X379378Y569623D01*
X379311Y569589D01*
X379241Y569564D01*
X379157Y569509D01*
X379068Y569463D01*
X379011Y569415D01*
X378949Y569375D01*
X378879Y569303D01*
X378802Y569238D01*
X378758Y569178D01*
X378706Y569124D01*
X378655Y569038D01*
X378595Y568957D01*
X378566Y568889D01*
X378528Y568825D01*
X378497Y568729D01*
X378457Y568637D01*
X378444Y568564D01*
X378421Y568493D01*
X378413Y568393D01*
X378396Y568294D01*
X378399Y568220D01*
X378393Y568146D01*
X378408Y568046D01*
X378413Y567946D01*
X378434Y567875D01*
X378445Y567801D01*
X378482Y567708D01*
X378510Y567611D01*
X378546Y567546D01*
X378574Y567477D01*
X378631Y567395D01*
X378680Y567307D01*
X378745Y567231D01*
X378773Y567191D01*
X378799Y567167D01*
X378839Y567121D01*
X381636Y564324D01*
X381636Y561339D01*
X369316Y561339D01*
X369290Y561336D01*
X369264Y561338D01*
X369117Y561316D01*
X368970Y561299D01*
X368945Y561291D01*
X368919Y561287D01*
X368782Y561232D01*
X368642Y561182D01*
X368620Y561168D01*
X368595Y561158D01*
X368474Y561073D01*
X368349Y560993D01*
X368331Y560974D01*
X368309Y560959D01*
X368295Y560943D01*
X368210Y561025D01*
X368187Y561039D01*
X368168Y561056D01*
X368038Y561128D01*
X367911Y561204D01*
X367886Y561212D01*
X367863Y561225D01*
X367720Y561265D01*
X367579Y561310D01*
X367553Y561312D01*
X367528Y561320D01*
X367284Y561339D01*
X354964Y561339D01*
X354964Y564324D01*
X357761Y567121D01*
X357824Y567199D01*
X357894Y567272D01*
X357932Y567336D01*
X357978Y567394D01*
X358021Y567485D01*
X358072Y567571D01*
X358095Y567642D01*
X358127Y567709D01*
X358148Y567807D01*
X358179Y567903D01*
X358185Y567977D01*
X358200Y568050D01*
X358199Y568150D01*
X358207Y568250D01*
X358196Y568324D01*
X358194Y568398D01*
X358170Y568495D01*
X358155Y568595D01*
X358127Y568664D01*
X358109Y568736D01*
X358063Y568825D01*
X358026Y568919D01*
X357984Y568980D01*
X357950Y569046D01*
X357885Y569122D01*
X357827Y569205D01*
X357772Y569255D01*
X357724Y569311D01*
X357643Y569371D01*
X357568Y569438D01*
X357503Y569474D01*
X357444Y569519D01*
X357351Y569558D01*
X357263Y569607D01*
X357192Y569627D01*
X357124Y569657D01*
X357025Y569674D01*
X356928Y569702D01*
X356828Y569710D01*
X356781Y569718D01*
X356745Y569716D01*
X356684Y569721D01*
X321643Y569721D01*
X321519Y569707D01*
X321393Y569701D01*
X321346Y569687D01*
X321297Y569681D01*
X321179Y569639D01*
X321058Y569605D01*
X321015Y569581D01*
X320969Y569564D01*
X320863Y569496D01*
X320754Y569435D01*
X320717Y569402D01*
X320676Y569375D01*
X320589Y569285D01*
X320496Y569200D01*
X320468Y569160D01*
X320434Y569124D01*
X320369Y569017D01*
X320298Y568914D01*
X320280Y568868D01*
X320255Y568825D01*
X320217Y568706D01*
X320171Y568589D01*
X320164Y568540D01*
X320149Y568493D01*
X320139Y568368D01*
X320120Y568244D01*
X320125Y568195D01*
X320121Y568146D01*
X320139Y568022D01*
X320150Y567897D01*
X320165Y567850D01*
X320172Y567801D01*
X320219Y567685D01*
X320257Y567566D01*
X320283Y567523D01*
X320301Y567477D01*
X320373Y567375D01*
X320437Y567267D01*
X320472Y567232D01*
X320500Y567191D01*
X320593Y567107D01*
X320680Y567017D01*
X320732Y566982D01*
X320759Y566958D01*
X320767Y566953D01*
X325634Y562086D01*
X329061Y556149D01*
X330836Y549528D01*
X330836Y542672D01*
X329061Y536051D01*
X325634Y530114D01*
X320786Y525266D01*
X314849Y521839D01*
X308228Y520064D01*
X301372Y520064D01*
X294751Y521839D01*
X288814Y525266D01*
X283966Y530114D01*
X280539Y536051D01*
X278764Y542672D01*
X278764Y549528D01*
X280539Y556149D01*
X283966Y562086D01*
X288859Y566979D01*
X288924Y567021D01*
X288958Y567057D01*
X288998Y567086D01*
X289079Y567182D01*
X289166Y567272D01*
X289192Y567314D01*
X289224Y567352D01*
X289281Y567463D01*
X289345Y567571D01*
X289360Y567618D01*
X289383Y567662D01*
X289413Y567784D01*
X289451Y567903D01*
X289455Y567952D01*
X289467Y568000D01*
X289469Y568125D01*
X289479Y568250D01*
X289472Y568299D01*
X289473Y568349D01*
X289446Y568471D01*
X289428Y568595D01*
X289409Y568641D01*
X289399Y568689D01*
X289345Y568802D01*
X289299Y568919D01*
X289271Y568959D01*
X289250Y569004D01*
X289171Y569102D01*
X289100Y569205D01*
X289063Y569238D01*
X289033Y569277D01*
X288934Y569355D01*
X288841Y569438D01*
X288798Y569462D01*
X288759Y569493D01*
X288646Y569546D01*
X288536Y569607D01*
X288489Y569620D01*
X288444Y569641D01*
X288321Y569668D01*
X288201Y569702D01*
X288139Y569707D01*
X288103Y569714D01*
X288055Y569713D01*
X287957Y569721D01*
X257683Y569721D01*
X257657Y569718D01*
X257631Y569720D01*
X257484Y569698D01*
X257337Y569681D01*
X257312Y569673D01*
X257286Y569669D01*
X257148Y569614D01*
X257009Y569564D01*
X256987Y569550D01*
X256962Y569540D01*
X256841Y569455D01*
X256716Y569375D01*
X256698Y569356D01*
X256676Y569341D01*
X256577Y569231D01*
X256474Y569124D01*
X256460Y569102D01*
X256443Y569082D01*
X256371Y568952D01*
X256295Y568825D01*
X256287Y568800D01*
X256274Y568777D01*
X256234Y568634D01*
X256189Y568493D01*
X256187Y568467D01*
X256179Y568442D01*
X256160Y568198D01*
X256160Y565345D01*
X247455Y556640D01*
X235145Y556640D01*
X226440Y565345D01*
X226440Y568198D01*
X226437Y568224D01*
X226439Y568250D01*
X226417Y568397D01*
X226400Y568544D01*
X226392Y568569D01*
X226388Y568595D01*
X226333Y568733D01*
X226283Y568872D01*
X226269Y568894D01*
X226259Y568919D01*
X226174Y569040D01*
X226094Y569165D01*
X226075Y569183D01*
X226060Y569205D01*
X225950Y569304D01*
X225843Y569407D01*
X225821Y569421D01*
X225801Y569438D01*
X225671Y569510D01*
X225544Y569586D01*
X225519Y569594D01*
X225496Y569607D01*
X225353Y569647D01*
X225212Y569692D01*
X225186Y569694D01*
X225161Y569702D01*
X224917Y569721D01*
X213548Y569721D01*
X213422Y569707D01*
X213296Y569700D01*
X213250Y569687D01*
X213202Y569681D01*
X213083Y569639D01*
X212961Y569604D01*
X212919Y569580D01*
X212874Y569564D01*
X212767Y569495D01*
X212657Y569434D01*
X212611Y569394D01*
X212581Y569375D01*
X212547Y569340D01*
X212471Y569275D01*
X201957Y558762D01*
X201910Y558702D01*
X201855Y558648D01*
X201802Y558566D01*
X201741Y558489D01*
X201708Y558419D01*
X201667Y558355D01*
X201634Y558262D01*
X201592Y558173D01*
X201576Y558099D01*
X201550Y558027D01*
X201539Y557929D01*
X201518Y557833D01*
X201520Y557756D01*
X201511Y557680D01*
X201523Y557583D01*
X201524Y557484D01*
X201543Y557410D01*
X201552Y557334D01*
X201598Y557192D01*
X201609Y557146D01*
X201618Y557129D01*
X201627Y557101D01*
X202105Y555948D01*
X202105Y536252D01*
X200338Y531986D01*
X197074Y528722D01*
X192808Y526955D01*
X188192Y526955D01*
X183926Y528722D01*
X180662Y531986D01*
X178895Y536252D01*
X178895Y555948D01*
X180662Y560214D01*
X183222Y562773D01*
X183223Y562775D01*
X183225Y562776D01*
X183334Y562914D01*
X183439Y563046D01*
X183439Y563048D01*
X183441Y563050D01*
X183552Y563268D01*
X183609Y563405D01*
X201043Y580839D01*
X201106Y580917D01*
X201175Y580990D01*
X201214Y581054D01*
X201260Y581112D01*
X201303Y581203D01*
X201354Y581289D01*
X201377Y581360D01*
X201409Y581427D01*
X201430Y581525D01*
X201460Y581621D01*
X201466Y581695D01*
X201482Y581768D01*
X201480Y581868D01*
X201488Y581968D01*
X201477Y582042D01*
X201476Y582116D01*
X201452Y582213D01*
X201437Y582313D01*
X201409Y582382D01*
X201391Y582454D01*
X201345Y582544D01*
X201308Y582637D01*
X201266Y582698D01*
X201231Y582764D01*
X201166Y582841D01*
X201109Y582923D01*
X201054Y582973D01*
X201006Y583029D01*
X200925Y583089D01*
X200850Y583156D01*
X200785Y583192D01*
X200725Y583237D01*
X200633Y583276D01*
X200545Y583325D01*
X200474Y583345D01*
X200405Y583375D01*
X200307Y583392D01*
X200210Y583420D01*
X200110Y583428D01*
X200062Y583436D01*
X200027Y583434D01*
X199966Y583439D01*
X11684Y583439D01*
X11658Y583436D01*
X11632Y583438D01*
X11485Y583416D01*
X11338Y583399D01*
X11313Y583391D01*
X11287Y583387D01*
X11149Y583332D01*
X11010Y583282D01*
X10988Y583268D01*
X10963Y583258D01*
X10842Y583173D01*
X10717Y583093D01*
X10699Y583074D01*
X10677Y583059D01*
X10578Y582949D01*
X10475Y582842D01*
X10461Y582820D01*
X10444Y582800D01*
X10372Y582670D01*
X10296Y582543D01*
X10288Y582518D01*
X10275Y582495D01*
X10235Y582352D01*
X10190Y582211D01*
X10188Y582185D01*
X10180Y582160D01*
X10161Y581916D01*
X10161Y502598D01*
X10172Y502498D01*
X10174Y502398D01*
X10192Y502325D01*
X10201Y502252D01*
X10234Y502157D01*
X10259Y502060D01*
X10293Y501993D01*
X10318Y501923D01*
X10373Y501839D01*
X10419Y501750D01*
X10467Y501693D01*
X10507Y501631D01*
X10579Y501561D01*
X10644Y501484D01*
X10704Y501440D01*
X10758Y501388D01*
X10844Y501337D01*
X10925Y501277D01*
X10993Y501248D01*
X11057Y501210D01*
X11153Y501179D01*
X11245Y501139D01*
X11318Y501126D01*
X11389Y501103D01*
X11489Y501095D01*
X11588Y501078D01*
X11662Y501081D01*
X11736Y501075D01*
X11836Y501090D01*
X11936Y501095D01*
X12007Y501116D01*
X12081Y501127D01*
X12174Y501164D01*
X12271Y501192D01*
X12336Y501228D01*
X12405Y501256D01*
X12487Y501313D01*
X12575Y501362D01*
X12651Y501427D01*
X12691Y501455D01*
X12715Y501481D01*
X12761Y501521D01*
X19876Y508636D01*
X22861Y508636D01*
X22861Y496316D01*
X22864Y496290D01*
X22862Y496264D01*
X22884Y496117D01*
X22901Y495970D01*
X22909Y495945D01*
X22913Y495919D01*
X22968Y495782D01*
X23018Y495642D01*
X23032Y495620D01*
X23042Y495595D01*
X23127Y495474D01*
X23207Y495349D01*
X23226Y495331D01*
X23241Y495309D01*
X23257Y495295D01*
X23175Y495210D01*
X23161Y495187D01*
X23144Y495168D01*
X23072Y495038D01*
X22996Y494911D01*
X22988Y494886D01*
X22975Y494863D01*
X22935Y494720D01*
X22890Y494579D01*
X22887Y494553D01*
X22880Y494528D01*
X22861Y494284D01*
X22861Y481964D01*
X19876Y481964D01*
X12761Y489079D01*
X12683Y489142D01*
X12610Y489212D01*
X12546Y489250D01*
X12488Y489296D01*
X12397Y489339D01*
X12311Y489390D01*
X12240Y489413D01*
X12173Y489445D01*
X12075Y489466D01*
X11979Y489497D01*
X11905Y489503D01*
X11832Y489518D01*
X11732Y489517D01*
X11632Y489525D01*
X11558Y489514D01*
X11484Y489512D01*
X11387Y489488D01*
X11287Y489473D01*
X11218Y489445D01*
X11146Y489427D01*
X11056Y489381D01*
X10963Y489344D01*
X10902Y489302D01*
X10836Y489268D01*
X10759Y489202D01*
X10677Y489145D01*
X10627Y489090D01*
X10571Y489042D01*
X10511Y488961D01*
X10444Y488886D01*
X10408Y488821D01*
X10363Y488762D01*
X10324Y488669D01*
X10275Y488581D01*
X10255Y488510D01*
X10225Y488442D01*
X10208Y488343D01*
X10180Y488246D01*
X10172Y488146D01*
X10164Y488099D01*
X10166Y488063D01*
X10161Y488002D01*
X10161Y428553D01*
X10172Y428453D01*
X10174Y428353D01*
X10192Y428281D01*
X10201Y428207D01*
X10234Y428112D01*
X10259Y428015D01*
X10293Y427949D01*
X10318Y427879D01*
X10373Y427794D01*
X10419Y427705D01*
X10467Y427648D01*
X10507Y427586D01*
X10579Y427516D01*
X10644Y427440D01*
X10704Y427395D01*
X10758Y427344D01*
X10844Y427292D01*
X10925Y427232D01*
X10993Y427203D01*
X11057Y427165D01*
X11153Y427134D01*
X11245Y427094D01*
X11318Y427081D01*
X11389Y427059D01*
X11489Y427051D01*
X11588Y427033D01*
X11662Y427037D01*
X11736Y427031D01*
X11836Y427046D01*
X11936Y427051D01*
X12007Y427071D01*
X12081Y427082D01*
X12174Y427119D01*
X12271Y427147D01*
X12336Y427184D01*
X12405Y427211D01*
X12487Y427268D01*
X12575Y427317D01*
X12651Y427383D01*
X12691Y427410D01*
X12715Y427436D01*
X12761Y427476D01*
X19245Y433960D01*
X31555Y433960D01*
X40260Y425255D01*
X40260Y412945D01*
X31555Y404240D01*
X19245Y404240D01*
X12761Y410724D01*
X12683Y410786D01*
X12610Y410856D01*
X12546Y410895D01*
X12488Y410941D01*
X12397Y410984D01*
X12311Y411035D01*
X12240Y411058D01*
X12173Y411090D01*
X12075Y411111D01*
X11979Y411141D01*
X11905Y411147D01*
X11832Y411163D01*
X11732Y411161D01*
X11632Y411169D01*
X11558Y411158D01*
X11484Y411157D01*
X11387Y411133D01*
X11287Y411118D01*
X11218Y411090D01*
X11146Y411072D01*
X11056Y411026D01*
X10963Y410989D01*
X10902Y410947D01*
X10836Y410912D01*
X10759Y410847D01*
X10677Y410790D01*
X10627Y410735D01*
X10571Y410687D01*
X10511Y410606D01*
X10444Y410531D01*
X10408Y410466D01*
X10363Y410406D01*
X10324Y410314D01*
X10275Y410226D01*
X10255Y410155D01*
X10225Y410086D01*
X10208Y409988D01*
X10180Y409891D01*
X10172Y409791D01*
X10164Y409743D01*
X10166Y409708D01*
X10161Y409647D01*
X10161Y125984D01*
X10164Y125958D01*
X10162Y125932D01*
X10184Y125785D01*
X10201Y125638D01*
X10209Y125613D01*
X10213Y125587D01*
X10268Y125449D01*
X10318Y125310D01*
X10332Y125288D01*
X10342Y125263D01*
X10427Y125142D01*
X10507Y125017D01*
X10526Y124999D01*
X10541Y124977D01*
X10651Y124878D01*
X10758Y124775D01*
X10780Y124761D01*
X10800Y124744D01*
X10930Y124672D01*
X11057Y124596D01*
X11082Y124588D01*
X11105Y124575D01*
X11248Y124535D01*
X11389Y124490D01*
X11415Y124488D01*
X11440Y124480D01*
X11684Y124461D01*
X595884Y124461D01*
X596010Y124475D01*
G37*
%LPC*%
G36*
X290539Y258853D02*
X290539Y258853D01*
X287655Y260048D01*
X285448Y262255D01*
X284253Y265139D01*
X284253Y268261D01*
X285448Y271145D01*
X287655Y273352D01*
X290539Y274547D01*
X291412Y274547D01*
X291538Y274561D01*
X291664Y274568D01*
X291710Y274581D01*
X291758Y274587D01*
X291877Y274629D01*
X291999Y274664D01*
X292041Y274688D01*
X292086Y274704D01*
X292193Y274773D01*
X292303Y274834D01*
X292349Y274874D01*
X292379Y274893D01*
X292413Y274928D01*
X292489Y274993D01*
X310505Y293009D01*
X310584Y293108D01*
X310668Y293202D01*
X310692Y293244D01*
X310722Y293282D01*
X310776Y293396D01*
X310837Y293507D01*
X310850Y293553D01*
X310871Y293597D01*
X310897Y293720D01*
X310932Y293842D01*
X310937Y293903D01*
X310944Y293938D01*
X310943Y293986D01*
X310951Y294086D01*
X310951Y400261D01*
X310937Y400386D01*
X310930Y400513D01*
X310917Y400559D01*
X310911Y400607D01*
X310869Y400726D01*
X310834Y400847D01*
X310810Y400890D01*
X310794Y400935D01*
X310725Y401041D01*
X310664Y401152D01*
X310624Y401198D01*
X310605Y401228D01*
X310570Y401261D01*
X310505Y401338D01*
X309888Y401955D01*
X308693Y404839D01*
X308693Y407961D01*
X309888Y410845D01*
X312095Y413052D01*
X315200Y414338D01*
X315223Y414351D01*
X315248Y414359D01*
X315375Y414435D01*
X315505Y414508D01*
X315524Y414525D01*
X315547Y414539D01*
X315653Y414642D01*
X315763Y414742D01*
X315778Y414763D01*
X315797Y414782D01*
X315877Y414906D01*
X315961Y415028D01*
X315971Y415053D01*
X315985Y415075D01*
X316035Y415215D01*
X316089Y415353D01*
X316093Y415379D01*
X316102Y415403D01*
X316118Y415551D01*
X316140Y415697D01*
X316138Y415724D01*
X316141Y415750D01*
X316123Y415897D01*
X316111Y416045D01*
X316103Y416070D01*
X316100Y416096D01*
X316025Y416329D01*
X315523Y417539D01*
X315523Y420661D01*
X316718Y423545D01*
X318925Y425752D01*
X322030Y427038D01*
X322053Y427051D01*
X322078Y427059D01*
X322205Y427135D01*
X322335Y427208D01*
X322354Y427225D01*
X322377Y427239D01*
X322483Y427342D01*
X322593Y427442D01*
X322608Y427463D01*
X322627Y427482D01*
X322707Y427606D01*
X322791Y427728D01*
X322801Y427753D01*
X322815Y427775D01*
X322865Y427915D01*
X322919Y428053D01*
X322923Y428079D01*
X322932Y428103D01*
X322948Y428251D01*
X322970Y428397D01*
X322968Y428424D01*
X322971Y428450D01*
X322953Y428597D01*
X322941Y428745D01*
X322933Y428770D01*
X322930Y428796D01*
X322855Y429029D01*
X322353Y430239D01*
X322353Y433361D01*
X323548Y436245D01*
X325755Y438452D01*
X328639Y439647D01*
X331761Y439647D01*
X334645Y438452D01*
X336852Y436245D01*
X338047Y433361D01*
X338047Y430239D01*
X336852Y427355D01*
X336235Y426738D01*
X336156Y426639D01*
X336072Y426545D01*
X336048Y426503D01*
X336018Y426465D01*
X335964Y426351D01*
X335903Y426240D01*
X335890Y426193D01*
X335869Y426150D01*
X335843Y426026D01*
X335808Y425905D01*
X335803Y425844D01*
X335796Y425809D01*
X335797Y425761D01*
X335789Y425661D01*
X335789Y282346D01*
X335803Y282220D01*
X335810Y282094D01*
X335823Y282048D01*
X335829Y282000D01*
X335871Y281881D01*
X335906Y281759D01*
X335930Y281717D01*
X335946Y281672D01*
X336015Y281565D01*
X336076Y281455D01*
X336116Y281409D01*
X336135Y281379D01*
X336170Y281345D01*
X336235Y281269D01*
X342511Y274993D01*
X342610Y274914D01*
X342704Y274830D01*
X342746Y274806D01*
X342784Y274776D01*
X342898Y274722D01*
X343009Y274661D01*
X343055Y274648D01*
X343099Y274627D01*
X343222Y274601D01*
X343344Y274566D01*
X343405Y274561D01*
X343440Y274554D01*
X343488Y274555D01*
X343588Y274547D01*
X344461Y274547D01*
X347345Y273352D01*
X349552Y271145D01*
X350747Y268261D01*
X350747Y265139D01*
X349552Y262255D01*
X347345Y260048D01*
X344461Y258853D01*
X341339Y258853D01*
X338455Y260048D01*
X336248Y262255D01*
X335053Y265139D01*
X335053Y266012D01*
X335039Y266138D01*
X335032Y266264D01*
X335019Y266310D01*
X335013Y266358D01*
X334971Y266477D01*
X334936Y266599D01*
X334912Y266641D01*
X334896Y266686D01*
X334827Y266793D01*
X334766Y266903D01*
X334726Y266949D01*
X334707Y266979D01*
X334672Y267013D01*
X334607Y267089D01*
X325462Y276234D01*
X325390Y276408D01*
X325317Y276539D01*
X325248Y276673D01*
X325233Y276691D01*
X325221Y276712D01*
X325120Y276824D01*
X325022Y276938D01*
X325003Y276953D01*
X324987Y276971D01*
X324863Y277056D01*
X324742Y277146D01*
X324720Y277155D01*
X324700Y277169D01*
X324560Y277224D01*
X324422Y277284D01*
X324398Y277288D01*
X324376Y277297D01*
X324227Y277319D01*
X324079Y277345D01*
X324055Y277344D01*
X324031Y277348D01*
X323881Y277335D01*
X323731Y277327D01*
X323708Y277321D01*
X323684Y277319D01*
X323541Y277272D01*
X323396Y277231D01*
X323375Y277219D01*
X323352Y277212D01*
X323223Y277134D01*
X323092Y277061D01*
X323070Y277042D01*
X323053Y277032D01*
X323020Y276999D01*
X322906Y276902D01*
X313093Y267089D01*
X313014Y266990D01*
X312930Y266896D01*
X312906Y266854D01*
X312876Y266816D01*
X312822Y266702D01*
X312761Y266591D01*
X312748Y266545D01*
X312727Y266501D01*
X312701Y266378D01*
X312666Y266256D01*
X312661Y266195D01*
X312654Y266160D01*
X312655Y266112D01*
X312647Y266012D01*
X312647Y265139D01*
X311452Y262255D01*
X309245Y260048D01*
X306361Y258853D01*
X303239Y258853D01*
X300355Y260048D01*
X299527Y260876D01*
X299507Y260892D01*
X299490Y260912D01*
X299371Y261000D01*
X299254Y261093D01*
X299230Y261104D01*
X299209Y261119D01*
X299073Y261178D01*
X298939Y261241D01*
X298913Y261247D01*
X298889Y261257D01*
X298743Y261284D01*
X298598Y261315D01*
X298572Y261314D01*
X298546Y261319D01*
X298398Y261311D01*
X298250Y261309D01*
X298224Y261302D01*
X298198Y261301D01*
X298056Y261260D01*
X297912Y261224D01*
X297889Y261212D01*
X297863Y261205D01*
X297734Y261132D01*
X297602Y261064D01*
X297582Y261047D01*
X297559Y261034D01*
X297373Y260876D01*
X296545Y260048D01*
X293661Y258853D01*
X290539Y258853D01*
G37*
%LPD*%
%LPC*%
G36*
X156931Y168655D02*
X156931Y168655D01*
X153570Y170048D01*
X150998Y172620D01*
X149605Y175981D01*
X149605Y187550D01*
X149588Y187699D01*
X149576Y187849D01*
X149568Y187872D01*
X149565Y187896D01*
X149515Y188037D01*
X149468Y188181D01*
X149456Y188201D01*
X149448Y188224D01*
X149366Y188350D01*
X149289Y188479D01*
X149272Y188497D01*
X149259Y188517D01*
X149150Y188622D01*
X149046Y188729D01*
X149026Y188742D01*
X149008Y188759D01*
X148879Y188836D01*
X148753Y188917D01*
X148730Y188925D01*
X148709Y188938D01*
X148566Y188984D01*
X148424Y189034D01*
X148400Y189037D01*
X148377Y189044D01*
X148228Y189056D01*
X148078Y189073D01*
X148054Y189070D01*
X148030Y189072D01*
X147881Y189050D01*
X147732Y189032D01*
X147704Y189023D01*
X147685Y189020D01*
X147642Y189003D01*
X144489Y189003D01*
X141605Y190198D01*
X139398Y192405D01*
X138203Y195289D01*
X138203Y198411D01*
X139398Y201295D01*
X141605Y203502D01*
X144489Y204697D01*
X147659Y204697D01*
X147787Y204656D01*
X147811Y204654D01*
X147834Y204647D01*
X147985Y204640D01*
X148134Y204628D01*
X148158Y204632D01*
X148182Y204630D01*
X148330Y204657D01*
X148479Y204680D01*
X148501Y204689D01*
X148525Y204693D01*
X148663Y204753D01*
X148803Y204808D01*
X148822Y204822D01*
X148845Y204832D01*
X148966Y204922D01*
X149089Y205007D01*
X149105Y205025D01*
X149124Y205040D01*
X149222Y205155D01*
X149322Y205266D01*
X149334Y205287D01*
X149350Y205306D01*
X149418Y205439D01*
X149491Y205571D01*
X149497Y205594D01*
X149508Y205616D01*
X149545Y205762D01*
X149586Y205907D01*
X149588Y205935D01*
X149593Y205954D01*
X149593Y206001D01*
X149605Y206150D01*
X149605Y224069D01*
X150998Y227430D01*
X153570Y230002D01*
X156931Y231395D01*
X160569Y231395D01*
X163930Y230002D01*
X166502Y227430D01*
X167895Y224069D01*
X167895Y185420D01*
X167898Y185394D01*
X167896Y185368D01*
X167918Y185221D01*
X167935Y185074D01*
X167943Y185049D01*
X167947Y185023D01*
X168002Y184885D01*
X168052Y184746D01*
X168066Y184724D01*
X168076Y184699D01*
X168161Y184578D01*
X168241Y184453D01*
X168260Y184435D01*
X168275Y184413D01*
X168385Y184314D01*
X168492Y184211D01*
X168514Y184197D01*
X168534Y184180D01*
X168664Y184108D01*
X168791Y184032D01*
X168816Y184024D01*
X168839Y184011D01*
X168982Y183971D01*
X169123Y183926D01*
X169149Y183924D01*
X169174Y183916D01*
X169418Y183897D01*
X184869Y183897D01*
X184994Y183911D01*
X185121Y183918D01*
X185167Y183931D01*
X185215Y183937D01*
X185334Y183979D01*
X185456Y184014D01*
X185498Y184038D01*
X185543Y184054D01*
X185649Y184123D01*
X185760Y184184D01*
X185806Y184224D01*
X185836Y184243D01*
X185869Y184278D01*
X185946Y184343D01*
X186055Y184452D01*
X188939Y185647D01*
X192061Y185647D01*
X194945Y184452D01*
X195054Y184343D01*
X195153Y184264D01*
X195247Y184180D01*
X195289Y184156D01*
X195327Y184126D01*
X195441Y184072D01*
X195552Y184011D01*
X195599Y183998D01*
X195642Y183977D01*
X195766Y183951D01*
X195887Y183916D01*
X195948Y183911D01*
X195983Y183904D01*
X196031Y183905D01*
X196131Y183897D01*
X235669Y183897D01*
X235794Y183911D01*
X235921Y183918D01*
X235967Y183931D01*
X236015Y183937D01*
X236134Y183979D01*
X236255Y184014D01*
X236298Y184038D01*
X236343Y184054D01*
X236449Y184123D01*
X236560Y184184D01*
X236606Y184224D01*
X236636Y184243D01*
X236669Y184278D01*
X236746Y184343D01*
X236855Y184452D01*
X239739Y185647D01*
X242861Y185647D01*
X245745Y184452D01*
X245854Y184343D01*
X245953Y184264D01*
X246047Y184180D01*
X246089Y184156D01*
X246127Y184126D01*
X246241Y184072D01*
X246352Y184011D01*
X246399Y183998D01*
X246442Y183977D01*
X246566Y183951D01*
X246687Y183916D01*
X246748Y183911D01*
X246783Y183904D01*
X246831Y183905D01*
X246931Y183897D01*
X286469Y183897D01*
X286594Y183911D01*
X286721Y183918D01*
X286767Y183931D01*
X286815Y183937D01*
X286934Y183979D01*
X287055Y184014D01*
X287098Y184038D01*
X287143Y184054D01*
X287249Y184123D01*
X287360Y184184D01*
X287406Y184224D01*
X287436Y184243D01*
X287469Y184278D01*
X287546Y184343D01*
X287655Y184452D01*
X290539Y185647D01*
X293661Y185647D01*
X296545Y184452D01*
X296654Y184343D01*
X296753Y184264D01*
X296847Y184180D01*
X296889Y184156D01*
X296927Y184126D01*
X297041Y184072D01*
X297152Y184011D01*
X297199Y183998D01*
X297242Y183977D01*
X297366Y183951D01*
X297487Y183916D01*
X297548Y183911D01*
X297583Y183904D01*
X297631Y183905D01*
X297731Y183897D01*
X337269Y183897D01*
X337394Y183911D01*
X337521Y183918D01*
X337567Y183931D01*
X337615Y183937D01*
X337734Y183979D01*
X337855Y184014D01*
X337898Y184038D01*
X337943Y184054D01*
X338049Y184123D01*
X338160Y184184D01*
X338206Y184224D01*
X338236Y184243D01*
X338269Y184278D01*
X338346Y184343D01*
X338455Y184452D01*
X341339Y185647D01*
X344461Y185647D01*
X347345Y184452D01*
X347454Y184343D01*
X347553Y184264D01*
X347647Y184180D01*
X347689Y184156D01*
X347727Y184126D01*
X347841Y184072D01*
X347952Y184011D01*
X347999Y183998D01*
X348042Y183977D01*
X348166Y183951D01*
X348287Y183916D01*
X348348Y183911D01*
X348383Y183904D01*
X348431Y183905D01*
X348531Y183897D01*
X375369Y183897D01*
X375494Y183911D01*
X375621Y183918D01*
X375667Y183931D01*
X375715Y183937D01*
X375834Y183979D01*
X375955Y184014D01*
X375998Y184038D01*
X376043Y184054D01*
X376149Y184123D01*
X376260Y184184D01*
X376306Y184224D01*
X376336Y184243D01*
X376369Y184278D01*
X376446Y184343D01*
X376555Y184452D01*
X379439Y185647D01*
X382561Y185647D01*
X385445Y184452D01*
X387652Y182245D01*
X388847Y179361D01*
X388847Y176239D01*
X387652Y173355D01*
X385445Y171148D01*
X382561Y169953D01*
X379439Y169953D01*
X376555Y171148D01*
X376446Y171257D01*
X376347Y171336D01*
X376253Y171420D01*
X376211Y171444D01*
X376173Y171474D01*
X376059Y171528D01*
X375948Y171589D01*
X375901Y171602D01*
X375858Y171623D01*
X375734Y171649D01*
X375613Y171684D01*
X375552Y171689D01*
X375517Y171696D01*
X375469Y171695D01*
X375369Y171703D01*
X348531Y171703D01*
X348406Y171689D01*
X348279Y171682D01*
X348233Y171669D01*
X348185Y171663D01*
X348066Y171621D01*
X347945Y171586D01*
X347902Y171562D01*
X347857Y171546D01*
X347751Y171477D01*
X347640Y171416D01*
X347594Y171376D01*
X347564Y171357D01*
X347544Y171336D01*
X347542Y171335D01*
X347526Y171319D01*
X347454Y171257D01*
X347345Y171148D01*
X344461Y169953D01*
X341339Y169953D01*
X338455Y171148D01*
X338346Y171257D01*
X338247Y171336D01*
X338153Y171420D01*
X338111Y171444D01*
X338073Y171474D01*
X337959Y171528D01*
X337848Y171589D01*
X337801Y171602D01*
X337758Y171623D01*
X337634Y171649D01*
X337513Y171684D01*
X337452Y171689D01*
X337417Y171696D01*
X337369Y171695D01*
X337269Y171703D01*
X297731Y171703D01*
X297606Y171689D01*
X297479Y171682D01*
X297433Y171669D01*
X297385Y171663D01*
X297266Y171621D01*
X297145Y171586D01*
X297102Y171562D01*
X297057Y171546D01*
X296951Y171477D01*
X296840Y171416D01*
X296794Y171376D01*
X296764Y171357D01*
X296744Y171336D01*
X296742Y171335D01*
X296726Y171319D01*
X296654Y171257D01*
X296545Y171148D01*
X293661Y169953D01*
X290539Y169953D01*
X287655Y171148D01*
X287546Y171257D01*
X287447Y171336D01*
X287353Y171420D01*
X287311Y171444D01*
X287273Y171474D01*
X287159Y171528D01*
X287048Y171589D01*
X287001Y171602D01*
X286958Y171623D01*
X286834Y171649D01*
X286713Y171684D01*
X286652Y171689D01*
X286617Y171696D01*
X286569Y171695D01*
X286469Y171703D01*
X246931Y171703D01*
X246806Y171689D01*
X246679Y171682D01*
X246633Y171669D01*
X246585Y171663D01*
X246466Y171621D01*
X246345Y171586D01*
X246302Y171562D01*
X246257Y171546D01*
X246151Y171477D01*
X246040Y171416D01*
X245994Y171376D01*
X245964Y171357D01*
X245944Y171336D01*
X245942Y171335D01*
X245926Y171319D01*
X245854Y171257D01*
X245745Y171148D01*
X242861Y169953D01*
X239739Y169953D01*
X236855Y171148D01*
X236746Y171257D01*
X236647Y171336D01*
X236553Y171420D01*
X236511Y171444D01*
X236473Y171474D01*
X236359Y171528D01*
X236248Y171589D01*
X236201Y171602D01*
X236158Y171623D01*
X236034Y171649D01*
X235913Y171684D01*
X235852Y171689D01*
X235817Y171696D01*
X235769Y171695D01*
X235669Y171703D01*
X196131Y171703D01*
X196006Y171689D01*
X195879Y171682D01*
X195833Y171669D01*
X195785Y171663D01*
X195666Y171621D01*
X195545Y171586D01*
X195502Y171562D01*
X195457Y171546D01*
X195351Y171477D01*
X195240Y171416D01*
X195194Y171376D01*
X195164Y171357D01*
X195144Y171336D01*
X195142Y171335D01*
X195126Y171319D01*
X195054Y171257D01*
X194945Y171148D01*
X192061Y169953D01*
X188939Y169953D01*
X186055Y171148D01*
X185946Y171257D01*
X185847Y171336D01*
X185753Y171420D01*
X185711Y171444D01*
X185673Y171474D01*
X185559Y171528D01*
X185448Y171589D01*
X185402Y171602D01*
X185358Y171623D01*
X185235Y171649D01*
X185113Y171684D01*
X185052Y171689D01*
X185017Y171696D01*
X184969Y171695D01*
X184869Y171703D01*
X166217Y171703D01*
X166091Y171689D01*
X165965Y171682D01*
X165919Y171669D01*
X165871Y171663D01*
X165752Y171621D01*
X165630Y171586D01*
X165588Y171562D01*
X165543Y171546D01*
X165436Y171477D01*
X165326Y171416D01*
X165280Y171376D01*
X165250Y171357D01*
X165230Y171336D01*
X165228Y171335D01*
X165212Y171319D01*
X165140Y171257D01*
X163930Y170048D01*
X160569Y168655D01*
X156931Y168655D01*
G37*
%LPD*%
%LPC*%
G36*
X156931Y333755D02*
X156931Y333755D01*
X153570Y335148D01*
X150998Y337720D01*
X149605Y341081D01*
X149605Y357419D01*
X150998Y360780D01*
X153784Y363567D01*
X160770Y370553D01*
X160833Y370631D01*
X160903Y370704D01*
X160941Y370768D01*
X160987Y370826D01*
X161030Y370917D01*
X161081Y371003D01*
X161104Y371074D01*
X161136Y371141D01*
X161157Y371239D01*
X161188Y371335D01*
X161194Y371409D01*
X161209Y371482D01*
X161208Y371582D01*
X161216Y371682D01*
X161205Y371756D01*
X161203Y371830D01*
X161179Y371927D01*
X161164Y372027D01*
X161136Y372096D01*
X161118Y372168D01*
X161072Y372258D01*
X161035Y372351D01*
X160993Y372412D01*
X160959Y372478D01*
X160893Y372555D01*
X160836Y372637D01*
X160781Y372687D01*
X160733Y372743D01*
X160652Y372803D01*
X160577Y372870D01*
X160512Y372906D01*
X160453Y372951D01*
X160360Y372990D01*
X160272Y373039D01*
X160201Y373059D01*
X160133Y373089D01*
X160034Y373106D01*
X159937Y373134D01*
X159837Y373142D01*
X159789Y373150D01*
X159754Y373148D01*
X159693Y373153D01*
X157189Y373153D01*
X154305Y374348D01*
X152098Y376555D01*
X150903Y379439D01*
X150903Y382561D01*
X152098Y385445D01*
X154305Y387652D01*
X157189Y388847D01*
X160359Y388847D01*
X160487Y388806D01*
X160511Y388804D01*
X160534Y388797D01*
X160685Y388790D01*
X160834Y388778D01*
X160858Y388782D01*
X160882Y388780D01*
X161030Y388807D01*
X161179Y388830D01*
X161201Y388839D01*
X161225Y388843D01*
X161363Y388903D01*
X161503Y388958D01*
X161522Y388972D01*
X161545Y388982D01*
X161666Y389072D01*
X161789Y389157D01*
X161805Y389175D01*
X161824Y389190D01*
X161922Y389305D01*
X162022Y389416D01*
X162034Y389437D01*
X162050Y389456D01*
X162118Y389589D01*
X162191Y389721D01*
X162197Y389744D01*
X162208Y389766D01*
X162245Y389912D01*
X162286Y390057D01*
X162288Y390085D01*
X162293Y390104D01*
X162293Y390151D01*
X162305Y390300D01*
X162305Y409800D01*
X162288Y409949D01*
X162276Y410099D01*
X162268Y410122D01*
X162265Y410146D01*
X162215Y410287D01*
X162168Y410431D01*
X162156Y410451D01*
X162148Y410474D01*
X162066Y410600D01*
X161989Y410729D01*
X161972Y410747D01*
X161959Y410767D01*
X161850Y410872D01*
X161746Y410979D01*
X161726Y410992D01*
X161708Y411009D01*
X161579Y411086D01*
X161453Y411167D01*
X161430Y411175D01*
X161409Y411188D01*
X161266Y411234D01*
X161124Y411284D01*
X161100Y411287D01*
X161077Y411294D01*
X160928Y411306D01*
X160778Y411323D01*
X160754Y411320D01*
X160730Y411322D01*
X160581Y411300D01*
X160432Y411282D01*
X160404Y411273D01*
X160385Y411270D01*
X160342Y411253D01*
X157189Y411253D01*
X154305Y412448D01*
X152098Y414655D01*
X150903Y417539D01*
X150903Y420661D01*
X152098Y423545D01*
X154305Y425752D01*
X157189Y426947D01*
X160359Y426947D01*
X160487Y426906D01*
X160511Y426904D01*
X160534Y426897D01*
X160685Y426890D01*
X160834Y426878D01*
X160858Y426882D01*
X160882Y426880D01*
X161030Y426907D01*
X161179Y426930D01*
X161201Y426939D01*
X161225Y426943D01*
X161363Y427003D01*
X161503Y427058D01*
X161522Y427072D01*
X161545Y427082D01*
X161666Y427172D01*
X161789Y427257D01*
X161805Y427275D01*
X161824Y427290D01*
X161922Y427405D01*
X162022Y427516D01*
X162034Y427537D01*
X162050Y427556D01*
X162118Y427689D01*
X162191Y427821D01*
X162197Y427844D01*
X162208Y427866D01*
X162245Y428012D01*
X162286Y428157D01*
X162288Y428185D01*
X162293Y428204D01*
X162293Y428251D01*
X162305Y428400D01*
X162305Y444319D01*
X163698Y447680D01*
X166270Y450252D01*
X169631Y451645D01*
X173269Y451645D01*
X176630Y450252D01*
X179202Y447680D01*
X180595Y444319D01*
X180595Y366481D01*
X179202Y363120D01*
X168341Y352258D01*
X168262Y352159D01*
X168178Y352065D01*
X168154Y352023D01*
X168124Y351985D01*
X168070Y351871D01*
X168009Y351760D01*
X167996Y351714D01*
X167975Y351670D01*
X167949Y351547D01*
X167914Y351425D01*
X167909Y351364D01*
X167902Y351329D01*
X167903Y351281D01*
X167895Y351181D01*
X167895Y341081D01*
X166502Y337720D01*
X163930Y335148D01*
X160569Y333755D01*
X156931Y333755D01*
G37*
%LPD*%
%LPC*%
G36*
X366739Y258853D02*
X366739Y258853D01*
X363855Y260048D01*
X361648Y262255D01*
X360453Y265139D01*
X360453Y266012D01*
X360439Y266138D01*
X360432Y266264D01*
X360419Y266310D01*
X360413Y266358D01*
X360371Y266477D01*
X360336Y266599D01*
X360312Y266641D01*
X360296Y266686D01*
X360227Y266793D01*
X360166Y266903D01*
X360126Y266949D01*
X360107Y266979D01*
X360072Y267013D01*
X360007Y267089D01*
X356732Y270364D01*
X355881Y272418D01*
X355881Y438361D01*
X355867Y438486D01*
X355860Y438613D01*
X355847Y438659D01*
X355841Y438707D01*
X355799Y438826D01*
X355764Y438947D01*
X355740Y438990D01*
X355724Y439035D01*
X355655Y439141D01*
X355594Y439252D01*
X355554Y439298D01*
X355535Y439328D01*
X355500Y439361D01*
X355435Y439438D01*
X354818Y440055D01*
X353623Y442939D01*
X353623Y446061D01*
X354818Y448945D01*
X357025Y451152D01*
X359909Y452347D01*
X363031Y452347D01*
X365915Y451152D01*
X368122Y448945D01*
X369317Y446061D01*
X369317Y442939D01*
X368122Y440055D01*
X367505Y439438D01*
X367426Y439339D01*
X367342Y439245D01*
X367318Y439203D01*
X367288Y439165D01*
X367234Y439051D01*
X367173Y438940D01*
X367160Y438893D01*
X367139Y438850D01*
X367113Y438726D01*
X367078Y438605D01*
X367073Y438544D01*
X367066Y438509D01*
X367067Y438461D01*
X367059Y438361D01*
X367059Y276476D01*
X367073Y276350D01*
X367080Y276224D01*
X367093Y276178D01*
X367099Y276130D01*
X367141Y276011D01*
X367176Y275889D01*
X367200Y275847D01*
X367216Y275802D01*
X367285Y275695D01*
X367346Y275585D01*
X367386Y275539D01*
X367405Y275509D01*
X367440Y275475D01*
X367505Y275399D01*
X367911Y274993D01*
X368010Y274914D01*
X368104Y274830D01*
X368146Y274806D01*
X368184Y274776D01*
X368298Y274722D01*
X368409Y274661D01*
X368455Y274648D01*
X368499Y274627D01*
X368622Y274601D01*
X368744Y274566D01*
X368805Y274561D01*
X368840Y274554D01*
X368888Y274555D01*
X368988Y274547D01*
X369861Y274547D01*
X372745Y273352D01*
X374952Y271145D01*
X376147Y268261D01*
X376147Y265139D01*
X374952Y262255D01*
X372745Y260048D01*
X369861Y258853D01*
X366739Y258853D01*
G37*
%LPD*%
%LPC*%
G36*
X47372Y139064D02*
X47372Y139064D01*
X40751Y140839D01*
X34814Y144266D01*
X29966Y149114D01*
X26539Y155051D01*
X24764Y161672D01*
X24764Y168528D01*
X26539Y175149D01*
X29966Y181086D01*
X34814Y185934D01*
X40751Y189361D01*
X47372Y191136D01*
X54228Y191136D01*
X60849Y189361D01*
X66786Y185934D01*
X71634Y181086D01*
X75061Y175149D01*
X76836Y168528D01*
X76836Y161672D01*
X75061Y155051D01*
X71634Y149114D01*
X66786Y144266D01*
X60849Y140839D01*
X54228Y139064D01*
X47372Y139064D01*
G37*
%LPD*%
%LPC*%
G36*
X53652Y229695D02*
X53652Y229695D01*
X49386Y231462D01*
X46122Y234726D01*
X44355Y238992D01*
X44355Y243608D01*
X46122Y247874D01*
X49386Y251138D01*
X52898Y252593D01*
X52986Y252642D01*
X53078Y252682D01*
X53138Y252726D01*
X53203Y252762D01*
X53277Y252829D01*
X53358Y252889D01*
X53406Y252946D01*
X53461Y252996D01*
X53518Y253079D01*
X53583Y253155D01*
X53617Y253222D01*
X53659Y253283D01*
X53696Y253376D01*
X53742Y253466D01*
X53760Y253538D01*
X53787Y253607D01*
X53802Y253706D01*
X53826Y253804D01*
X53827Y253878D01*
X53838Y253952D01*
X53830Y254052D01*
X53831Y254152D01*
X53815Y254225D01*
X53809Y254299D01*
X53778Y254395D01*
X53757Y254493D01*
X53725Y254560D01*
X53702Y254631D01*
X53650Y254717D01*
X53607Y254808D01*
X53561Y254866D01*
X53522Y254929D01*
X53452Y255001D01*
X53390Y255080D01*
X53331Y255126D01*
X53279Y255179D01*
X53195Y255234D01*
X53116Y255296D01*
X53027Y255342D01*
X52986Y255368D01*
X52952Y255380D01*
X52898Y255407D01*
X49386Y256862D01*
X46122Y260126D01*
X44355Y264392D01*
X44355Y269008D01*
X46122Y273274D01*
X49386Y276538D01*
X53652Y278305D01*
X73348Y278305D01*
X77614Y276538D01*
X80878Y273274D01*
X82645Y269008D01*
X82645Y264392D01*
X80878Y260126D01*
X77614Y256862D01*
X74102Y255407D01*
X74014Y255359D01*
X73922Y255319D01*
X73862Y255274D01*
X73797Y255238D01*
X73723Y255171D01*
X73642Y255111D01*
X73594Y255054D01*
X73539Y255004D01*
X73482Y254921D01*
X73417Y254845D01*
X73383Y254778D01*
X73341Y254717D01*
X73304Y254624D01*
X73258Y254534D01*
X73240Y254462D01*
X73213Y254393D01*
X73198Y254294D01*
X73174Y254196D01*
X73173Y254122D01*
X73162Y254048D01*
X73170Y253948D01*
X73169Y253848D01*
X73185Y253775D01*
X73191Y253701D01*
X73222Y253605D01*
X73243Y253507D01*
X73275Y253440D01*
X73298Y253369D01*
X73350Y253283D01*
X73393Y253192D01*
X73439Y253134D01*
X73478Y253071D01*
X73548Y252998D01*
X73610Y252920D01*
X73669Y252874D01*
X73721Y252821D01*
X73805Y252766D01*
X73884Y252704D01*
X73973Y252658D01*
X74014Y252632D01*
X74047Y252620D01*
X74102Y252593D01*
X77614Y251138D01*
X80878Y247874D01*
X82645Y243608D01*
X82645Y238992D01*
X80878Y234726D01*
X77614Y231462D01*
X73348Y229695D01*
X53652Y229695D01*
G37*
%LPD*%
%LPC*%
G36*
X66352Y382095D02*
X66352Y382095D01*
X62086Y383862D01*
X58822Y387126D01*
X57055Y391392D01*
X57055Y396008D01*
X58822Y400274D01*
X62086Y403538D01*
X65598Y404993D01*
X65686Y405041D01*
X65778Y405081D01*
X65838Y405126D01*
X65903Y405162D01*
X65977Y405229D01*
X66058Y405289D01*
X66106Y405346D01*
X66161Y405396D01*
X66218Y405479D01*
X66283Y405555D01*
X66317Y405622D01*
X66359Y405683D01*
X66396Y405776D01*
X66442Y405866D01*
X66460Y405938D01*
X66487Y406007D01*
X66502Y406106D01*
X66526Y406204D01*
X66527Y406278D01*
X66538Y406352D01*
X66530Y406452D01*
X66531Y406552D01*
X66515Y406625D01*
X66509Y406699D01*
X66478Y406795D01*
X66457Y406893D01*
X66425Y406960D01*
X66402Y407031D01*
X66350Y407117D01*
X66307Y407208D01*
X66261Y407266D01*
X66222Y407329D01*
X66152Y407402D01*
X66090Y407480D01*
X66031Y407526D01*
X65979Y407579D01*
X65895Y407634D01*
X65816Y407696D01*
X65727Y407742D01*
X65686Y407768D01*
X65653Y407780D01*
X65598Y407807D01*
X62086Y409262D01*
X58822Y412526D01*
X57055Y416792D01*
X57055Y421408D01*
X58822Y425674D01*
X62086Y428938D01*
X66352Y430705D01*
X86048Y430705D01*
X90314Y428938D01*
X93578Y425674D01*
X95345Y421408D01*
X95345Y416792D01*
X93578Y412526D01*
X90314Y409262D01*
X86802Y407807D01*
X86714Y407759D01*
X86622Y407718D01*
X86562Y407674D01*
X86497Y407638D01*
X86423Y407571D01*
X86342Y407511D01*
X86294Y407454D01*
X86239Y407404D01*
X86182Y407321D01*
X86117Y407245D01*
X86083Y407178D01*
X86041Y407117D01*
X86004Y407024D01*
X85958Y406934D01*
X85940Y406862D01*
X85913Y406793D01*
X85898Y406694D01*
X85874Y406596D01*
X85873Y406522D01*
X85862Y406448D01*
X85870Y406348D01*
X85869Y406248D01*
X85885Y406175D01*
X85891Y406101D01*
X85922Y406005D01*
X85943Y405907D01*
X85975Y405840D01*
X85998Y405769D01*
X86050Y405683D01*
X86093Y405592D01*
X86139Y405534D01*
X86178Y405471D01*
X86248Y405399D01*
X86310Y405320D01*
X86369Y405274D01*
X86421Y405221D01*
X86505Y405166D01*
X86584Y405104D01*
X86673Y405058D01*
X86714Y405032D01*
X86748Y405020D01*
X86802Y404993D01*
X90314Y403538D01*
X93578Y400274D01*
X95345Y396008D01*
X95345Y391392D01*
X93578Y387126D01*
X90314Y383862D01*
X86048Y382095D01*
X66352Y382095D01*
G37*
%LPD*%
%LPC*%
G36*
X61192Y526955D02*
X61192Y526955D01*
X56926Y528722D01*
X53662Y531986D01*
X51895Y536252D01*
X51895Y555948D01*
X53662Y560214D01*
X56926Y563478D01*
X61192Y565245D01*
X65808Y565245D01*
X70074Y563478D01*
X73338Y560214D01*
X75105Y555948D01*
X75105Y536252D01*
X73338Y531986D01*
X70074Y528722D01*
X65808Y526955D01*
X61192Y526955D01*
G37*
%LPD*%
%LPC*%
G36*
X555971Y481837D02*
X555971Y481837D01*
X550742Y484003D01*
X546741Y488004D01*
X544575Y493233D01*
X544575Y498891D01*
X546741Y504120D01*
X550742Y508121D01*
X555971Y510287D01*
X561629Y510287D01*
X566858Y508121D01*
X570859Y504120D01*
X573025Y498891D01*
X573025Y493233D01*
X570859Y488004D01*
X566858Y484003D01*
X561629Y481837D01*
X555971Y481837D01*
G37*
%LPD*%
%LPC*%
G36*
X555971Y431799D02*
X555971Y431799D01*
X550742Y433965D01*
X546741Y437966D01*
X544575Y443195D01*
X544575Y448853D01*
X546741Y454082D01*
X550742Y458083D01*
X555971Y460249D01*
X561629Y460249D01*
X566858Y458083D01*
X570859Y454082D01*
X573025Y448853D01*
X573025Y443195D01*
X570859Y437966D01*
X566858Y433965D01*
X561629Y431799D01*
X555971Y431799D01*
G37*
%LPD*%
%LPC*%
G36*
X555971Y381761D02*
X555971Y381761D01*
X550742Y383927D01*
X546741Y387928D01*
X544575Y393157D01*
X544575Y398815D01*
X546741Y404044D01*
X550742Y408045D01*
X555971Y410211D01*
X561629Y410211D01*
X566858Y408045D01*
X570859Y404044D01*
X573025Y398815D01*
X573025Y393157D01*
X570859Y387928D01*
X566858Y383927D01*
X561629Y381761D01*
X555971Y381761D01*
G37*
%LPD*%
%LPC*%
G36*
X555971Y331977D02*
X555971Y331977D01*
X550742Y334143D01*
X546741Y338144D01*
X544575Y343373D01*
X544575Y349031D01*
X546741Y354260D01*
X550742Y358261D01*
X555971Y360427D01*
X561629Y360427D01*
X566858Y358261D01*
X570859Y354260D01*
X573025Y349031D01*
X573025Y343373D01*
X570859Y338144D01*
X566858Y334143D01*
X561629Y331977D01*
X555971Y331977D01*
G37*
%LPD*%
%LPC*%
G36*
X555971Y281939D02*
X555971Y281939D01*
X550742Y284105D01*
X546741Y288106D01*
X544575Y293335D01*
X544575Y298993D01*
X546741Y304222D01*
X550742Y308223D01*
X555971Y310389D01*
X561629Y310389D01*
X566858Y308223D01*
X570859Y304222D01*
X573025Y298993D01*
X573025Y293335D01*
X570859Y288106D01*
X566858Y284105D01*
X561629Y281939D01*
X555971Y281939D01*
G37*
%LPD*%
%LPC*%
G36*
X36539Y449353D02*
X36539Y449353D01*
X33655Y450548D01*
X31448Y452755D01*
X30253Y455639D01*
X30253Y458761D01*
X31448Y461645D01*
X33655Y463852D01*
X36539Y465047D01*
X39661Y465047D01*
X42545Y463852D01*
X44752Y461645D01*
X45947Y458761D01*
X45947Y455639D01*
X44752Y452755D01*
X42545Y450548D01*
X39661Y449353D01*
X36539Y449353D01*
G37*
%LPD*%
%LPC*%
G36*
X40599Y548599D02*
X40599Y548599D01*
X40599Y563427D01*
X41970Y562982D01*
X43383Y562262D01*
X44667Y561329D01*
X45789Y560207D01*
X46722Y558923D01*
X47442Y557510D01*
X47933Y556001D01*
X48181Y554433D01*
X48181Y548599D01*
X40599Y548599D01*
G37*
%LPD*%
%LPC*%
G36*
X167599Y548599D02*
X167599Y548599D01*
X167599Y563427D01*
X168970Y562982D01*
X170383Y562262D01*
X171667Y561329D01*
X172789Y560207D01*
X173722Y558923D01*
X174442Y557510D01*
X174933Y556001D01*
X175181Y554433D01*
X175181Y548599D01*
X167599Y548599D01*
G37*
%LPD*%
%LPC*%
G36*
X78699Y370799D02*
X78699Y370799D01*
X78699Y378381D01*
X84533Y378381D01*
X86101Y378133D01*
X87610Y377642D01*
X89023Y376922D01*
X90307Y375989D01*
X91429Y374867D01*
X92362Y373583D01*
X93082Y372170D01*
X93527Y370799D01*
X78699Y370799D01*
G37*
%LPD*%
%LPC*%
G36*
X65999Y218399D02*
X65999Y218399D01*
X65999Y225981D01*
X71833Y225981D01*
X73401Y225733D01*
X74910Y225242D01*
X76323Y224522D01*
X77607Y223589D01*
X78729Y222467D01*
X79662Y221183D01*
X80382Y219770D01*
X80827Y218399D01*
X65999Y218399D01*
G37*
%LPD*%
%LPC*%
G36*
X58873Y370799D02*
X58873Y370799D01*
X59318Y372170D01*
X60038Y373583D01*
X60971Y374867D01*
X62093Y375989D01*
X63377Y376922D01*
X64790Y377642D01*
X66299Y378133D01*
X67867Y378381D01*
X73701Y378381D01*
X73701Y370799D01*
X58873Y370799D01*
G37*
%LPD*%
%LPC*%
G36*
X46173Y218399D02*
X46173Y218399D01*
X46618Y219770D01*
X47338Y221183D01*
X48271Y222467D01*
X49393Y223589D01*
X50677Y224522D01*
X52090Y225242D01*
X53599Y225733D01*
X55167Y225981D01*
X61001Y225981D01*
X61001Y218399D01*
X46173Y218399D01*
G37*
%LPD*%
%LPC*%
G36*
X40599Y543601D02*
X40599Y543601D01*
X48181Y543601D01*
X48181Y537767D01*
X47933Y536199D01*
X47442Y534690D01*
X46722Y533277D01*
X45789Y531993D01*
X44667Y530871D01*
X43383Y529938D01*
X41970Y529218D01*
X40599Y528773D01*
X40599Y543601D01*
G37*
%LPD*%
%LPC*%
G36*
X167599Y543601D02*
X167599Y543601D01*
X175181Y543601D01*
X175181Y537767D01*
X174933Y536199D01*
X174442Y534690D01*
X173722Y533277D01*
X172789Y531993D01*
X171667Y530871D01*
X170383Y529938D01*
X168970Y529218D01*
X167599Y528773D01*
X167599Y543601D01*
G37*
%LPD*%
%LPC*%
G36*
X28019Y548599D02*
X28019Y548599D01*
X28019Y554433D01*
X28267Y556001D01*
X28758Y557510D01*
X29478Y558923D01*
X30411Y560207D01*
X31533Y561329D01*
X32817Y562262D01*
X34230Y562982D01*
X35601Y563427D01*
X35601Y548599D01*
X28019Y548599D01*
G37*
%LPD*%
%LPC*%
G36*
X155019Y548599D02*
X155019Y548599D01*
X155019Y554433D01*
X155267Y556001D01*
X155758Y557510D01*
X156478Y558923D01*
X157411Y560207D01*
X158533Y561329D01*
X159817Y562262D01*
X161230Y562982D01*
X162601Y563427D01*
X162601Y548599D01*
X155019Y548599D01*
G37*
%LPD*%
%LPC*%
G36*
X78699Y358219D02*
X78699Y358219D01*
X78699Y365801D01*
X93527Y365801D01*
X93082Y364430D01*
X92362Y363017D01*
X91429Y361733D01*
X90307Y360611D01*
X89023Y359678D01*
X87610Y358958D01*
X86101Y358467D01*
X84533Y358219D01*
X78699Y358219D01*
G37*
%LPD*%
%LPC*%
G36*
X65999Y205819D02*
X65999Y205819D01*
X65999Y213401D01*
X80827Y213401D01*
X80382Y212030D01*
X79662Y210617D01*
X78729Y209333D01*
X77607Y208211D01*
X76323Y207278D01*
X74910Y206558D01*
X73401Y206067D01*
X71833Y205819D01*
X65999Y205819D01*
G37*
%LPD*%
%LPC*%
G36*
X34230Y529218D02*
X34230Y529218D01*
X32817Y529938D01*
X31533Y530871D01*
X30411Y531993D01*
X29478Y533277D01*
X28758Y534690D01*
X28267Y536199D01*
X28019Y537767D01*
X28019Y543601D01*
X35601Y543601D01*
X35601Y528773D01*
X34230Y529218D01*
G37*
%LPD*%
%LPC*%
G36*
X161230Y529218D02*
X161230Y529218D01*
X159817Y529938D01*
X158533Y530871D01*
X157411Y531993D01*
X156478Y533277D01*
X155758Y534690D01*
X155267Y536199D01*
X155019Y537767D01*
X155019Y543601D01*
X162601Y543601D01*
X162601Y528773D01*
X161230Y529218D01*
G37*
%LPD*%
%LPC*%
G36*
X67867Y358219D02*
X67867Y358219D01*
X66299Y358467D01*
X64790Y358958D01*
X63377Y359678D01*
X62093Y360611D01*
X60971Y361733D01*
X60038Y363017D01*
X59318Y364430D01*
X58873Y365801D01*
X73701Y365801D01*
X73701Y358219D01*
X67867Y358219D01*
G37*
%LPD*%
%LPC*%
G36*
X55167Y205819D02*
X55167Y205819D01*
X53599Y206067D01*
X52090Y206558D01*
X50677Y207278D01*
X49393Y208211D01*
X48271Y209333D01*
X47338Y210617D01*
X46618Y212030D01*
X46173Y213401D01*
X61001Y213401D01*
X61001Y205819D01*
X55167Y205819D01*
G37*
%LPD*%
%LPC*%
G36*
X27939Y497839D02*
X27939Y497839D01*
X27939Y508636D01*
X30924Y508636D01*
X38736Y500824D01*
X38736Y497839D01*
X27939Y497839D01*
G37*
%LPD*%
%LPC*%
G36*
X370839Y545464D02*
X370839Y545464D01*
X370839Y556261D01*
X381636Y556261D01*
X381636Y553276D01*
X373824Y545464D01*
X370839Y545464D01*
G37*
%LPD*%
%LPC*%
G36*
X27939Y481964D02*
X27939Y481964D01*
X27939Y492761D01*
X38736Y492761D01*
X38736Y489776D01*
X30924Y481964D01*
X27939Y481964D01*
G37*
%LPD*%
%LPC*%
G36*
X362776Y545464D02*
X362776Y545464D01*
X354964Y553276D01*
X354964Y556261D01*
X365761Y556261D01*
X365761Y545464D01*
X362776Y545464D01*
G37*
%LPD*%
D10*
X25400Y419100D03*
X25400Y495300D03*
D11*
X558800Y546100D03*
X558800Y496062D03*
X558800Y446024D03*
X558800Y395986D03*
X558800Y346202D03*
X558800Y296164D03*
D10*
X241300Y571500D03*
D12*
X38100Y553640D02*
X38100Y538560D01*
X63500Y538560D02*
X63500Y553640D01*
X165100Y553640D02*
X165100Y538560D01*
X190500Y538560D02*
X190500Y553640D01*
X71040Y266700D02*
X55960Y266700D01*
X55960Y241300D02*
X71040Y241300D01*
X71040Y215900D02*
X55960Y215900D01*
D13*
X368300Y558800D03*
D12*
X83740Y368300D02*
X68660Y368300D01*
X68660Y393700D02*
X83740Y393700D01*
X83740Y419100D02*
X68660Y419100D01*
D14*
X38100Y457200D03*
X361470Y444500D03*
D15*
X361470Y273530D01*
X368300Y266700D01*
D14*
X368300Y266700D03*
X330200Y431800D03*
D15*
X330200Y279400D01*
X342900Y266700D01*
D14*
X342900Y266700D03*
X323370Y419100D03*
D15*
X323370Y285270D01*
X304800Y266700D01*
D14*
X304800Y266700D03*
X316540Y406400D03*
D15*
X316540Y291140D01*
X292100Y266700D01*
D14*
X292100Y266700D03*
X342900Y177800D03*
D16*
X292100Y177800D01*
D14*
X292100Y177800D03*
D16*
X241300Y177800D01*
D14*
X241300Y177800D03*
D16*
X190500Y177800D01*
D14*
X190500Y177800D03*
X381000Y177800D03*
D16*
X342900Y177800D01*
X190500Y177800D02*
X158750Y177800D01*
D14*
X171450Y442500D03*
D17*
X171450Y419100D01*
X171450Y381000D01*
X171450Y368300D01*
X158750Y355600D01*
X158750Y342900D01*
D14*
X158750Y342900D03*
X158750Y222250D03*
D17*
X158750Y196850D01*
X158750Y177800D01*
D14*
X158750Y419100D03*
D18*
X171450Y419100D01*
D14*
X158750Y381000D03*
D18*
X171450Y381000D01*
D14*
X146050Y196850D03*
D18*
X158750Y196850D01*
D19*
X190500Y546100D02*
X190500Y558800D01*
X209550Y577850D02*
X273050Y577850D01*
X527050Y577850D01*
X558800Y546100D01*
X209550Y577850D02*
X190500Y558800D01*
D14*
X209550Y577850D03*
X273050Y577850D03*
X527050Y577850D03*
X203200Y482600D03*
X495300Y558800D03*
X495300Y482600D03*
X495300Y406400D03*
X495300Y254000D03*
X495300Y330200D03*
X368300Y190500D03*
X317500Y190500D03*
X266700Y190500D03*
X215900Y190500D03*
X152400Y165100D03*
X190500Y203200D03*
X190500Y241300D03*
X114300Y406400D03*
X114300Y381000D03*
X266700Y533400D03*
X101600Y495300D03*
X38100Y342900D03*
X107950Y266700D03*
X228600Y342900D03*
X228600Y317500D03*
X330200Y457200D03*
X330200Y476250D03*
X273050Y508000D03*
X273050Y495300D03*
X273050Y482600D03*
X273050Y469900D03*
X273050Y457200D03*
X273050Y444500D03*
X273050Y431800D03*
X273050Y419100D03*
X273050Y406400D03*
X273050Y393700D03*
X273050Y381000D03*
X273050Y368300D03*
X273050Y349250D03*
X273050Y336550D03*
X304800Y330200D03*
M02*
