G04 EAGLE Gerber RS-274X export*
G75*
%MOMM*%
%FSLAX34Y34*%
%LPD*%
%IN*%
%IPPOS*%
%AMOC8*
5,1,8,0,0,1.08239X$1,22.5*%
G01*
%ADD10C,0.254000*%


D10*
X0Y114300D02*
X660200Y114300D01*
X660200Y593600D01*
X0Y593600D01*
X0Y114300D01*
X320675Y545580D02*
X320607Y544543D01*
X320471Y543513D01*
X320269Y542493D01*
X320000Y541489D01*
X319665Y540505D01*
X319268Y539545D01*
X318808Y538613D01*
X318288Y537712D01*
X317711Y536848D01*
X317078Y536024D01*
X316393Y535242D01*
X315658Y534507D01*
X314876Y533822D01*
X314052Y533189D01*
X313188Y532612D01*
X312287Y532092D01*
X311355Y531632D01*
X310395Y531235D01*
X309411Y530900D01*
X308407Y530631D01*
X307387Y530429D01*
X306357Y530293D01*
X305320Y530225D01*
X304280Y530225D01*
X303243Y530293D01*
X302213Y530429D01*
X301193Y530631D01*
X300189Y530900D01*
X299205Y531235D01*
X298245Y531632D01*
X297313Y532092D01*
X296412Y532612D01*
X295548Y533189D01*
X294724Y533822D01*
X293942Y534507D01*
X293207Y535242D01*
X292522Y536024D01*
X291889Y536848D01*
X291312Y537712D01*
X290792Y538613D01*
X290332Y539545D01*
X289935Y540505D01*
X289600Y541489D01*
X289331Y542493D01*
X289129Y543513D01*
X288993Y544543D01*
X288925Y545580D01*
X288925Y546620D01*
X288993Y547657D01*
X289129Y548687D01*
X289331Y549707D01*
X289600Y550711D01*
X289935Y551695D01*
X290332Y552655D01*
X290792Y553587D01*
X291312Y554488D01*
X291889Y555352D01*
X292522Y556176D01*
X293207Y556958D01*
X293942Y557693D01*
X294724Y558378D01*
X295548Y559011D01*
X296412Y559588D01*
X297313Y560108D01*
X298245Y560568D01*
X299205Y560965D01*
X300189Y561300D01*
X301193Y561569D01*
X302213Y561771D01*
X303243Y561907D01*
X304280Y561975D01*
X305320Y561975D01*
X306357Y561907D01*
X307387Y561771D01*
X308407Y561569D01*
X309411Y561300D01*
X310395Y560965D01*
X311355Y560568D01*
X312287Y560108D01*
X313188Y559588D01*
X314052Y559011D01*
X314876Y558378D01*
X315658Y557693D01*
X316393Y556958D01*
X317078Y556176D01*
X317711Y555352D01*
X318288Y554488D01*
X318808Y553587D01*
X319268Y552655D01*
X319665Y551695D01*
X320000Y550711D01*
X320269Y549707D01*
X320471Y548687D01*
X320607Y547657D01*
X320675Y546620D01*
X320675Y545580D01*
X66675Y164580D02*
X66607Y163543D01*
X66471Y162513D01*
X66269Y161493D01*
X66000Y160489D01*
X65665Y159505D01*
X65268Y158545D01*
X64808Y157613D01*
X64288Y156712D01*
X63711Y155848D01*
X63078Y155024D01*
X62393Y154242D01*
X61658Y153507D01*
X60876Y152822D01*
X60052Y152189D01*
X59188Y151612D01*
X58287Y151092D01*
X57355Y150632D01*
X56395Y150235D01*
X55411Y149900D01*
X54407Y149631D01*
X53387Y149429D01*
X52357Y149293D01*
X51320Y149225D01*
X50280Y149225D01*
X49243Y149293D01*
X48213Y149429D01*
X47193Y149631D01*
X46189Y149900D01*
X45205Y150235D01*
X44245Y150632D01*
X43313Y151092D01*
X42412Y151612D01*
X41548Y152189D01*
X40724Y152822D01*
X39942Y153507D01*
X39207Y154242D01*
X38522Y155024D01*
X37889Y155848D01*
X37312Y156712D01*
X36792Y157613D01*
X36332Y158545D01*
X35935Y159505D01*
X35600Y160489D01*
X35331Y161493D01*
X35129Y162513D01*
X34993Y163543D01*
X34925Y164580D01*
X34925Y165620D01*
X34993Y166657D01*
X35129Y167687D01*
X35331Y168707D01*
X35600Y169711D01*
X35935Y170695D01*
X36332Y171655D01*
X36792Y172587D01*
X37312Y173488D01*
X37889Y174352D01*
X38522Y175176D01*
X39207Y175958D01*
X39942Y176693D01*
X40724Y177378D01*
X41548Y178011D01*
X42412Y178588D01*
X43313Y179108D01*
X44245Y179568D01*
X45205Y179965D01*
X46189Y180300D01*
X47193Y180569D01*
X48213Y180771D01*
X49243Y180907D01*
X50280Y180975D01*
X51320Y180975D01*
X52357Y180907D01*
X53387Y180771D01*
X54407Y180569D01*
X55411Y180300D01*
X56395Y179965D01*
X57355Y179568D01*
X58287Y179108D01*
X59188Y178588D01*
X60052Y178011D01*
X60876Y177378D01*
X61658Y176693D01*
X62393Y175958D01*
X63078Y175176D01*
X63711Y174352D01*
X64288Y173488D01*
X64808Y172587D01*
X65268Y171655D01*
X65665Y170695D01*
X66000Y169711D01*
X66269Y168707D01*
X66471Y167687D01*
X66607Y166657D01*
X66675Y165620D01*
X66675Y164580D01*
X612775Y164580D02*
X612707Y163543D01*
X612571Y162513D01*
X612369Y161493D01*
X612100Y160489D01*
X611765Y159505D01*
X611368Y158545D01*
X610908Y157613D01*
X610388Y156712D01*
X609811Y155848D01*
X609178Y155024D01*
X608493Y154242D01*
X607758Y153507D01*
X606976Y152822D01*
X606152Y152189D01*
X605288Y151612D01*
X604387Y151092D01*
X603455Y150632D01*
X602495Y150235D01*
X601511Y149900D01*
X600507Y149631D01*
X599487Y149429D01*
X598457Y149293D01*
X597420Y149225D01*
X596380Y149225D01*
X595343Y149293D01*
X594313Y149429D01*
X593293Y149631D01*
X592289Y149900D01*
X591305Y150235D01*
X590345Y150632D01*
X589413Y151092D01*
X588512Y151612D01*
X587648Y152189D01*
X586824Y152822D01*
X586042Y153507D01*
X585307Y154242D01*
X584622Y155024D01*
X583989Y155848D01*
X583412Y156712D01*
X582892Y157613D01*
X582432Y158545D01*
X582035Y159505D01*
X581700Y160489D01*
X581431Y161493D01*
X581229Y162513D01*
X581093Y163543D01*
X581025Y164580D01*
X581025Y165620D01*
X581093Y166657D01*
X581229Y167687D01*
X581431Y168707D01*
X581700Y169711D01*
X582035Y170695D01*
X582432Y171655D01*
X582892Y172587D01*
X583412Y173488D01*
X583989Y174352D01*
X584622Y175176D01*
X585307Y175958D01*
X586042Y176693D01*
X586824Y177378D01*
X587648Y178011D01*
X588512Y178588D01*
X589413Y179108D01*
X590345Y179568D01*
X591305Y179965D01*
X592289Y180300D01*
X593293Y180569D01*
X594313Y180771D01*
X595343Y180907D01*
X596380Y180975D01*
X597420Y180975D01*
X598457Y180907D01*
X599487Y180771D01*
X600507Y180569D01*
X601511Y180300D01*
X602495Y179965D01*
X603455Y179568D01*
X604387Y179108D01*
X605288Y178588D01*
X606152Y178011D01*
X606976Y177378D01*
X607758Y176693D01*
X608493Y175958D01*
X609178Y175176D01*
X609811Y174352D01*
X610388Y173488D01*
X610908Y172587D01*
X611368Y171655D01*
X611765Y170695D01*
X612100Y169711D01*
X612369Y168707D01*
X612571Y167687D01*
X612707Y166657D01*
X612775Y165620D01*
X612775Y164580D01*
M02*
