G04 EAGLE Gerber RS-274X export*
G75*
%MOMM*%
%FSLAX34Y34*%
%LPD*%
%INSolderpaste Top*%
%IPPOS*%
%AMOC8*
5,1,8,0,0,1.08239X$1,22.5*%
G01*
%ADD10R,1.448000X0.838000*%
%ADD11R,0.838000X1.448000*%
%ADD12R,2.006600X1.498600*%
%ADD13R,2.006600X3.810000*%
%ADD14R,2.540000X1.270000*%
%ADD15R,1.400000X1.000000*%
%ADD16R,0.600000X0.700000*%
%ADD17R,2.235200X1.219200*%
%ADD18R,2.200000X3.600000*%

G36*
X144491Y549232D02*
X144491Y549232D01*
X144498Y549237D01*
X144502Y549233D01*
X144884Y549324D01*
X144888Y549329D01*
X144892Y549327D01*
X145254Y549477D01*
X145257Y549482D01*
X145261Y549480D01*
X145595Y549685D01*
X145597Y549690D01*
X145601Y549690D01*
X145900Y549945D01*
X145901Y549950D01*
X145905Y549950D01*
X146160Y550249D01*
X146161Y550255D01*
X146165Y550255D01*
X146370Y550589D01*
X146369Y550595D01*
X146374Y550596D01*
X146524Y550958D01*
X146523Y550960D01*
X146524Y550960D01*
X146522Y550963D01*
X146522Y550964D01*
X146526Y550966D01*
X146617Y551348D01*
X146615Y551353D01*
X146617Y551354D01*
X146618Y551355D01*
X146649Y551746D01*
X146647Y551749D01*
X146649Y551750D01*
X146649Y557250D01*
X146647Y557252D01*
X146649Y557254D01*
X146618Y557645D01*
X146614Y557649D01*
X146617Y557652D01*
X146526Y558034D01*
X146521Y558038D01*
X146524Y558042D01*
X146374Y558404D01*
X146368Y558407D01*
X146370Y558411D01*
X146165Y558745D01*
X146160Y558747D01*
X146160Y558751D01*
X145905Y559050D01*
X145900Y559051D01*
X145900Y559055D01*
X145601Y559310D01*
X145595Y559311D01*
X145595Y559315D01*
X145261Y559520D01*
X145255Y559519D01*
X145254Y559524D01*
X144892Y559674D01*
X144886Y559672D01*
X144884Y559676D01*
X144502Y559767D01*
X144497Y559765D01*
X144495Y559768D01*
X144104Y559799D01*
X144101Y559797D01*
X144100Y559799D01*
X134909Y559768D01*
X134902Y559763D01*
X134898Y559767D01*
X134516Y559676D01*
X134512Y559671D01*
X134508Y559674D01*
X134146Y559524D01*
X134143Y559518D01*
X134139Y559520D01*
X133805Y559315D01*
X133803Y559310D01*
X133799Y559310D01*
X133500Y559055D01*
X133499Y559050D01*
X133495Y559050D01*
X133240Y558751D01*
X133239Y558745D01*
X133235Y558745D01*
X133030Y558411D01*
X133031Y558405D01*
X133027Y558404D01*
X132877Y558042D01*
X132878Y558036D01*
X132874Y558034D01*
X132783Y557652D01*
X132785Y557647D01*
X132782Y557645D01*
X132751Y557254D01*
X132753Y557251D01*
X132751Y557250D01*
X132751Y551750D01*
X132753Y551748D01*
X132751Y551746D01*
X132782Y551355D01*
X132786Y551351D01*
X132783Y551348D01*
X132874Y550966D01*
X132879Y550962D01*
X132877Y550958D01*
X133027Y550596D01*
X133032Y550593D01*
X133030Y550589D01*
X133235Y550255D01*
X133240Y550253D01*
X133240Y550249D01*
X133495Y549950D01*
X133500Y549949D01*
X133500Y549945D01*
X133799Y549690D01*
X133805Y549689D01*
X133805Y549685D01*
X134139Y549480D01*
X134145Y549481D01*
X134146Y549477D01*
X134508Y549327D01*
X134514Y549328D01*
X134516Y549324D01*
X134898Y549233D01*
X134903Y549235D01*
X134905Y549232D01*
X135296Y549201D01*
X135299Y549203D01*
X135300Y549201D01*
X144491Y549232D01*
G37*
G36*
X144491Y532432D02*
X144491Y532432D01*
X144498Y532437D01*
X144502Y532433D01*
X144884Y532524D01*
X144888Y532529D01*
X144892Y532527D01*
X145254Y532677D01*
X145257Y532682D01*
X145261Y532680D01*
X145595Y532885D01*
X145597Y532890D01*
X145601Y532890D01*
X145900Y533145D01*
X145901Y533150D01*
X145905Y533150D01*
X146160Y533449D01*
X146161Y533455D01*
X146165Y533455D01*
X146370Y533789D01*
X146369Y533795D01*
X146374Y533796D01*
X146524Y534158D01*
X146523Y534160D01*
X146524Y534160D01*
X146522Y534163D01*
X146522Y534164D01*
X146526Y534166D01*
X146617Y534548D01*
X146615Y534553D01*
X146617Y534554D01*
X146618Y534555D01*
X146649Y534946D01*
X146647Y534949D01*
X146649Y534950D01*
X146649Y540450D01*
X146647Y540452D01*
X146649Y540454D01*
X146618Y540845D01*
X146614Y540849D01*
X146617Y540852D01*
X146526Y541234D01*
X146521Y541238D01*
X146524Y541242D01*
X146374Y541604D01*
X146368Y541607D01*
X146370Y541611D01*
X146165Y541945D01*
X146160Y541947D01*
X146160Y541951D01*
X145905Y542250D01*
X145900Y542251D01*
X145900Y542255D01*
X145601Y542510D01*
X145595Y542511D01*
X145595Y542515D01*
X145261Y542720D01*
X145255Y542719D01*
X145254Y542724D01*
X144892Y542874D01*
X144886Y542872D01*
X144884Y542876D01*
X144502Y542967D01*
X144497Y542965D01*
X144495Y542968D01*
X144104Y542999D01*
X144101Y542997D01*
X144100Y542999D01*
X134909Y542968D01*
X134902Y542963D01*
X134898Y542967D01*
X134516Y542876D01*
X134512Y542871D01*
X134508Y542874D01*
X134146Y542724D01*
X134143Y542718D01*
X134139Y542720D01*
X133805Y542515D01*
X133803Y542510D01*
X133799Y542510D01*
X133500Y542255D01*
X133499Y542250D01*
X133495Y542250D01*
X133240Y541951D01*
X133239Y541945D01*
X133235Y541945D01*
X133030Y541611D01*
X133031Y541605D01*
X133027Y541604D01*
X132877Y541242D01*
X132878Y541236D01*
X132874Y541234D01*
X132783Y540852D01*
X132785Y540847D01*
X132782Y540845D01*
X132751Y540454D01*
X132753Y540451D01*
X132751Y540450D01*
X132751Y534950D01*
X132753Y534948D01*
X132751Y534946D01*
X132782Y534555D01*
X132786Y534551D01*
X132783Y534548D01*
X132874Y534166D01*
X132879Y534162D01*
X132877Y534158D01*
X133027Y533796D01*
X133032Y533793D01*
X133030Y533789D01*
X133235Y533455D01*
X133240Y533453D01*
X133240Y533449D01*
X133495Y533150D01*
X133500Y533149D01*
X133500Y533145D01*
X133799Y532890D01*
X133805Y532889D01*
X133805Y532885D01*
X134139Y532680D01*
X134145Y532681D01*
X134146Y532677D01*
X134508Y532527D01*
X134514Y532528D01*
X134516Y532524D01*
X134898Y532433D01*
X134903Y532435D01*
X134905Y532432D01*
X135296Y532401D01*
X135299Y532403D01*
X135300Y532401D01*
X144491Y532432D01*
G37*
G36*
X252452Y526453D02*
X252452Y526453D01*
X252454Y526451D01*
X252845Y526482D01*
X252849Y526486D01*
X252852Y526483D01*
X253234Y526574D01*
X253238Y526579D01*
X253242Y526577D01*
X253604Y526727D01*
X253607Y526732D01*
X253611Y526730D01*
X253945Y526935D01*
X253947Y526940D01*
X253951Y526940D01*
X254250Y527195D01*
X254251Y527200D01*
X254255Y527200D01*
X254510Y527499D01*
X254511Y527505D01*
X254515Y527505D01*
X254720Y527839D01*
X254719Y527845D01*
X254724Y527846D01*
X254874Y528208D01*
X254873Y528210D01*
X254874Y528210D01*
X254872Y528213D01*
X254872Y528214D01*
X254876Y528216D01*
X254967Y528598D01*
X254965Y528603D01*
X254967Y528604D01*
X254968Y528605D01*
X254999Y528996D01*
X254997Y528999D01*
X254999Y529000D01*
X254968Y538191D01*
X254963Y538198D01*
X254967Y538202D01*
X254876Y538584D01*
X254871Y538588D01*
X254874Y538592D01*
X254724Y538954D01*
X254718Y538957D01*
X254720Y538961D01*
X254515Y539295D01*
X254510Y539297D01*
X254510Y539301D01*
X254255Y539600D01*
X254250Y539601D01*
X254250Y539605D01*
X253951Y539860D01*
X253945Y539861D01*
X253945Y539865D01*
X253611Y540070D01*
X253605Y540069D01*
X253604Y540074D01*
X253242Y540224D01*
X253236Y540222D01*
X253234Y540226D01*
X252852Y540317D01*
X252847Y540315D01*
X252845Y540318D01*
X252454Y540349D01*
X252451Y540347D01*
X252450Y540349D01*
X246950Y540349D01*
X246948Y540347D01*
X246946Y540349D01*
X246555Y540318D01*
X246551Y540314D01*
X246548Y540317D01*
X246166Y540226D01*
X246162Y540221D01*
X246158Y540224D01*
X245796Y540074D01*
X245793Y540068D01*
X245789Y540070D01*
X245455Y539865D01*
X245453Y539860D01*
X245449Y539860D01*
X245150Y539605D01*
X245149Y539600D01*
X245145Y539600D01*
X244890Y539301D01*
X244889Y539295D01*
X244885Y539295D01*
X244680Y538961D01*
X244681Y538955D01*
X244677Y538954D01*
X244527Y538592D01*
X244528Y538586D01*
X244524Y538584D01*
X244433Y538202D01*
X244435Y538197D01*
X244432Y538195D01*
X244401Y537804D01*
X244403Y537801D01*
X244401Y537800D01*
X244432Y528609D01*
X244437Y528602D01*
X244433Y528598D01*
X244524Y528216D01*
X244529Y528212D01*
X244527Y528208D01*
X244677Y527846D01*
X244682Y527843D01*
X244680Y527839D01*
X244885Y527505D01*
X244890Y527503D01*
X244890Y527499D01*
X245145Y527200D01*
X245150Y527199D01*
X245150Y527195D01*
X245449Y526940D01*
X245455Y526939D01*
X245455Y526935D01*
X245789Y526730D01*
X245795Y526731D01*
X245796Y526727D01*
X246158Y526577D01*
X246164Y526578D01*
X246166Y526574D01*
X246548Y526483D01*
X246553Y526485D01*
X246555Y526482D01*
X246946Y526451D01*
X246949Y526453D01*
X246950Y526451D01*
X252450Y526451D01*
X252452Y526453D01*
G37*
G36*
X235652Y526453D02*
X235652Y526453D01*
X235654Y526451D01*
X236045Y526482D01*
X236049Y526486D01*
X236052Y526483D01*
X236434Y526574D01*
X236438Y526579D01*
X236442Y526577D01*
X236804Y526727D01*
X236807Y526732D01*
X236811Y526730D01*
X237145Y526935D01*
X237147Y526940D01*
X237151Y526940D01*
X237450Y527195D01*
X237451Y527200D01*
X237455Y527200D01*
X237710Y527499D01*
X237711Y527505D01*
X237715Y527505D01*
X237920Y527839D01*
X237919Y527845D01*
X237924Y527846D01*
X238074Y528208D01*
X238073Y528210D01*
X238074Y528210D01*
X238072Y528213D01*
X238072Y528214D01*
X238076Y528216D01*
X238167Y528598D01*
X238165Y528603D01*
X238167Y528604D01*
X238168Y528605D01*
X238199Y528996D01*
X238197Y528999D01*
X238199Y529000D01*
X238168Y538191D01*
X238163Y538198D01*
X238167Y538202D01*
X238076Y538584D01*
X238071Y538588D01*
X238074Y538592D01*
X237924Y538954D01*
X237918Y538957D01*
X237920Y538961D01*
X237715Y539295D01*
X237710Y539297D01*
X237710Y539301D01*
X237455Y539600D01*
X237450Y539601D01*
X237450Y539605D01*
X237151Y539860D01*
X237145Y539861D01*
X237145Y539865D01*
X236811Y540070D01*
X236805Y540069D01*
X236804Y540074D01*
X236442Y540224D01*
X236436Y540222D01*
X236434Y540226D01*
X236052Y540317D01*
X236047Y540315D01*
X236045Y540318D01*
X235654Y540349D01*
X235651Y540347D01*
X235650Y540349D01*
X230150Y540349D01*
X230148Y540347D01*
X230146Y540349D01*
X229755Y540318D01*
X229751Y540314D01*
X229748Y540317D01*
X229366Y540226D01*
X229362Y540221D01*
X229358Y540224D01*
X228996Y540074D01*
X228993Y540068D01*
X228989Y540070D01*
X228655Y539865D01*
X228653Y539860D01*
X228649Y539860D01*
X228350Y539605D01*
X228349Y539600D01*
X228345Y539600D01*
X228090Y539301D01*
X228089Y539295D01*
X228085Y539295D01*
X227880Y538961D01*
X227881Y538955D01*
X227877Y538954D01*
X227727Y538592D01*
X227728Y538586D01*
X227724Y538584D01*
X227633Y538202D01*
X227635Y538197D01*
X227632Y538195D01*
X227601Y537804D01*
X227603Y537801D01*
X227601Y537800D01*
X227632Y528609D01*
X227637Y528602D01*
X227633Y528598D01*
X227724Y528216D01*
X227729Y528212D01*
X227727Y528208D01*
X227877Y527846D01*
X227882Y527843D01*
X227880Y527839D01*
X228085Y527505D01*
X228090Y527503D01*
X228090Y527499D01*
X228345Y527200D01*
X228350Y527199D01*
X228350Y527195D01*
X228649Y526940D01*
X228655Y526939D01*
X228655Y526935D01*
X228989Y526730D01*
X228995Y526731D01*
X228996Y526727D01*
X229358Y526577D01*
X229364Y526578D01*
X229366Y526574D01*
X229748Y526483D01*
X229753Y526485D01*
X229755Y526482D01*
X230146Y526451D01*
X230149Y526453D01*
X230150Y526451D01*
X235650Y526451D01*
X235652Y526453D01*
G37*
G36*
X176252Y462953D02*
X176252Y462953D01*
X176254Y462951D01*
X176645Y462982D01*
X176649Y462986D01*
X176652Y462983D01*
X177034Y463074D01*
X177038Y463079D01*
X177042Y463077D01*
X177404Y463227D01*
X177407Y463232D01*
X177411Y463230D01*
X177745Y463435D01*
X177747Y463440D01*
X177751Y463440D01*
X178050Y463695D01*
X178051Y463700D01*
X178055Y463700D01*
X178310Y463999D01*
X178311Y464005D01*
X178315Y464005D01*
X178520Y464339D01*
X178519Y464345D01*
X178524Y464346D01*
X178674Y464708D01*
X178673Y464710D01*
X178674Y464710D01*
X178672Y464713D01*
X178672Y464714D01*
X178676Y464716D01*
X178767Y465098D01*
X178765Y465103D01*
X178767Y465104D01*
X178768Y465105D01*
X178799Y465496D01*
X178797Y465499D01*
X178799Y465500D01*
X178768Y474691D01*
X178763Y474698D01*
X178767Y474702D01*
X178676Y475084D01*
X178671Y475088D01*
X178674Y475092D01*
X178524Y475454D01*
X178518Y475457D01*
X178520Y475461D01*
X178315Y475795D01*
X178310Y475797D01*
X178310Y475801D01*
X178055Y476100D01*
X178050Y476101D01*
X178050Y476105D01*
X177751Y476360D01*
X177745Y476361D01*
X177745Y476365D01*
X177411Y476570D01*
X177405Y476569D01*
X177404Y476574D01*
X177042Y476724D01*
X177036Y476722D01*
X177034Y476726D01*
X176652Y476817D01*
X176647Y476815D01*
X176645Y476818D01*
X176254Y476849D01*
X176251Y476847D01*
X176250Y476849D01*
X170750Y476849D01*
X170748Y476847D01*
X170746Y476849D01*
X170355Y476818D01*
X170351Y476814D01*
X170348Y476817D01*
X169966Y476726D01*
X169962Y476721D01*
X169958Y476724D01*
X169596Y476574D01*
X169593Y476568D01*
X169589Y476570D01*
X169255Y476365D01*
X169253Y476360D01*
X169249Y476360D01*
X168950Y476105D01*
X168949Y476100D01*
X168945Y476100D01*
X168690Y475801D01*
X168689Y475795D01*
X168685Y475795D01*
X168480Y475461D01*
X168481Y475455D01*
X168477Y475454D01*
X168327Y475092D01*
X168328Y475086D01*
X168324Y475084D01*
X168233Y474702D01*
X168235Y474697D01*
X168232Y474695D01*
X168201Y474304D01*
X168203Y474301D01*
X168201Y474300D01*
X168232Y465109D01*
X168237Y465102D01*
X168233Y465098D01*
X168324Y464716D01*
X168329Y464712D01*
X168327Y464708D01*
X168477Y464346D01*
X168482Y464343D01*
X168480Y464339D01*
X168685Y464005D01*
X168690Y464003D01*
X168690Y463999D01*
X168945Y463700D01*
X168950Y463699D01*
X168950Y463695D01*
X169249Y463440D01*
X169255Y463439D01*
X169255Y463435D01*
X169589Y463230D01*
X169595Y463231D01*
X169596Y463227D01*
X169958Y463077D01*
X169964Y463078D01*
X169966Y463074D01*
X170348Y462983D01*
X170353Y462985D01*
X170355Y462982D01*
X170746Y462951D01*
X170749Y462953D01*
X170750Y462951D01*
X176250Y462951D01*
X176252Y462953D01*
G37*
G36*
X159452Y462953D02*
X159452Y462953D01*
X159454Y462951D01*
X159845Y462982D01*
X159849Y462986D01*
X159852Y462983D01*
X160234Y463074D01*
X160238Y463079D01*
X160242Y463077D01*
X160604Y463227D01*
X160607Y463232D01*
X160611Y463230D01*
X160945Y463435D01*
X160947Y463440D01*
X160951Y463440D01*
X161250Y463695D01*
X161251Y463700D01*
X161255Y463700D01*
X161510Y463999D01*
X161511Y464005D01*
X161515Y464005D01*
X161720Y464339D01*
X161719Y464345D01*
X161724Y464346D01*
X161874Y464708D01*
X161873Y464710D01*
X161874Y464710D01*
X161872Y464713D01*
X161872Y464714D01*
X161876Y464716D01*
X161967Y465098D01*
X161965Y465103D01*
X161967Y465104D01*
X161968Y465105D01*
X161999Y465496D01*
X161997Y465499D01*
X161999Y465500D01*
X161968Y474691D01*
X161963Y474698D01*
X161967Y474702D01*
X161876Y475084D01*
X161871Y475088D01*
X161874Y475092D01*
X161724Y475454D01*
X161718Y475457D01*
X161720Y475461D01*
X161515Y475795D01*
X161510Y475797D01*
X161510Y475801D01*
X161255Y476100D01*
X161250Y476101D01*
X161250Y476105D01*
X160951Y476360D01*
X160945Y476361D01*
X160945Y476365D01*
X160611Y476570D01*
X160605Y476569D01*
X160604Y476574D01*
X160242Y476724D01*
X160236Y476722D01*
X160234Y476726D01*
X159852Y476817D01*
X159847Y476815D01*
X159845Y476818D01*
X159454Y476849D01*
X159451Y476847D01*
X159450Y476849D01*
X153950Y476849D01*
X153948Y476847D01*
X153946Y476849D01*
X153555Y476818D01*
X153551Y476814D01*
X153548Y476817D01*
X153166Y476726D01*
X153162Y476721D01*
X153158Y476724D01*
X152796Y476574D01*
X152793Y476568D01*
X152789Y476570D01*
X152455Y476365D01*
X152453Y476360D01*
X152449Y476360D01*
X152150Y476105D01*
X152149Y476100D01*
X152145Y476100D01*
X151890Y475801D01*
X151889Y475795D01*
X151885Y475795D01*
X151680Y475461D01*
X151681Y475455D01*
X151677Y475454D01*
X151527Y475092D01*
X151528Y475086D01*
X151524Y475084D01*
X151433Y474702D01*
X151435Y474697D01*
X151432Y474695D01*
X151401Y474304D01*
X151403Y474301D01*
X151401Y474300D01*
X151432Y465109D01*
X151437Y465102D01*
X151433Y465098D01*
X151524Y464716D01*
X151529Y464712D01*
X151527Y464708D01*
X151677Y464346D01*
X151682Y464343D01*
X151680Y464339D01*
X151885Y464005D01*
X151890Y464003D01*
X151890Y463999D01*
X152145Y463700D01*
X152150Y463699D01*
X152150Y463695D01*
X152449Y463440D01*
X152455Y463439D01*
X152455Y463435D01*
X152789Y463230D01*
X152795Y463231D01*
X152796Y463227D01*
X153158Y463077D01*
X153164Y463078D01*
X153166Y463074D01*
X153548Y462983D01*
X153553Y462985D01*
X153555Y462982D01*
X153946Y462951D01*
X153949Y462953D01*
X153950Y462951D01*
X159450Y462951D01*
X159452Y462953D01*
G37*
G36*
X30191Y460332D02*
X30191Y460332D01*
X30198Y460337D01*
X30202Y460333D01*
X30584Y460424D01*
X30588Y460429D01*
X30592Y460427D01*
X30954Y460577D01*
X30957Y460582D01*
X30961Y460580D01*
X31295Y460785D01*
X31297Y460790D01*
X31301Y460790D01*
X31600Y461045D01*
X31601Y461050D01*
X31605Y461050D01*
X31860Y461349D01*
X31861Y461355D01*
X31865Y461355D01*
X32070Y461689D01*
X32069Y461695D01*
X32074Y461696D01*
X32224Y462058D01*
X32223Y462060D01*
X32224Y462060D01*
X32222Y462063D01*
X32222Y462064D01*
X32226Y462066D01*
X32317Y462448D01*
X32315Y462453D01*
X32317Y462454D01*
X32318Y462455D01*
X32349Y462846D01*
X32347Y462849D01*
X32349Y462850D01*
X32349Y468350D01*
X32347Y468352D01*
X32349Y468354D01*
X32318Y468745D01*
X32314Y468749D01*
X32317Y468752D01*
X32226Y469134D01*
X32221Y469138D01*
X32224Y469142D01*
X32074Y469504D01*
X32068Y469507D01*
X32070Y469511D01*
X31865Y469845D01*
X31860Y469847D01*
X31860Y469851D01*
X31605Y470150D01*
X31600Y470151D01*
X31600Y470155D01*
X31301Y470410D01*
X31295Y470411D01*
X31295Y470415D01*
X30961Y470620D01*
X30955Y470619D01*
X30954Y470624D01*
X30592Y470774D01*
X30586Y470772D01*
X30584Y470776D01*
X30202Y470867D01*
X30197Y470865D01*
X30195Y470868D01*
X29804Y470899D01*
X29801Y470897D01*
X29800Y470899D01*
X20609Y470868D01*
X20602Y470863D01*
X20598Y470867D01*
X20216Y470776D01*
X20212Y470771D01*
X20208Y470774D01*
X19846Y470624D01*
X19843Y470618D01*
X19839Y470620D01*
X19505Y470415D01*
X19503Y470410D01*
X19499Y470410D01*
X19200Y470155D01*
X19199Y470150D01*
X19195Y470150D01*
X18940Y469851D01*
X18939Y469845D01*
X18935Y469845D01*
X18730Y469511D01*
X18731Y469505D01*
X18727Y469504D01*
X18577Y469142D01*
X18578Y469136D01*
X18574Y469134D01*
X18483Y468752D01*
X18485Y468747D01*
X18482Y468745D01*
X18451Y468354D01*
X18453Y468351D01*
X18451Y468350D01*
X18451Y462850D01*
X18453Y462848D01*
X18451Y462846D01*
X18482Y462455D01*
X18486Y462451D01*
X18483Y462448D01*
X18574Y462066D01*
X18579Y462062D01*
X18577Y462058D01*
X18727Y461696D01*
X18732Y461693D01*
X18730Y461689D01*
X18935Y461355D01*
X18940Y461353D01*
X18940Y461349D01*
X19195Y461050D01*
X19200Y461049D01*
X19200Y461045D01*
X19499Y460790D01*
X19505Y460789D01*
X19505Y460785D01*
X19839Y460580D01*
X19845Y460581D01*
X19846Y460577D01*
X20208Y460427D01*
X20214Y460428D01*
X20216Y460424D01*
X20598Y460333D01*
X20603Y460335D01*
X20605Y460332D01*
X20996Y460301D01*
X20999Y460303D01*
X21000Y460301D01*
X30191Y460332D01*
G37*
G36*
X30191Y443532D02*
X30191Y443532D01*
X30198Y443537D01*
X30202Y443533D01*
X30584Y443624D01*
X30588Y443629D01*
X30592Y443627D01*
X30954Y443777D01*
X30957Y443782D01*
X30961Y443780D01*
X31295Y443985D01*
X31297Y443990D01*
X31301Y443990D01*
X31600Y444245D01*
X31601Y444250D01*
X31605Y444250D01*
X31860Y444549D01*
X31861Y444555D01*
X31865Y444555D01*
X32070Y444889D01*
X32069Y444895D01*
X32074Y444896D01*
X32224Y445258D01*
X32223Y445260D01*
X32224Y445260D01*
X32222Y445263D01*
X32222Y445264D01*
X32226Y445266D01*
X32317Y445648D01*
X32315Y445653D01*
X32317Y445654D01*
X32318Y445655D01*
X32349Y446046D01*
X32347Y446049D01*
X32349Y446050D01*
X32349Y451550D01*
X32347Y451552D01*
X32349Y451554D01*
X32318Y451945D01*
X32314Y451949D01*
X32317Y451952D01*
X32226Y452334D01*
X32221Y452338D01*
X32224Y452342D01*
X32074Y452704D01*
X32068Y452707D01*
X32070Y452711D01*
X31865Y453045D01*
X31860Y453047D01*
X31860Y453051D01*
X31605Y453350D01*
X31600Y453351D01*
X31600Y453355D01*
X31301Y453610D01*
X31295Y453611D01*
X31295Y453615D01*
X30961Y453820D01*
X30955Y453819D01*
X30954Y453824D01*
X30592Y453974D01*
X30586Y453972D01*
X30584Y453976D01*
X30202Y454067D01*
X30197Y454065D01*
X30195Y454068D01*
X29804Y454099D01*
X29801Y454097D01*
X29800Y454099D01*
X20609Y454068D01*
X20602Y454063D01*
X20598Y454067D01*
X20216Y453976D01*
X20212Y453971D01*
X20208Y453974D01*
X19846Y453824D01*
X19843Y453818D01*
X19839Y453820D01*
X19505Y453615D01*
X19503Y453610D01*
X19499Y453610D01*
X19200Y453355D01*
X19199Y453350D01*
X19195Y453350D01*
X18940Y453051D01*
X18939Y453045D01*
X18935Y453045D01*
X18730Y452711D01*
X18731Y452705D01*
X18727Y452704D01*
X18577Y452342D01*
X18578Y452336D01*
X18574Y452334D01*
X18483Y451952D01*
X18485Y451947D01*
X18482Y451945D01*
X18451Y451554D01*
X18453Y451551D01*
X18451Y451550D01*
X18451Y446050D01*
X18453Y446048D01*
X18451Y446046D01*
X18482Y445655D01*
X18486Y445651D01*
X18483Y445648D01*
X18574Y445266D01*
X18579Y445262D01*
X18577Y445258D01*
X18727Y444896D01*
X18732Y444893D01*
X18730Y444889D01*
X18935Y444555D01*
X18940Y444553D01*
X18940Y444549D01*
X19195Y444250D01*
X19200Y444249D01*
X19200Y444245D01*
X19499Y443990D01*
X19505Y443989D01*
X19505Y443985D01*
X19839Y443780D01*
X19845Y443781D01*
X19846Y443777D01*
X20208Y443627D01*
X20214Y443628D01*
X20216Y443624D01*
X20598Y443533D01*
X20603Y443535D01*
X20605Y443532D01*
X20996Y443501D01*
X20999Y443503D01*
X21000Y443501D01*
X30191Y443532D01*
G37*
G36*
X144502Y170853D02*
X144502Y170853D01*
X144504Y170851D01*
X144895Y170882D01*
X144899Y170886D01*
X144902Y170883D01*
X145284Y170974D01*
X145288Y170979D01*
X145292Y170977D01*
X145654Y171127D01*
X145657Y171132D01*
X145661Y171130D01*
X145995Y171335D01*
X145997Y171340D01*
X146001Y171340D01*
X146300Y171595D01*
X146301Y171600D01*
X146305Y171600D01*
X146560Y171899D01*
X146561Y171905D01*
X146565Y171905D01*
X146770Y172239D01*
X146769Y172245D01*
X146774Y172246D01*
X146924Y172608D01*
X146923Y172610D01*
X146924Y172610D01*
X146922Y172613D01*
X146922Y172614D01*
X146926Y172616D01*
X147017Y172998D01*
X147015Y173003D01*
X147017Y173004D01*
X147018Y173005D01*
X147049Y173396D01*
X147047Y173399D01*
X147049Y173400D01*
X147018Y182591D01*
X147013Y182598D01*
X147017Y182602D01*
X146926Y182984D01*
X146921Y182988D01*
X146924Y182992D01*
X146774Y183354D01*
X146768Y183357D01*
X146770Y183361D01*
X146565Y183695D01*
X146560Y183697D01*
X146560Y183701D01*
X146305Y184000D01*
X146300Y184001D01*
X146300Y184005D01*
X146001Y184260D01*
X145995Y184261D01*
X145995Y184265D01*
X145661Y184470D01*
X145655Y184469D01*
X145654Y184474D01*
X145292Y184624D01*
X145286Y184622D01*
X145284Y184626D01*
X144902Y184717D01*
X144897Y184715D01*
X144895Y184718D01*
X144504Y184749D01*
X144501Y184747D01*
X144500Y184749D01*
X139000Y184749D01*
X138998Y184747D01*
X138996Y184749D01*
X138605Y184718D01*
X138601Y184714D01*
X138598Y184717D01*
X138216Y184626D01*
X138212Y184621D01*
X138208Y184624D01*
X137846Y184474D01*
X137843Y184468D01*
X137839Y184470D01*
X137505Y184265D01*
X137503Y184260D01*
X137499Y184260D01*
X137200Y184005D01*
X137199Y184000D01*
X137195Y184000D01*
X136940Y183701D01*
X136939Y183695D01*
X136935Y183695D01*
X136730Y183361D01*
X136731Y183355D01*
X136727Y183354D01*
X136577Y182992D01*
X136578Y182986D01*
X136574Y182984D01*
X136483Y182602D01*
X136485Y182597D01*
X136482Y182595D01*
X136451Y182204D01*
X136453Y182201D01*
X136451Y182200D01*
X136482Y173009D01*
X136487Y173002D01*
X136483Y172998D01*
X136574Y172616D01*
X136579Y172612D01*
X136577Y172608D01*
X136727Y172246D01*
X136732Y172243D01*
X136730Y172239D01*
X136935Y171905D01*
X136940Y171903D01*
X136940Y171899D01*
X137195Y171600D01*
X137200Y171599D01*
X137200Y171595D01*
X137499Y171340D01*
X137505Y171339D01*
X137505Y171335D01*
X137839Y171130D01*
X137845Y171131D01*
X137846Y171127D01*
X138208Y170977D01*
X138214Y170978D01*
X138216Y170974D01*
X138598Y170883D01*
X138603Y170885D01*
X138605Y170882D01*
X138996Y170851D01*
X138999Y170853D01*
X139000Y170851D01*
X144500Y170851D01*
X144502Y170853D01*
G37*
G36*
X362652Y208953D02*
X362652Y208953D01*
X362654Y208951D01*
X363045Y208982D01*
X363049Y208986D01*
X363052Y208983D01*
X363434Y209074D01*
X363438Y209079D01*
X363442Y209077D01*
X363804Y209227D01*
X363807Y209232D01*
X363811Y209230D01*
X364145Y209435D01*
X364147Y209440D01*
X364151Y209440D01*
X364450Y209695D01*
X364451Y209700D01*
X364455Y209700D01*
X364710Y209999D01*
X364711Y210005D01*
X364715Y210005D01*
X364920Y210339D01*
X364919Y210345D01*
X364924Y210346D01*
X365074Y210708D01*
X365073Y210710D01*
X365074Y210710D01*
X365072Y210713D01*
X365072Y210714D01*
X365076Y210716D01*
X365167Y211098D01*
X365165Y211103D01*
X365167Y211104D01*
X365168Y211105D01*
X365199Y211496D01*
X365197Y211499D01*
X365199Y211500D01*
X365168Y220691D01*
X365163Y220698D01*
X365167Y220702D01*
X365076Y221084D01*
X365071Y221088D01*
X365074Y221092D01*
X364924Y221454D01*
X364918Y221457D01*
X364920Y221461D01*
X364715Y221795D01*
X364710Y221797D01*
X364710Y221801D01*
X364455Y222100D01*
X364450Y222101D01*
X364450Y222105D01*
X364151Y222360D01*
X364145Y222361D01*
X364145Y222365D01*
X363811Y222570D01*
X363805Y222569D01*
X363804Y222574D01*
X363442Y222724D01*
X363436Y222722D01*
X363434Y222726D01*
X363052Y222817D01*
X363047Y222815D01*
X363045Y222818D01*
X362654Y222849D01*
X362651Y222847D01*
X362650Y222849D01*
X357150Y222849D01*
X357148Y222847D01*
X357146Y222849D01*
X356755Y222818D01*
X356751Y222814D01*
X356748Y222817D01*
X356366Y222726D01*
X356362Y222721D01*
X356358Y222724D01*
X355996Y222574D01*
X355993Y222568D01*
X355989Y222570D01*
X355655Y222365D01*
X355653Y222360D01*
X355649Y222360D01*
X355350Y222105D01*
X355349Y222100D01*
X355345Y222100D01*
X355090Y221801D01*
X355089Y221795D01*
X355085Y221795D01*
X354880Y221461D01*
X354881Y221455D01*
X354877Y221454D01*
X354727Y221092D01*
X354728Y221086D01*
X354724Y221084D01*
X354633Y220702D01*
X354635Y220697D01*
X354632Y220695D01*
X354601Y220304D01*
X354603Y220301D01*
X354601Y220300D01*
X354632Y211109D01*
X354637Y211102D01*
X354633Y211098D01*
X354724Y210716D01*
X354729Y210712D01*
X354727Y210708D01*
X354877Y210346D01*
X354882Y210343D01*
X354880Y210339D01*
X355085Y210005D01*
X355090Y210003D01*
X355090Y209999D01*
X355345Y209700D01*
X355350Y209699D01*
X355350Y209695D01*
X355649Y209440D01*
X355655Y209439D01*
X355655Y209435D01*
X355989Y209230D01*
X355995Y209231D01*
X355996Y209227D01*
X356358Y209077D01*
X356364Y209078D01*
X356366Y209074D01*
X356748Y208983D01*
X356753Y208985D01*
X356755Y208982D01*
X357146Y208951D01*
X357149Y208953D01*
X357150Y208951D01*
X362650Y208951D01*
X362652Y208953D01*
G37*
G36*
X265152Y208953D02*
X265152Y208953D01*
X265154Y208951D01*
X265545Y208982D01*
X265549Y208986D01*
X265552Y208983D01*
X265934Y209074D01*
X265938Y209079D01*
X265942Y209077D01*
X266304Y209227D01*
X266307Y209232D01*
X266311Y209230D01*
X266645Y209435D01*
X266647Y209440D01*
X266651Y209440D01*
X266950Y209695D01*
X266951Y209700D01*
X266955Y209700D01*
X267210Y209999D01*
X267211Y210005D01*
X267215Y210005D01*
X267420Y210339D01*
X267419Y210345D01*
X267424Y210346D01*
X267574Y210708D01*
X267573Y210710D01*
X267574Y210710D01*
X267572Y210713D01*
X267572Y210714D01*
X267576Y210716D01*
X267667Y211098D01*
X267665Y211103D01*
X267667Y211104D01*
X267668Y211105D01*
X267699Y211496D01*
X267697Y211499D01*
X267699Y211500D01*
X267668Y220691D01*
X267663Y220698D01*
X267667Y220702D01*
X267576Y221084D01*
X267571Y221088D01*
X267574Y221092D01*
X267424Y221454D01*
X267418Y221457D01*
X267420Y221461D01*
X267215Y221795D01*
X267210Y221797D01*
X267210Y221801D01*
X266955Y222100D01*
X266950Y222101D01*
X266950Y222105D01*
X266651Y222360D01*
X266645Y222361D01*
X266645Y222365D01*
X266311Y222570D01*
X266305Y222569D01*
X266304Y222574D01*
X265942Y222724D01*
X265936Y222722D01*
X265934Y222726D01*
X265552Y222817D01*
X265547Y222815D01*
X265545Y222818D01*
X265154Y222849D01*
X265151Y222847D01*
X265150Y222849D01*
X259650Y222849D01*
X259648Y222847D01*
X259646Y222849D01*
X259255Y222818D01*
X259251Y222814D01*
X259248Y222817D01*
X258866Y222726D01*
X258862Y222721D01*
X258858Y222724D01*
X258496Y222574D01*
X258493Y222568D01*
X258489Y222570D01*
X258155Y222365D01*
X258153Y222360D01*
X258149Y222360D01*
X257850Y222105D01*
X257849Y222100D01*
X257845Y222100D01*
X257590Y221801D01*
X257589Y221795D01*
X257585Y221795D01*
X257380Y221461D01*
X257381Y221455D01*
X257377Y221454D01*
X257227Y221092D01*
X257228Y221086D01*
X257224Y221084D01*
X257133Y220702D01*
X257135Y220697D01*
X257132Y220695D01*
X257101Y220304D01*
X257103Y220301D01*
X257101Y220300D01*
X257132Y211109D01*
X257137Y211102D01*
X257133Y211098D01*
X257224Y210716D01*
X257229Y210712D01*
X257227Y210708D01*
X257377Y210346D01*
X257382Y210343D01*
X257380Y210339D01*
X257585Y210005D01*
X257590Y210003D01*
X257590Y209999D01*
X257845Y209700D01*
X257850Y209699D01*
X257850Y209695D01*
X258149Y209440D01*
X258155Y209439D01*
X258155Y209435D01*
X258489Y209230D01*
X258495Y209231D01*
X258496Y209227D01*
X258858Y209077D01*
X258864Y209078D01*
X258866Y209074D01*
X259248Y208983D01*
X259253Y208985D01*
X259255Y208982D01*
X259646Y208951D01*
X259649Y208953D01*
X259650Y208951D01*
X265150Y208951D01*
X265152Y208953D01*
G37*
G36*
X379452Y208953D02*
X379452Y208953D01*
X379454Y208951D01*
X379845Y208982D01*
X379849Y208986D01*
X379852Y208983D01*
X380234Y209074D01*
X380238Y209079D01*
X380242Y209077D01*
X380604Y209227D01*
X380607Y209232D01*
X380611Y209230D01*
X380945Y209435D01*
X380947Y209440D01*
X380951Y209440D01*
X381250Y209695D01*
X381251Y209700D01*
X381255Y209700D01*
X381510Y209999D01*
X381511Y210005D01*
X381515Y210005D01*
X381720Y210339D01*
X381719Y210345D01*
X381724Y210346D01*
X381874Y210708D01*
X381873Y210710D01*
X381874Y210710D01*
X381872Y210713D01*
X381872Y210714D01*
X381876Y210716D01*
X381967Y211098D01*
X381965Y211103D01*
X381967Y211104D01*
X381968Y211105D01*
X381999Y211496D01*
X381997Y211499D01*
X381999Y211500D01*
X381968Y220691D01*
X381963Y220698D01*
X381967Y220702D01*
X381876Y221084D01*
X381871Y221088D01*
X381874Y221092D01*
X381724Y221454D01*
X381718Y221457D01*
X381720Y221461D01*
X381515Y221795D01*
X381510Y221797D01*
X381510Y221801D01*
X381255Y222100D01*
X381250Y222101D01*
X381250Y222105D01*
X380951Y222360D01*
X380945Y222361D01*
X380945Y222365D01*
X380611Y222570D01*
X380605Y222569D01*
X380604Y222574D01*
X380242Y222724D01*
X380236Y222722D01*
X380234Y222726D01*
X379852Y222817D01*
X379847Y222815D01*
X379845Y222818D01*
X379454Y222849D01*
X379451Y222847D01*
X379450Y222849D01*
X373950Y222849D01*
X373948Y222847D01*
X373946Y222849D01*
X373555Y222818D01*
X373551Y222814D01*
X373548Y222817D01*
X373166Y222726D01*
X373162Y222721D01*
X373158Y222724D01*
X372796Y222574D01*
X372793Y222568D01*
X372789Y222570D01*
X372455Y222365D01*
X372453Y222360D01*
X372449Y222360D01*
X372150Y222105D01*
X372149Y222100D01*
X372145Y222100D01*
X371890Y221801D01*
X371889Y221795D01*
X371885Y221795D01*
X371680Y221461D01*
X371681Y221455D01*
X371677Y221454D01*
X371527Y221092D01*
X371528Y221086D01*
X371524Y221084D01*
X371433Y220702D01*
X371435Y220697D01*
X371432Y220695D01*
X371401Y220304D01*
X371403Y220301D01*
X371401Y220300D01*
X371432Y211109D01*
X371437Y211102D01*
X371433Y211098D01*
X371524Y210716D01*
X371529Y210712D01*
X371527Y210708D01*
X371677Y210346D01*
X371682Y210343D01*
X371680Y210339D01*
X371885Y210005D01*
X371890Y210003D01*
X371890Y209999D01*
X372145Y209700D01*
X372150Y209699D01*
X372150Y209695D01*
X372449Y209440D01*
X372455Y209439D01*
X372455Y209435D01*
X372789Y209230D01*
X372795Y209231D01*
X372796Y209227D01*
X373158Y209077D01*
X373164Y209078D01*
X373166Y209074D01*
X373548Y208983D01*
X373553Y208985D01*
X373555Y208982D01*
X373946Y208951D01*
X373949Y208953D01*
X373950Y208951D01*
X379450Y208951D01*
X379452Y208953D01*
G37*
G36*
X127702Y285153D02*
X127702Y285153D01*
X127704Y285151D01*
X128095Y285182D01*
X128099Y285186D01*
X128102Y285183D01*
X128484Y285274D01*
X128488Y285279D01*
X128492Y285277D01*
X128854Y285427D01*
X128857Y285432D01*
X128861Y285430D01*
X129195Y285635D01*
X129197Y285640D01*
X129201Y285640D01*
X129500Y285895D01*
X129501Y285900D01*
X129505Y285900D01*
X129760Y286199D01*
X129761Y286205D01*
X129765Y286205D01*
X129970Y286539D01*
X129969Y286545D01*
X129974Y286546D01*
X130124Y286908D01*
X130123Y286910D01*
X130124Y286910D01*
X130122Y286913D01*
X130122Y286914D01*
X130126Y286916D01*
X130217Y287298D01*
X130215Y287303D01*
X130217Y287304D01*
X130218Y287305D01*
X130249Y287696D01*
X130247Y287699D01*
X130249Y287700D01*
X130218Y296891D01*
X130213Y296898D01*
X130217Y296902D01*
X130126Y297284D01*
X130121Y297288D01*
X130124Y297292D01*
X129974Y297654D01*
X129968Y297657D01*
X129970Y297661D01*
X129765Y297995D01*
X129760Y297997D01*
X129760Y298001D01*
X129505Y298300D01*
X129500Y298301D01*
X129500Y298305D01*
X129201Y298560D01*
X129195Y298561D01*
X129195Y298565D01*
X128861Y298770D01*
X128855Y298769D01*
X128854Y298774D01*
X128492Y298924D01*
X128486Y298922D01*
X128484Y298926D01*
X128102Y299017D01*
X128097Y299015D01*
X128095Y299018D01*
X127704Y299049D01*
X127701Y299047D01*
X127700Y299049D01*
X122200Y299049D01*
X122198Y299047D01*
X122196Y299049D01*
X121805Y299018D01*
X121801Y299014D01*
X121798Y299017D01*
X121416Y298926D01*
X121412Y298921D01*
X121408Y298924D01*
X121046Y298774D01*
X121043Y298768D01*
X121039Y298770D01*
X120705Y298565D01*
X120703Y298560D01*
X120699Y298560D01*
X120400Y298305D01*
X120399Y298300D01*
X120395Y298300D01*
X120140Y298001D01*
X120139Y297995D01*
X120135Y297995D01*
X119930Y297661D01*
X119931Y297655D01*
X119927Y297654D01*
X119777Y297292D01*
X119778Y297286D01*
X119774Y297284D01*
X119683Y296902D01*
X119685Y296897D01*
X119682Y296895D01*
X119651Y296504D01*
X119653Y296501D01*
X119651Y296500D01*
X119682Y287309D01*
X119687Y287302D01*
X119683Y287298D01*
X119774Y286916D01*
X119779Y286912D01*
X119777Y286908D01*
X119927Y286546D01*
X119932Y286543D01*
X119930Y286539D01*
X120135Y286205D01*
X120140Y286203D01*
X120140Y286199D01*
X120395Y285900D01*
X120400Y285899D01*
X120400Y285895D01*
X120699Y285640D01*
X120705Y285639D01*
X120705Y285635D01*
X121039Y285430D01*
X121045Y285431D01*
X121046Y285427D01*
X121408Y285277D01*
X121414Y285278D01*
X121416Y285274D01*
X121798Y285183D01*
X121803Y285185D01*
X121805Y285182D01*
X122196Y285151D01*
X122199Y285153D01*
X122200Y285151D01*
X127700Y285151D01*
X127702Y285153D01*
G37*
G36*
X144502Y285153D02*
X144502Y285153D01*
X144504Y285151D01*
X144895Y285182D01*
X144899Y285186D01*
X144902Y285183D01*
X145284Y285274D01*
X145288Y285279D01*
X145292Y285277D01*
X145654Y285427D01*
X145657Y285432D01*
X145661Y285430D01*
X145995Y285635D01*
X145997Y285640D01*
X146001Y285640D01*
X146300Y285895D01*
X146301Y285900D01*
X146305Y285900D01*
X146560Y286199D01*
X146561Y286205D01*
X146565Y286205D01*
X146770Y286539D01*
X146769Y286545D01*
X146774Y286546D01*
X146924Y286908D01*
X146923Y286910D01*
X146924Y286910D01*
X146922Y286913D01*
X146922Y286914D01*
X146926Y286916D01*
X147017Y287298D01*
X147015Y287303D01*
X147017Y287304D01*
X147018Y287305D01*
X147049Y287696D01*
X147047Y287699D01*
X147049Y287700D01*
X147018Y296891D01*
X147013Y296898D01*
X147017Y296902D01*
X146926Y297284D01*
X146921Y297288D01*
X146924Y297292D01*
X146774Y297654D01*
X146768Y297657D01*
X146770Y297661D01*
X146565Y297995D01*
X146560Y297997D01*
X146560Y298001D01*
X146305Y298300D01*
X146300Y298301D01*
X146300Y298305D01*
X146001Y298560D01*
X145995Y298561D01*
X145995Y298565D01*
X145661Y298770D01*
X145655Y298769D01*
X145654Y298774D01*
X145292Y298924D01*
X145286Y298922D01*
X145284Y298926D01*
X144902Y299017D01*
X144897Y299015D01*
X144895Y299018D01*
X144504Y299049D01*
X144501Y299047D01*
X144500Y299049D01*
X139000Y299049D01*
X138998Y299047D01*
X138996Y299049D01*
X138605Y299018D01*
X138601Y299014D01*
X138598Y299017D01*
X138216Y298926D01*
X138212Y298921D01*
X138208Y298924D01*
X137846Y298774D01*
X137843Y298768D01*
X137839Y298770D01*
X137505Y298565D01*
X137503Y298560D01*
X137499Y298560D01*
X137200Y298305D01*
X137199Y298300D01*
X137195Y298300D01*
X136940Y298001D01*
X136939Y297995D01*
X136935Y297995D01*
X136730Y297661D01*
X136731Y297655D01*
X136727Y297654D01*
X136577Y297292D01*
X136578Y297286D01*
X136574Y297284D01*
X136483Y296902D01*
X136485Y296897D01*
X136482Y296895D01*
X136451Y296504D01*
X136453Y296501D01*
X136451Y296500D01*
X136482Y287309D01*
X136487Y287302D01*
X136483Y287298D01*
X136574Y286916D01*
X136579Y286912D01*
X136577Y286908D01*
X136727Y286546D01*
X136732Y286543D01*
X136730Y286539D01*
X136935Y286205D01*
X136940Y286203D01*
X136940Y286199D01*
X137195Y285900D01*
X137200Y285899D01*
X137200Y285895D01*
X137499Y285640D01*
X137505Y285639D01*
X137505Y285635D01*
X137839Y285430D01*
X137845Y285431D01*
X137846Y285427D01*
X138208Y285277D01*
X138214Y285278D01*
X138216Y285274D01*
X138598Y285183D01*
X138603Y285185D01*
X138605Y285182D01*
X138996Y285151D01*
X138999Y285153D01*
X139000Y285151D01*
X144500Y285151D01*
X144502Y285153D01*
G37*
G36*
X248352Y208953D02*
X248352Y208953D01*
X248354Y208951D01*
X248745Y208982D01*
X248749Y208986D01*
X248752Y208983D01*
X249134Y209074D01*
X249138Y209079D01*
X249142Y209077D01*
X249504Y209227D01*
X249507Y209232D01*
X249511Y209230D01*
X249845Y209435D01*
X249847Y209440D01*
X249851Y209440D01*
X250150Y209695D01*
X250151Y209700D01*
X250155Y209700D01*
X250410Y209999D01*
X250411Y210005D01*
X250415Y210005D01*
X250620Y210339D01*
X250619Y210345D01*
X250624Y210346D01*
X250774Y210708D01*
X250773Y210710D01*
X250774Y210710D01*
X250772Y210713D01*
X250772Y210714D01*
X250776Y210716D01*
X250867Y211098D01*
X250865Y211103D01*
X250867Y211104D01*
X250868Y211105D01*
X250899Y211496D01*
X250897Y211499D01*
X250899Y211500D01*
X250868Y220691D01*
X250863Y220698D01*
X250867Y220702D01*
X250776Y221084D01*
X250771Y221088D01*
X250774Y221092D01*
X250624Y221454D01*
X250618Y221457D01*
X250620Y221461D01*
X250415Y221795D01*
X250410Y221797D01*
X250410Y221801D01*
X250155Y222100D01*
X250150Y222101D01*
X250150Y222105D01*
X249851Y222360D01*
X249845Y222361D01*
X249845Y222365D01*
X249511Y222570D01*
X249505Y222569D01*
X249504Y222574D01*
X249142Y222724D01*
X249136Y222722D01*
X249134Y222726D01*
X248752Y222817D01*
X248747Y222815D01*
X248745Y222818D01*
X248354Y222849D01*
X248351Y222847D01*
X248350Y222849D01*
X242850Y222849D01*
X242848Y222847D01*
X242846Y222849D01*
X242455Y222818D01*
X242451Y222814D01*
X242448Y222817D01*
X242066Y222726D01*
X242062Y222721D01*
X242058Y222724D01*
X241696Y222574D01*
X241693Y222568D01*
X241689Y222570D01*
X241355Y222365D01*
X241353Y222360D01*
X241349Y222360D01*
X241050Y222105D01*
X241049Y222100D01*
X241045Y222100D01*
X240790Y221801D01*
X240789Y221795D01*
X240785Y221795D01*
X240580Y221461D01*
X240581Y221455D01*
X240577Y221454D01*
X240427Y221092D01*
X240428Y221086D01*
X240424Y221084D01*
X240333Y220702D01*
X240335Y220697D01*
X240332Y220695D01*
X240301Y220304D01*
X240303Y220301D01*
X240301Y220300D01*
X240332Y211109D01*
X240337Y211102D01*
X240333Y211098D01*
X240424Y210716D01*
X240429Y210712D01*
X240427Y210708D01*
X240577Y210346D01*
X240582Y210343D01*
X240580Y210339D01*
X240785Y210005D01*
X240790Y210003D01*
X240790Y209999D01*
X241045Y209700D01*
X241050Y209699D01*
X241050Y209695D01*
X241349Y209440D01*
X241355Y209439D01*
X241355Y209435D01*
X241689Y209230D01*
X241695Y209231D01*
X241696Y209227D01*
X242058Y209077D01*
X242064Y209078D01*
X242066Y209074D01*
X242448Y208983D01*
X242453Y208985D01*
X242455Y208982D01*
X242846Y208951D01*
X242849Y208953D01*
X242850Y208951D01*
X248350Y208951D01*
X248352Y208953D01*
G37*
G36*
X324552Y208953D02*
X324552Y208953D01*
X324554Y208951D01*
X324945Y208982D01*
X324949Y208986D01*
X324952Y208983D01*
X325334Y209074D01*
X325338Y209079D01*
X325342Y209077D01*
X325704Y209227D01*
X325707Y209232D01*
X325711Y209230D01*
X326045Y209435D01*
X326047Y209440D01*
X326051Y209440D01*
X326350Y209695D01*
X326351Y209700D01*
X326355Y209700D01*
X326610Y209999D01*
X326611Y210005D01*
X326615Y210005D01*
X326820Y210339D01*
X326819Y210345D01*
X326824Y210346D01*
X326974Y210708D01*
X326973Y210710D01*
X326974Y210710D01*
X326972Y210713D01*
X326972Y210714D01*
X326976Y210716D01*
X327067Y211098D01*
X327065Y211103D01*
X327067Y211104D01*
X327068Y211105D01*
X327099Y211496D01*
X327097Y211499D01*
X327099Y211500D01*
X327068Y220691D01*
X327063Y220698D01*
X327067Y220702D01*
X326976Y221084D01*
X326971Y221088D01*
X326974Y221092D01*
X326824Y221454D01*
X326818Y221457D01*
X326820Y221461D01*
X326615Y221795D01*
X326610Y221797D01*
X326610Y221801D01*
X326355Y222100D01*
X326350Y222101D01*
X326350Y222105D01*
X326051Y222360D01*
X326045Y222361D01*
X326045Y222365D01*
X325711Y222570D01*
X325705Y222569D01*
X325704Y222574D01*
X325342Y222724D01*
X325336Y222722D01*
X325334Y222726D01*
X324952Y222817D01*
X324947Y222815D01*
X324945Y222818D01*
X324554Y222849D01*
X324551Y222847D01*
X324550Y222849D01*
X319050Y222849D01*
X319048Y222847D01*
X319046Y222849D01*
X318655Y222818D01*
X318651Y222814D01*
X318648Y222817D01*
X318266Y222726D01*
X318262Y222721D01*
X318258Y222724D01*
X317896Y222574D01*
X317893Y222568D01*
X317889Y222570D01*
X317555Y222365D01*
X317553Y222360D01*
X317549Y222360D01*
X317250Y222105D01*
X317249Y222100D01*
X317245Y222100D01*
X316990Y221801D01*
X316989Y221795D01*
X316985Y221795D01*
X316780Y221461D01*
X316781Y221455D01*
X316777Y221454D01*
X316627Y221092D01*
X316628Y221086D01*
X316624Y221084D01*
X316533Y220702D01*
X316535Y220697D01*
X316532Y220695D01*
X316501Y220304D01*
X316503Y220301D01*
X316501Y220300D01*
X316532Y211109D01*
X316537Y211102D01*
X316533Y211098D01*
X316624Y210716D01*
X316629Y210712D01*
X316627Y210708D01*
X316777Y210346D01*
X316782Y210343D01*
X316780Y210339D01*
X316985Y210005D01*
X316990Y210003D01*
X316990Y209999D01*
X317245Y209700D01*
X317250Y209699D01*
X317250Y209695D01*
X317549Y209440D01*
X317555Y209439D01*
X317555Y209435D01*
X317889Y209230D01*
X317895Y209231D01*
X317896Y209227D01*
X318258Y209077D01*
X318264Y209078D01*
X318266Y209074D01*
X318648Y208983D01*
X318653Y208985D01*
X318655Y208982D01*
X319046Y208951D01*
X319049Y208953D01*
X319050Y208951D01*
X324550Y208951D01*
X324552Y208953D01*
G37*
G36*
X303252Y208953D02*
X303252Y208953D01*
X303254Y208951D01*
X303645Y208982D01*
X303649Y208986D01*
X303652Y208983D01*
X304034Y209074D01*
X304038Y209079D01*
X304042Y209077D01*
X304404Y209227D01*
X304407Y209232D01*
X304411Y209230D01*
X304745Y209435D01*
X304747Y209440D01*
X304751Y209440D01*
X305050Y209695D01*
X305051Y209700D01*
X305055Y209700D01*
X305310Y209999D01*
X305311Y210005D01*
X305315Y210005D01*
X305520Y210339D01*
X305519Y210345D01*
X305524Y210346D01*
X305674Y210708D01*
X305673Y210710D01*
X305674Y210710D01*
X305672Y210713D01*
X305672Y210714D01*
X305676Y210716D01*
X305767Y211098D01*
X305765Y211103D01*
X305767Y211104D01*
X305768Y211105D01*
X305799Y211496D01*
X305797Y211499D01*
X305799Y211500D01*
X305768Y220691D01*
X305763Y220698D01*
X305767Y220702D01*
X305676Y221084D01*
X305671Y221088D01*
X305674Y221092D01*
X305524Y221454D01*
X305518Y221457D01*
X305520Y221461D01*
X305315Y221795D01*
X305310Y221797D01*
X305310Y221801D01*
X305055Y222100D01*
X305050Y222101D01*
X305050Y222105D01*
X304751Y222360D01*
X304745Y222361D01*
X304745Y222365D01*
X304411Y222570D01*
X304405Y222569D01*
X304404Y222574D01*
X304042Y222724D01*
X304036Y222722D01*
X304034Y222726D01*
X303652Y222817D01*
X303647Y222815D01*
X303645Y222818D01*
X303254Y222849D01*
X303251Y222847D01*
X303250Y222849D01*
X297750Y222849D01*
X297748Y222847D01*
X297746Y222849D01*
X297355Y222818D01*
X297351Y222814D01*
X297348Y222817D01*
X296966Y222726D01*
X296962Y222721D01*
X296958Y222724D01*
X296596Y222574D01*
X296593Y222568D01*
X296589Y222570D01*
X296255Y222365D01*
X296253Y222360D01*
X296249Y222360D01*
X295950Y222105D01*
X295949Y222100D01*
X295945Y222100D01*
X295690Y221801D01*
X295689Y221795D01*
X295685Y221795D01*
X295480Y221461D01*
X295481Y221455D01*
X295477Y221454D01*
X295327Y221092D01*
X295328Y221086D01*
X295324Y221084D01*
X295233Y220702D01*
X295235Y220697D01*
X295232Y220695D01*
X295201Y220304D01*
X295203Y220301D01*
X295201Y220300D01*
X295232Y211109D01*
X295237Y211102D01*
X295233Y211098D01*
X295324Y210716D01*
X295329Y210712D01*
X295327Y210708D01*
X295477Y210346D01*
X295482Y210343D01*
X295480Y210339D01*
X295685Y210005D01*
X295690Y210003D01*
X295690Y209999D01*
X295945Y209700D01*
X295950Y209699D01*
X295950Y209695D01*
X296249Y209440D01*
X296255Y209439D01*
X296255Y209435D01*
X296589Y209230D01*
X296595Y209231D01*
X296596Y209227D01*
X296958Y209077D01*
X296964Y209078D01*
X296966Y209074D01*
X297348Y208983D01*
X297353Y208985D01*
X297355Y208982D01*
X297746Y208951D01*
X297749Y208953D01*
X297750Y208951D01*
X303250Y208951D01*
X303252Y208953D01*
G37*
G36*
X286452Y208953D02*
X286452Y208953D01*
X286454Y208951D01*
X286845Y208982D01*
X286849Y208986D01*
X286852Y208983D01*
X287234Y209074D01*
X287238Y209079D01*
X287242Y209077D01*
X287604Y209227D01*
X287607Y209232D01*
X287611Y209230D01*
X287945Y209435D01*
X287947Y209440D01*
X287951Y209440D01*
X288250Y209695D01*
X288251Y209700D01*
X288255Y209700D01*
X288510Y209999D01*
X288511Y210005D01*
X288515Y210005D01*
X288720Y210339D01*
X288719Y210345D01*
X288724Y210346D01*
X288874Y210708D01*
X288873Y210710D01*
X288874Y210710D01*
X288872Y210713D01*
X288872Y210714D01*
X288876Y210716D01*
X288967Y211098D01*
X288965Y211103D01*
X288967Y211104D01*
X288968Y211105D01*
X288999Y211496D01*
X288997Y211499D01*
X288999Y211500D01*
X288968Y220691D01*
X288963Y220698D01*
X288967Y220702D01*
X288876Y221084D01*
X288871Y221088D01*
X288874Y221092D01*
X288724Y221454D01*
X288718Y221457D01*
X288720Y221461D01*
X288515Y221795D01*
X288510Y221797D01*
X288510Y221801D01*
X288255Y222100D01*
X288250Y222101D01*
X288250Y222105D01*
X287951Y222360D01*
X287945Y222361D01*
X287945Y222365D01*
X287611Y222570D01*
X287605Y222569D01*
X287604Y222574D01*
X287242Y222724D01*
X287236Y222722D01*
X287234Y222726D01*
X286852Y222817D01*
X286847Y222815D01*
X286845Y222818D01*
X286454Y222849D01*
X286451Y222847D01*
X286450Y222849D01*
X280950Y222849D01*
X280948Y222847D01*
X280946Y222849D01*
X280555Y222818D01*
X280551Y222814D01*
X280548Y222817D01*
X280166Y222726D01*
X280162Y222721D01*
X280158Y222724D01*
X279796Y222574D01*
X279793Y222568D01*
X279789Y222570D01*
X279455Y222365D01*
X279453Y222360D01*
X279449Y222360D01*
X279150Y222105D01*
X279149Y222100D01*
X279145Y222100D01*
X278890Y221801D01*
X278889Y221795D01*
X278885Y221795D01*
X278680Y221461D01*
X278681Y221455D01*
X278677Y221454D01*
X278527Y221092D01*
X278528Y221086D01*
X278524Y221084D01*
X278433Y220702D01*
X278435Y220697D01*
X278432Y220695D01*
X278401Y220304D01*
X278403Y220301D01*
X278401Y220300D01*
X278432Y211109D01*
X278437Y211102D01*
X278433Y211098D01*
X278524Y210716D01*
X278529Y210712D01*
X278527Y210708D01*
X278677Y210346D01*
X278682Y210343D01*
X278680Y210339D01*
X278885Y210005D01*
X278890Y210003D01*
X278890Y209999D01*
X279145Y209700D01*
X279150Y209699D01*
X279150Y209695D01*
X279449Y209440D01*
X279455Y209439D01*
X279455Y209435D01*
X279789Y209230D01*
X279795Y209231D01*
X279796Y209227D01*
X280158Y209077D01*
X280164Y209078D01*
X280166Y209074D01*
X280548Y208983D01*
X280553Y208985D01*
X280555Y208982D01*
X280946Y208951D01*
X280949Y208953D01*
X280950Y208951D01*
X286450Y208951D01*
X286452Y208953D01*
G37*
G36*
X210252Y208953D02*
X210252Y208953D01*
X210254Y208951D01*
X210645Y208982D01*
X210649Y208986D01*
X210652Y208983D01*
X211034Y209074D01*
X211038Y209079D01*
X211042Y209077D01*
X211404Y209227D01*
X211407Y209232D01*
X211411Y209230D01*
X211745Y209435D01*
X211747Y209440D01*
X211751Y209440D01*
X212050Y209695D01*
X212051Y209700D01*
X212055Y209700D01*
X212310Y209999D01*
X212311Y210005D01*
X212315Y210005D01*
X212520Y210339D01*
X212519Y210345D01*
X212524Y210346D01*
X212674Y210708D01*
X212673Y210710D01*
X212674Y210710D01*
X212672Y210713D01*
X212672Y210714D01*
X212676Y210716D01*
X212767Y211098D01*
X212765Y211103D01*
X212767Y211104D01*
X212768Y211105D01*
X212799Y211496D01*
X212797Y211499D01*
X212799Y211500D01*
X212768Y220691D01*
X212763Y220698D01*
X212767Y220702D01*
X212676Y221084D01*
X212671Y221088D01*
X212674Y221092D01*
X212524Y221454D01*
X212518Y221457D01*
X212520Y221461D01*
X212315Y221795D01*
X212310Y221797D01*
X212310Y221801D01*
X212055Y222100D01*
X212050Y222101D01*
X212050Y222105D01*
X211751Y222360D01*
X211745Y222361D01*
X211745Y222365D01*
X211411Y222570D01*
X211405Y222569D01*
X211404Y222574D01*
X211042Y222724D01*
X211036Y222722D01*
X211034Y222726D01*
X210652Y222817D01*
X210647Y222815D01*
X210645Y222818D01*
X210254Y222849D01*
X210251Y222847D01*
X210250Y222849D01*
X204750Y222849D01*
X204748Y222847D01*
X204746Y222849D01*
X204355Y222818D01*
X204351Y222814D01*
X204348Y222817D01*
X203966Y222726D01*
X203962Y222721D01*
X203958Y222724D01*
X203596Y222574D01*
X203593Y222568D01*
X203589Y222570D01*
X203255Y222365D01*
X203253Y222360D01*
X203249Y222360D01*
X202950Y222105D01*
X202949Y222100D01*
X202945Y222100D01*
X202690Y221801D01*
X202689Y221795D01*
X202685Y221795D01*
X202480Y221461D01*
X202481Y221455D01*
X202477Y221454D01*
X202327Y221092D01*
X202328Y221086D01*
X202324Y221084D01*
X202233Y220702D01*
X202235Y220697D01*
X202232Y220695D01*
X202201Y220304D01*
X202203Y220301D01*
X202201Y220300D01*
X202232Y211109D01*
X202237Y211102D01*
X202233Y211098D01*
X202324Y210716D01*
X202329Y210712D01*
X202327Y210708D01*
X202477Y210346D01*
X202482Y210343D01*
X202480Y210339D01*
X202685Y210005D01*
X202690Y210003D01*
X202690Y209999D01*
X202945Y209700D01*
X202950Y209699D01*
X202950Y209695D01*
X203249Y209440D01*
X203255Y209439D01*
X203255Y209435D01*
X203589Y209230D01*
X203595Y209231D01*
X203596Y209227D01*
X203958Y209077D01*
X203964Y209078D01*
X203966Y209074D01*
X204348Y208983D01*
X204353Y208985D01*
X204355Y208982D01*
X204746Y208951D01*
X204749Y208953D01*
X204750Y208951D01*
X210250Y208951D01*
X210252Y208953D01*
G37*
G36*
X341352Y208953D02*
X341352Y208953D01*
X341354Y208951D01*
X341745Y208982D01*
X341749Y208986D01*
X341752Y208983D01*
X342134Y209074D01*
X342138Y209079D01*
X342142Y209077D01*
X342504Y209227D01*
X342507Y209232D01*
X342511Y209230D01*
X342845Y209435D01*
X342847Y209440D01*
X342851Y209440D01*
X343150Y209695D01*
X343151Y209700D01*
X343155Y209700D01*
X343410Y209999D01*
X343411Y210005D01*
X343415Y210005D01*
X343620Y210339D01*
X343619Y210345D01*
X343624Y210346D01*
X343774Y210708D01*
X343773Y210710D01*
X343774Y210710D01*
X343772Y210713D01*
X343772Y210714D01*
X343776Y210716D01*
X343867Y211098D01*
X343865Y211103D01*
X343867Y211104D01*
X343868Y211105D01*
X343899Y211496D01*
X343897Y211499D01*
X343899Y211500D01*
X343868Y220691D01*
X343863Y220698D01*
X343867Y220702D01*
X343776Y221084D01*
X343771Y221088D01*
X343774Y221092D01*
X343624Y221454D01*
X343618Y221457D01*
X343620Y221461D01*
X343415Y221795D01*
X343410Y221797D01*
X343410Y221801D01*
X343155Y222100D01*
X343150Y222101D01*
X343150Y222105D01*
X342851Y222360D01*
X342845Y222361D01*
X342845Y222365D01*
X342511Y222570D01*
X342505Y222569D01*
X342504Y222574D01*
X342142Y222724D01*
X342136Y222722D01*
X342134Y222726D01*
X341752Y222817D01*
X341747Y222815D01*
X341745Y222818D01*
X341354Y222849D01*
X341351Y222847D01*
X341350Y222849D01*
X335850Y222849D01*
X335848Y222847D01*
X335846Y222849D01*
X335455Y222818D01*
X335451Y222814D01*
X335448Y222817D01*
X335066Y222726D01*
X335062Y222721D01*
X335058Y222724D01*
X334696Y222574D01*
X334693Y222568D01*
X334689Y222570D01*
X334355Y222365D01*
X334353Y222360D01*
X334349Y222360D01*
X334050Y222105D01*
X334049Y222100D01*
X334045Y222100D01*
X333790Y221801D01*
X333789Y221795D01*
X333785Y221795D01*
X333580Y221461D01*
X333581Y221455D01*
X333577Y221454D01*
X333427Y221092D01*
X333428Y221086D01*
X333424Y221084D01*
X333333Y220702D01*
X333335Y220697D01*
X333332Y220695D01*
X333301Y220304D01*
X333303Y220301D01*
X333301Y220300D01*
X333332Y211109D01*
X333337Y211102D01*
X333333Y211098D01*
X333424Y210716D01*
X333429Y210712D01*
X333427Y210708D01*
X333577Y210346D01*
X333582Y210343D01*
X333580Y210339D01*
X333785Y210005D01*
X333790Y210003D01*
X333790Y209999D01*
X334045Y209700D01*
X334050Y209699D01*
X334050Y209695D01*
X334349Y209440D01*
X334355Y209439D01*
X334355Y209435D01*
X334689Y209230D01*
X334695Y209231D01*
X334696Y209227D01*
X335058Y209077D01*
X335064Y209078D01*
X335066Y209074D01*
X335448Y208983D01*
X335453Y208985D01*
X335455Y208982D01*
X335846Y208951D01*
X335849Y208953D01*
X335850Y208951D01*
X341350Y208951D01*
X341352Y208953D01*
G37*
G36*
X227052Y208953D02*
X227052Y208953D01*
X227054Y208951D01*
X227445Y208982D01*
X227449Y208986D01*
X227452Y208983D01*
X227834Y209074D01*
X227838Y209079D01*
X227842Y209077D01*
X228204Y209227D01*
X228207Y209232D01*
X228211Y209230D01*
X228545Y209435D01*
X228547Y209440D01*
X228551Y209440D01*
X228850Y209695D01*
X228851Y209700D01*
X228855Y209700D01*
X229110Y209999D01*
X229111Y210005D01*
X229115Y210005D01*
X229320Y210339D01*
X229319Y210345D01*
X229324Y210346D01*
X229474Y210708D01*
X229473Y210710D01*
X229474Y210710D01*
X229472Y210713D01*
X229472Y210714D01*
X229476Y210716D01*
X229567Y211098D01*
X229565Y211103D01*
X229567Y211104D01*
X229568Y211105D01*
X229599Y211496D01*
X229597Y211499D01*
X229599Y211500D01*
X229568Y220691D01*
X229563Y220698D01*
X229567Y220702D01*
X229476Y221084D01*
X229471Y221088D01*
X229474Y221092D01*
X229324Y221454D01*
X229318Y221457D01*
X229320Y221461D01*
X229115Y221795D01*
X229110Y221797D01*
X229110Y221801D01*
X228855Y222100D01*
X228850Y222101D01*
X228850Y222105D01*
X228551Y222360D01*
X228545Y222361D01*
X228545Y222365D01*
X228211Y222570D01*
X228205Y222569D01*
X228204Y222574D01*
X227842Y222724D01*
X227836Y222722D01*
X227834Y222726D01*
X227452Y222817D01*
X227447Y222815D01*
X227445Y222818D01*
X227054Y222849D01*
X227051Y222847D01*
X227050Y222849D01*
X221550Y222849D01*
X221548Y222847D01*
X221546Y222849D01*
X221155Y222818D01*
X221151Y222814D01*
X221148Y222817D01*
X220766Y222726D01*
X220762Y222721D01*
X220758Y222724D01*
X220396Y222574D01*
X220393Y222568D01*
X220389Y222570D01*
X220055Y222365D01*
X220053Y222360D01*
X220049Y222360D01*
X219750Y222105D01*
X219749Y222100D01*
X219745Y222100D01*
X219490Y221801D01*
X219489Y221795D01*
X219485Y221795D01*
X219280Y221461D01*
X219281Y221455D01*
X219277Y221454D01*
X219127Y221092D01*
X219128Y221086D01*
X219124Y221084D01*
X219033Y220702D01*
X219035Y220697D01*
X219032Y220695D01*
X219001Y220304D01*
X219003Y220301D01*
X219001Y220300D01*
X219032Y211109D01*
X219037Y211102D01*
X219033Y211098D01*
X219124Y210716D01*
X219129Y210712D01*
X219127Y210708D01*
X219277Y210346D01*
X219282Y210343D01*
X219280Y210339D01*
X219485Y210005D01*
X219490Y210003D01*
X219490Y209999D01*
X219745Y209700D01*
X219750Y209699D01*
X219750Y209695D01*
X220049Y209440D01*
X220055Y209439D01*
X220055Y209435D01*
X220389Y209230D01*
X220395Y209231D01*
X220396Y209227D01*
X220758Y209077D01*
X220764Y209078D01*
X220766Y209074D01*
X221148Y208983D01*
X221153Y208985D01*
X221155Y208982D01*
X221546Y208951D01*
X221549Y208953D01*
X221550Y208951D01*
X227050Y208951D01*
X227052Y208953D01*
G37*
G36*
X127702Y170853D02*
X127702Y170853D01*
X127704Y170851D01*
X128095Y170882D01*
X128099Y170886D01*
X128102Y170883D01*
X128484Y170974D01*
X128488Y170979D01*
X128492Y170977D01*
X128854Y171127D01*
X128857Y171132D01*
X128861Y171130D01*
X129195Y171335D01*
X129197Y171340D01*
X129201Y171340D01*
X129500Y171595D01*
X129501Y171600D01*
X129505Y171600D01*
X129760Y171899D01*
X129761Y171905D01*
X129765Y171905D01*
X129970Y172239D01*
X129969Y172245D01*
X129974Y172246D01*
X130124Y172608D01*
X130123Y172610D01*
X130124Y172610D01*
X130122Y172613D01*
X130122Y172614D01*
X130126Y172616D01*
X130217Y172998D01*
X130215Y173003D01*
X130217Y173004D01*
X130218Y173005D01*
X130249Y173396D01*
X130247Y173399D01*
X130249Y173400D01*
X130218Y182591D01*
X130213Y182598D01*
X130217Y182602D01*
X130126Y182984D01*
X130121Y182988D01*
X130124Y182992D01*
X129974Y183354D01*
X129968Y183357D01*
X129970Y183361D01*
X129765Y183695D01*
X129760Y183697D01*
X129760Y183701D01*
X129505Y184000D01*
X129500Y184001D01*
X129500Y184005D01*
X129201Y184260D01*
X129195Y184261D01*
X129195Y184265D01*
X128861Y184470D01*
X128855Y184469D01*
X128854Y184474D01*
X128492Y184624D01*
X128486Y184622D01*
X128484Y184626D01*
X128102Y184717D01*
X128097Y184715D01*
X128095Y184718D01*
X127704Y184749D01*
X127701Y184747D01*
X127700Y184749D01*
X122200Y184749D01*
X122198Y184747D01*
X122196Y184749D01*
X121805Y184718D01*
X121801Y184714D01*
X121798Y184717D01*
X121416Y184626D01*
X121412Y184621D01*
X121408Y184624D01*
X121046Y184474D01*
X121043Y184468D01*
X121039Y184470D01*
X120705Y184265D01*
X120703Y184260D01*
X120699Y184260D01*
X120400Y184005D01*
X120399Y184000D01*
X120395Y184000D01*
X120140Y183701D01*
X120139Y183695D01*
X120135Y183695D01*
X119930Y183361D01*
X119931Y183355D01*
X119927Y183354D01*
X119777Y182992D01*
X119778Y182986D01*
X119774Y182984D01*
X119683Y182602D01*
X119685Y182597D01*
X119682Y182595D01*
X119651Y182204D01*
X119653Y182201D01*
X119651Y182200D01*
X119682Y173009D01*
X119687Y173002D01*
X119683Y172998D01*
X119774Y172616D01*
X119779Y172612D01*
X119777Y172608D01*
X119927Y172246D01*
X119932Y172243D01*
X119930Y172239D01*
X120135Y171905D01*
X120140Y171903D01*
X120140Y171899D01*
X120395Y171600D01*
X120400Y171599D01*
X120400Y171595D01*
X120699Y171340D01*
X120705Y171339D01*
X120705Y171335D01*
X121039Y171130D01*
X121045Y171131D01*
X121046Y171127D01*
X121408Y170977D01*
X121414Y170978D01*
X121416Y170974D01*
X121798Y170883D01*
X121803Y170885D01*
X121805Y170882D01*
X122196Y170851D01*
X122199Y170853D01*
X122200Y170851D01*
X127700Y170851D01*
X127702Y170853D01*
G37*
G36*
X100494Y335578D02*
X100494Y335578D01*
X100501Y335583D01*
X100506Y335579D01*
X100842Y335660D01*
X100845Y335665D01*
X100849Y335663D01*
X101168Y335795D01*
X101171Y335800D01*
X101175Y335798D01*
X101469Y335978D01*
X101471Y335983D01*
X101475Y335983D01*
X101738Y336207D01*
X101739Y336212D01*
X101744Y336212D01*
X101968Y336475D01*
X101968Y336481D01*
X101972Y336481D01*
X102152Y336775D01*
X102151Y336781D01*
X102156Y336782D01*
X102288Y337101D01*
X102286Y337107D01*
X102290Y337108D01*
X102371Y337444D01*
X102369Y337450D01*
X102372Y337452D01*
X102399Y337796D01*
X102398Y337799D01*
X102399Y337800D01*
X102399Y342100D01*
X102397Y342102D01*
X102399Y342104D01*
X102372Y342448D01*
X102368Y342452D01*
X102371Y342456D01*
X102290Y342792D01*
X102285Y342795D01*
X102288Y342799D01*
X102156Y343118D01*
X102150Y343121D01*
X102152Y343125D01*
X101972Y343419D01*
X101967Y343421D01*
X101968Y343425D01*
X101744Y343688D01*
X101738Y343689D01*
X101738Y343694D01*
X101475Y343918D01*
X101469Y343918D01*
X101469Y343922D01*
X101175Y344102D01*
X101169Y344101D01*
X101168Y344106D01*
X100849Y344238D01*
X100843Y344236D01*
X100842Y344240D01*
X100506Y344321D01*
X100500Y344319D01*
X100498Y344322D01*
X100154Y344349D01*
X100151Y344347D01*
X100150Y344349D01*
X90006Y344322D01*
X89999Y344317D01*
X89994Y344321D01*
X89658Y344240D01*
X89655Y344235D01*
X89651Y344238D01*
X89332Y344106D01*
X89329Y344100D01*
X89325Y344102D01*
X89031Y343922D01*
X89029Y343917D01*
X89025Y343918D01*
X88762Y343694D01*
X88761Y343688D01*
X88757Y343688D01*
X88533Y343425D01*
X88532Y343419D01*
X88528Y343419D01*
X88348Y343125D01*
X88349Y343119D01*
X88345Y343118D01*
X88213Y342799D01*
X88214Y342793D01*
X88210Y342792D01*
X88129Y342456D01*
X88131Y342450D01*
X88128Y342448D01*
X88101Y342104D01*
X88103Y342101D01*
X88101Y342100D01*
X88101Y337800D01*
X88103Y337798D01*
X88101Y337796D01*
X88128Y337452D01*
X88132Y337448D01*
X88129Y337444D01*
X88210Y337108D01*
X88215Y337105D01*
X88213Y337101D01*
X88345Y336782D01*
X88350Y336779D01*
X88348Y336775D01*
X88528Y336481D01*
X88533Y336479D01*
X88533Y336475D01*
X88757Y336212D01*
X88762Y336211D01*
X88762Y336207D01*
X89025Y335983D01*
X89031Y335982D01*
X89031Y335978D01*
X89325Y335798D01*
X89331Y335799D01*
X89332Y335795D01*
X89651Y335663D01*
X89657Y335664D01*
X89658Y335660D01*
X89994Y335579D01*
X90000Y335581D01*
X90002Y335578D01*
X90346Y335551D01*
X90349Y335553D01*
X90350Y335551D01*
X100494Y335578D01*
G37*
G36*
X100494Y316078D02*
X100494Y316078D01*
X100501Y316083D01*
X100506Y316079D01*
X100842Y316160D01*
X100845Y316165D01*
X100849Y316163D01*
X101168Y316295D01*
X101171Y316300D01*
X101175Y316298D01*
X101469Y316478D01*
X101471Y316483D01*
X101475Y316483D01*
X101738Y316707D01*
X101739Y316712D01*
X101744Y316712D01*
X101968Y316975D01*
X101968Y316981D01*
X101972Y316981D01*
X102152Y317275D01*
X102151Y317281D01*
X102156Y317282D01*
X102288Y317601D01*
X102286Y317607D01*
X102290Y317608D01*
X102371Y317944D01*
X102369Y317950D01*
X102372Y317952D01*
X102399Y318296D01*
X102398Y318299D01*
X102399Y318300D01*
X102399Y322600D01*
X102397Y322602D01*
X102399Y322604D01*
X102372Y322948D01*
X102368Y322952D01*
X102371Y322956D01*
X102290Y323292D01*
X102285Y323295D01*
X102288Y323299D01*
X102156Y323618D01*
X102150Y323621D01*
X102152Y323625D01*
X101972Y323919D01*
X101967Y323921D01*
X101968Y323925D01*
X101744Y324188D01*
X101738Y324189D01*
X101738Y324194D01*
X101475Y324418D01*
X101469Y324418D01*
X101469Y324422D01*
X101175Y324602D01*
X101169Y324601D01*
X101168Y324606D01*
X100849Y324738D01*
X100843Y324736D01*
X100842Y324740D01*
X100506Y324821D01*
X100500Y324819D01*
X100498Y324822D01*
X100154Y324849D01*
X100151Y324847D01*
X100150Y324849D01*
X90006Y324822D01*
X89999Y324817D01*
X89994Y324821D01*
X89658Y324740D01*
X89655Y324735D01*
X89651Y324738D01*
X89332Y324606D01*
X89329Y324600D01*
X89325Y324602D01*
X89031Y324422D01*
X89029Y324417D01*
X89025Y324418D01*
X88762Y324194D01*
X88761Y324188D01*
X88757Y324188D01*
X88533Y323925D01*
X88532Y323919D01*
X88528Y323919D01*
X88348Y323625D01*
X88349Y323619D01*
X88345Y323618D01*
X88213Y323299D01*
X88214Y323293D01*
X88210Y323292D01*
X88129Y322956D01*
X88131Y322950D01*
X88128Y322948D01*
X88101Y322604D01*
X88103Y322601D01*
X88101Y322600D01*
X88101Y318300D01*
X88103Y318298D01*
X88101Y318296D01*
X88128Y317952D01*
X88132Y317948D01*
X88129Y317944D01*
X88210Y317608D01*
X88215Y317605D01*
X88213Y317601D01*
X88345Y317282D01*
X88350Y317279D01*
X88348Y317275D01*
X88528Y316981D01*
X88533Y316979D01*
X88533Y316975D01*
X88757Y316712D01*
X88762Y316711D01*
X88762Y316707D01*
X89025Y316483D01*
X89031Y316482D01*
X89031Y316478D01*
X89325Y316298D01*
X89331Y316299D01*
X89332Y316295D01*
X89651Y316163D01*
X89657Y316164D01*
X89658Y316160D01*
X89994Y316079D01*
X90000Y316081D01*
X90002Y316078D01*
X90346Y316051D01*
X90349Y316053D01*
X90350Y316051D01*
X100494Y316078D01*
G37*
G36*
X589444Y214478D02*
X589444Y214478D01*
X589451Y214483D01*
X589456Y214479D01*
X589792Y214560D01*
X589795Y214565D01*
X589799Y214563D01*
X590118Y214695D01*
X590121Y214700D01*
X590125Y214698D01*
X590419Y214878D01*
X590421Y214883D01*
X590425Y214883D01*
X590688Y215107D01*
X590689Y215112D01*
X590694Y215112D01*
X590918Y215375D01*
X590918Y215381D01*
X590922Y215381D01*
X591102Y215675D01*
X591101Y215681D01*
X591106Y215682D01*
X591238Y216001D01*
X591236Y216007D01*
X591240Y216008D01*
X591321Y216344D01*
X591319Y216350D01*
X591322Y216352D01*
X591349Y216696D01*
X591348Y216699D01*
X591349Y216700D01*
X591349Y221000D01*
X591347Y221002D01*
X591349Y221004D01*
X591322Y221348D01*
X591318Y221352D01*
X591321Y221356D01*
X591240Y221692D01*
X591235Y221695D01*
X591238Y221699D01*
X591106Y222018D01*
X591100Y222021D01*
X591102Y222025D01*
X590922Y222319D01*
X590917Y222321D01*
X590918Y222325D01*
X590694Y222588D01*
X590688Y222589D01*
X590688Y222594D01*
X590425Y222818D01*
X590419Y222818D01*
X590419Y222822D01*
X590125Y223002D01*
X590119Y223001D01*
X590118Y223006D01*
X589799Y223138D01*
X589793Y223136D01*
X589792Y223140D01*
X589456Y223221D01*
X589450Y223219D01*
X589448Y223222D01*
X589104Y223249D01*
X589101Y223247D01*
X589100Y223249D01*
X578956Y223222D01*
X578949Y223217D01*
X578944Y223221D01*
X578608Y223140D01*
X578605Y223135D01*
X578601Y223138D01*
X578282Y223006D01*
X578279Y223000D01*
X578275Y223002D01*
X577981Y222822D01*
X577979Y222817D01*
X577975Y222818D01*
X577712Y222594D01*
X577711Y222588D01*
X577707Y222588D01*
X577483Y222325D01*
X577482Y222319D01*
X577478Y222319D01*
X577298Y222025D01*
X577299Y222019D01*
X577295Y222018D01*
X577163Y221699D01*
X577164Y221693D01*
X577160Y221692D01*
X577079Y221356D01*
X577081Y221350D01*
X577078Y221348D01*
X577051Y221004D01*
X577053Y221001D01*
X577051Y221000D01*
X577051Y216700D01*
X577053Y216698D01*
X577051Y216696D01*
X577078Y216352D01*
X577082Y216348D01*
X577079Y216344D01*
X577160Y216008D01*
X577165Y216005D01*
X577163Y216001D01*
X577295Y215682D01*
X577300Y215679D01*
X577298Y215675D01*
X577478Y215381D01*
X577483Y215379D01*
X577483Y215375D01*
X577707Y215112D01*
X577712Y215111D01*
X577712Y215107D01*
X577975Y214883D01*
X577981Y214882D01*
X577981Y214878D01*
X578275Y214698D01*
X578281Y214699D01*
X578282Y214695D01*
X578601Y214563D01*
X578607Y214564D01*
X578608Y214560D01*
X578944Y214479D01*
X578950Y214481D01*
X578952Y214478D01*
X579296Y214451D01*
X579299Y214453D01*
X579300Y214451D01*
X589444Y214478D01*
G37*
G36*
X538644Y214478D02*
X538644Y214478D01*
X538651Y214483D01*
X538656Y214479D01*
X538992Y214560D01*
X538995Y214565D01*
X538999Y214563D01*
X539318Y214695D01*
X539321Y214700D01*
X539325Y214698D01*
X539619Y214878D01*
X539621Y214883D01*
X539625Y214883D01*
X539888Y215107D01*
X539889Y215112D01*
X539894Y215112D01*
X540118Y215375D01*
X540118Y215381D01*
X540122Y215381D01*
X540302Y215675D01*
X540301Y215681D01*
X540306Y215682D01*
X540438Y216001D01*
X540436Y216007D01*
X540440Y216008D01*
X540521Y216344D01*
X540519Y216350D01*
X540522Y216352D01*
X540549Y216696D01*
X540548Y216699D01*
X540549Y216700D01*
X540549Y221000D01*
X540547Y221002D01*
X540549Y221004D01*
X540522Y221348D01*
X540518Y221352D01*
X540521Y221356D01*
X540440Y221692D01*
X540435Y221695D01*
X540438Y221699D01*
X540306Y222018D01*
X540300Y222021D01*
X540302Y222025D01*
X540122Y222319D01*
X540117Y222321D01*
X540118Y222325D01*
X539894Y222588D01*
X539888Y222589D01*
X539888Y222594D01*
X539625Y222818D01*
X539619Y222818D01*
X539619Y222822D01*
X539325Y223002D01*
X539319Y223001D01*
X539318Y223006D01*
X538999Y223138D01*
X538993Y223136D01*
X538992Y223140D01*
X538656Y223221D01*
X538650Y223219D01*
X538648Y223222D01*
X538304Y223249D01*
X538301Y223247D01*
X538300Y223249D01*
X528156Y223222D01*
X528149Y223217D01*
X528144Y223221D01*
X527808Y223140D01*
X527805Y223135D01*
X527801Y223138D01*
X527482Y223006D01*
X527479Y223000D01*
X527475Y223002D01*
X527181Y222822D01*
X527179Y222817D01*
X527175Y222818D01*
X526912Y222594D01*
X526911Y222588D01*
X526907Y222588D01*
X526683Y222325D01*
X526682Y222319D01*
X526678Y222319D01*
X526498Y222025D01*
X526499Y222019D01*
X526495Y222018D01*
X526363Y221699D01*
X526364Y221693D01*
X526360Y221692D01*
X526279Y221356D01*
X526281Y221350D01*
X526278Y221348D01*
X526251Y221004D01*
X526253Y221001D01*
X526251Y221000D01*
X526251Y216700D01*
X526253Y216698D01*
X526251Y216696D01*
X526278Y216352D01*
X526282Y216348D01*
X526279Y216344D01*
X526360Y216008D01*
X526365Y216005D01*
X526363Y216001D01*
X526495Y215682D01*
X526500Y215679D01*
X526498Y215675D01*
X526678Y215381D01*
X526683Y215379D01*
X526683Y215375D01*
X526907Y215112D01*
X526912Y215111D01*
X526912Y215107D01*
X527175Y214883D01*
X527181Y214882D01*
X527181Y214878D01*
X527475Y214698D01*
X527481Y214699D01*
X527482Y214695D01*
X527801Y214563D01*
X527807Y214564D01*
X527808Y214560D01*
X528144Y214479D01*
X528150Y214481D01*
X528152Y214478D01*
X528496Y214451D01*
X528499Y214453D01*
X528500Y214451D01*
X538644Y214478D01*
G37*
G36*
X564044Y214478D02*
X564044Y214478D01*
X564051Y214483D01*
X564056Y214479D01*
X564392Y214560D01*
X564395Y214565D01*
X564399Y214563D01*
X564718Y214695D01*
X564721Y214700D01*
X564725Y214698D01*
X565019Y214878D01*
X565021Y214883D01*
X565025Y214883D01*
X565288Y215107D01*
X565289Y215112D01*
X565294Y215112D01*
X565518Y215375D01*
X565518Y215381D01*
X565522Y215381D01*
X565702Y215675D01*
X565701Y215681D01*
X565706Y215682D01*
X565838Y216001D01*
X565836Y216007D01*
X565840Y216008D01*
X565921Y216344D01*
X565919Y216350D01*
X565922Y216352D01*
X565949Y216696D01*
X565948Y216699D01*
X565949Y216700D01*
X565949Y221000D01*
X565947Y221002D01*
X565949Y221004D01*
X565922Y221348D01*
X565918Y221352D01*
X565921Y221356D01*
X565840Y221692D01*
X565835Y221695D01*
X565838Y221699D01*
X565706Y222018D01*
X565700Y222021D01*
X565702Y222025D01*
X565522Y222319D01*
X565517Y222321D01*
X565518Y222325D01*
X565294Y222588D01*
X565288Y222589D01*
X565288Y222594D01*
X565025Y222818D01*
X565019Y222818D01*
X565019Y222822D01*
X564725Y223002D01*
X564719Y223001D01*
X564718Y223006D01*
X564399Y223138D01*
X564393Y223136D01*
X564392Y223140D01*
X564056Y223221D01*
X564050Y223219D01*
X564048Y223222D01*
X563704Y223249D01*
X563701Y223247D01*
X563700Y223249D01*
X553556Y223222D01*
X553549Y223217D01*
X553544Y223221D01*
X553208Y223140D01*
X553205Y223135D01*
X553201Y223138D01*
X552882Y223006D01*
X552879Y223000D01*
X552875Y223002D01*
X552581Y222822D01*
X552579Y222817D01*
X552575Y222818D01*
X552312Y222594D01*
X552311Y222588D01*
X552307Y222588D01*
X552083Y222325D01*
X552082Y222319D01*
X552078Y222319D01*
X551898Y222025D01*
X551899Y222019D01*
X551895Y222018D01*
X551763Y221699D01*
X551764Y221693D01*
X551760Y221692D01*
X551679Y221356D01*
X551681Y221350D01*
X551678Y221348D01*
X551651Y221004D01*
X551653Y221001D01*
X551651Y221000D01*
X551651Y216700D01*
X551653Y216698D01*
X551651Y216696D01*
X551678Y216352D01*
X551682Y216348D01*
X551679Y216344D01*
X551760Y216008D01*
X551765Y216005D01*
X551763Y216001D01*
X551895Y215682D01*
X551900Y215679D01*
X551898Y215675D01*
X552078Y215381D01*
X552083Y215379D01*
X552083Y215375D01*
X552307Y215112D01*
X552312Y215111D01*
X552312Y215107D01*
X552575Y214883D01*
X552581Y214882D01*
X552581Y214878D01*
X552875Y214698D01*
X552881Y214699D01*
X552882Y214695D01*
X553201Y214563D01*
X553207Y214564D01*
X553208Y214560D01*
X553544Y214479D01*
X553550Y214481D01*
X553552Y214478D01*
X553896Y214451D01*
X553899Y214453D01*
X553900Y214451D01*
X564044Y214478D01*
G37*
G36*
X538644Y233978D02*
X538644Y233978D01*
X538651Y233983D01*
X538656Y233979D01*
X538992Y234060D01*
X538995Y234065D01*
X538999Y234063D01*
X539318Y234195D01*
X539321Y234200D01*
X539325Y234198D01*
X539619Y234378D01*
X539621Y234383D01*
X539625Y234383D01*
X539888Y234607D01*
X539889Y234612D01*
X539894Y234612D01*
X540118Y234875D01*
X540118Y234881D01*
X540122Y234881D01*
X540302Y235175D01*
X540301Y235181D01*
X540306Y235182D01*
X540438Y235501D01*
X540436Y235507D01*
X540440Y235508D01*
X540521Y235844D01*
X540519Y235850D01*
X540522Y235852D01*
X540549Y236196D01*
X540548Y236199D01*
X540549Y236200D01*
X540549Y240500D01*
X540547Y240502D01*
X540549Y240504D01*
X540522Y240848D01*
X540518Y240852D01*
X540521Y240856D01*
X540440Y241192D01*
X540435Y241195D01*
X540438Y241199D01*
X540306Y241518D01*
X540300Y241521D01*
X540302Y241525D01*
X540122Y241819D01*
X540117Y241821D01*
X540118Y241825D01*
X539894Y242088D01*
X539888Y242089D01*
X539888Y242094D01*
X539625Y242318D01*
X539619Y242318D01*
X539619Y242322D01*
X539325Y242502D01*
X539319Y242501D01*
X539318Y242506D01*
X538999Y242638D01*
X538993Y242636D01*
X538992Y242640D01*
X538656Y242721D01*
X538650Y242719D01*
X538648Y242722D01*
X538304Y242749D01*
X538301Y242747D01*
X538300Y242749D01*
X528156Y242722D01*
X528149Y242717D01*
X528144Y242721D01*
X527808Y242640D01*
X527805Y242635D01*
X527801Y242638D01*
X527482Y242506D01*
X527479Y242500D01*
X527475Y242502D01*
X527181Y242322D01*
X527179Y242317D01*
X527175Y242318D01*
X526912Y242094D01*
X526911Y242088D01*
X526907Y242088D01*
X526683Y241825D01*
X526682Y241819D01*
X526678Y241819D01*
X526498Y241525D01*
X526499Y241519D01*
X526495Y241518D01*
X526363Y241199D01*
X526364Y241193D01*
X526360Y241192D01*
X526279Y240856D01*
X526281Y240850D01*
X526278Y240848D01*
X526251Y240504D01*
X526253Y240501D01*
X526251Y240500D01*
X526251Y236200D01*
X526253Y236198D01*
X526251Y236196D01*
X526278Y235852D01*
X526282Y235848D01*
X526279Y235844D01*
X526360Y235508D01*
X526365Y235505D01*
X526363Y235501D01*
X526495Y235182D01*
X526500Y235179D01*
X526498Y235175D01*
X526678Y234881D01*
X526683Y234879D01*
X526683Y234875D01*
X526907Y234612D01*
X526912Y234611D01*
X526912Y234607D01*
X527175Y234383D01*
X527181Y234382D01*
X527181Y234378D01*
X527475Y234198D01*
X527481Y234199D01*
X527482Y234195D01*
X527801Y234063D01*
X527807Y234064D01*
X527808Y234060D01*
X528144Y233979D01*
X528150Y233981D01*
X528152Y233978D01*
X528496Y233951D01*
X528499Y233953D01*
X528500Y233951D01*
X538644Y233978D01*
G37*
G36*
X589444Y233978D02*
X589444Y233978D01*
X589451Y233983D01*
X589456Y233979D01*
X589792Y234060D01*
X589795Y234065D01*
X589799Y234063D01*
X590118Y234195D01*
X590121Y234200D01*
X590125Y234198D01*
X590419Y234378D01*
X590421Y234383D01*
X590425Y234383D01*
X590688Y234607D01*
X590689Y234612D01*
X590694Y234612D01*
X590918Y234875D01*
X590918Y234881D01*
X590922Y234881D01*
X591102Y235175D01*
X591101Y235181D01*
X591106Y235182D01*
X591238Y235501D01*
X591236Y235507D01*
X591240Y235508D01*
X591321Y235844D01*
X591319Y235850D01*
X591322Y235852D01*
X591349Y236196D01*
X591348Y236199D01*
X591349Y236200D01*
X591349Y240500D01*
X591347Y240502D01*
X591349Y240504D01*
X591322Y240848D01*
X591318Y240852D01*
X591321Y240856D01*
X591240Y241192D01*
X591235Y241195D01*
X591238Y241199D01*
X591106Y241518D01*
X591100Y241521D01*
X591102Y241525D01*
X590922Y241819D01*
X590917Y241821D01*
X590918Y241825D01*
X590694Y242088D01*
X590688Y242089D01*
X590688Y242094D01*
X590425Y242318D01*
X590419Y242318D01*
X590419Y242322D01*
X590125Y242502D01*
X590119Y242501D01*
X590118Y242506D01*
X589799Y242638D01*
X589793Y242636D01*
X589792Y242640D01*
X589456Y242721D01*
X589450Y242719D01*
X589448Y242722D01*
X589104Y242749D01*
X589101Y242747D01*
X589100Y242749D01*
X578956Y242722D01*
X578949Y242717D01*
X578944Y242721D01*
X578608Y242640D01*
X578605Y242635D01*
X578601Y242638D01*
X578282Y242506D01*
X578279Y242500D01*
X578275Y242502D01*
X577981Y242322D01*
X577979Y242317D01*
X577975Y242318D01*
X577712Y242094D01*
X577711Y242088D01*
X577707Y242088D01*
X577483Y241825D01*
X577482Y241819D01*
X577478Y241819D01*
X577298Y241525D01*
X577299Y241519D01*
X577295Y241518D01*
X577163Y241199D01*
X577164Y241193D01*
X577160Y241192D01*
X577079Y240856D01*
X577081Y240850D01*
X577078Y240848D01*
X577051Y240504D01*
X577053Y240501D01*
X577051Y240500D01*
X577051Y236200D01*
X577053Y236198D01*
X577051Y236196D01*
X577078Y235852D01*
X577082Y235848D01*
X577079Y235844D01*
X577160Y235508D01*
X577165Y235505D01*
X577163Y235501D01*
X577295Y235182D01*
X577300Y235179D01*
X577298Y235175D01*
X577478Y234881D01*
X577483Y234879D01*
X577483Y234875D01*
X577707Y234612D01*
X577712Y234611D01*
X577712Y234607D01*
X577975Y234383D01*
X577981Y234382D01*
X577981Y234378D01*
X578275Y234198D01*
X578281Y234199D01*
X578282Y234195D01*
X578601Y234063D01*
X578607Y234064D01*
X578608Y234060D01*
X578944Y233979D01*
X578950Y233981D01*
X578952Y233978D01*
X579296Y233951D01*
X579299Y233953D01*
X579300Y233951D01*
X589444Y233978D01*
G37*
G36*
X564044Y233978D02*
X564044Y233978D01*
X564051Y233983D01*
X564056Y233979D01*
X564392Y234060D01*
X564395Y234065D01*
X564399Y234063D01*
X564718Y234195D01*
X564721Y234200D01*
X564725Y234198D01*
X565019Y234378D01*
X565021Y234383D01*
X565025Y234383D01*
X565288Y234607D01*
X565289Y234612D01*
X565294Y234612D01*
X565518Y234875D01*
X565518Y234881D01*
X565522Y234881D01*
X565702Y235175D01*
X565701Y235181D01*
X565706Y235182D01*
X565838Y235501D01*
X565836Y235507D01*
X565840Y235508D01*
X565921Y235844D01*
X565919Y235850D01*
X565922Y235852D01*
X565949Y236196D01*
X565948Y236199D01*
X565949Y236200D01*
X565949Y240500D01*
X565947Y240502D01*
X565949Y240504D01*
X565922Y240848D01*
X565918Y240852D01*
X565921Y240856D01*
X565840Y241192D01*
X565835Y241195D01*
X565838Y241199D01*
X565706Y241518D01*
X565700Y241521D01*
X565702Y241525D01*
X565522Y241819D01*
X565517Y241821D01*
X565518Y241825D01*
X565294Y242088D01*
X565288Y242089D01*
X565288Y242094D01*
X565025Y242318D01*
X565019Y242318D01*
X565019Y242322D01*
X564725Y242502D01*
X564719Y242501D01*
X564718Y242506D01*
X564399Y242638D01*
X564393Y242636D01*
X564392Y242640D01*
X564056Y242721D01*
X564050Y242719D01*
X564048Y242722D01*
X563704Y242749D01*
X563701Y242747D01*
X563700Y242749D01*
X553556Y242722D01*
X553549Y242717D01*
X553544Y242721D01*
X553208Y242640D01*
X553205Y242635D01*
X553201Y242638D01*
X552882Y242506D01*
X552879Y242500D01*
X552875Y242502D01*
X552581Y242322D01*
X552579Y242317D01*
X552575Y242318D01*
X552312Y242094D01*
X552311Y242088D01*
X552307Y242088D01*
X552083Y241825D01*
X552082Y241819D01*
X552078Y241819D01*
X551898Y241525D01*
X551899Y241519D01*
X551895Y241518D01*
X551763Y241199D01*
X551764Y241193D01*
X551760Y241192D01*
X551679Y240856D01*
X551681Y240850D01*
X551678Y240848D01*
X551651Y240504D01*
X551653Y240501D01*
X551651Y240500D01*
X551651Y236200D01*
X551653Y236198D01*
X551651Y236196D01*
X551678Y235852D01*
X551682Y235848D01*
X551679Y235844D01*
X551760Y235508D01*
X551765Y235505D01*
X551763Y235501D01*
X551895Y235182D01*
X551900Y235179D01*
X551898Y235175D01*
X552078Y234881D01*
X552083Y234879D01*
X552083Y234875D01*
X552307Y234612D01*
X552312Y234611D01*
X552312Y234607D01*
X552575Y234383D01*
X552581Y234382D01*
X552581Y234378D01*
X552875Y234198D01*
X552881Y234199D01*
X552882Y234195D01*
X553201Y234063D01*
X553207Y234064D01*
X553208Y234060D01*
X553544Y233979D01*
X553550Y233981D01*
X553552Y233978D01*
X553896Y233951D01*
X553899Y233953D01*
X553900Y233951D01*
X564044Y233978D01*
G37*
G36*
X132244Y221278D02*
X132244Y221278D01*
X132251Y221283D01*
X132256Y221279D01*
X132592Y221360D01*
X132595Y221365D01*
X132599Y221363D01*
X132918Y221495D01*
X132921Y221500D01*
X132925Y221498D01*
X133219Y221678D01*
X133221Y221683D01*
X133225Y221683D01*
X133488Y221907D01*
X133489Y221912D01*
X133494Y221912D01*
X133718Y222175D01*
X133718Y222181D01*
X133722Y222181D01*
X133902Y222475D01*
X133901Y222481D01*
X133906Y222482D01*
X134038Y222801D01*
X134036Y222807D01*
X134040Y222808D01*
X134121Y223144D01*
X134119Y223150D01*
X134122Y223152D01*
X134149Y223496D01*
X134148Y223499D01*
X134149Y223500D01*
X134149Y227800D01*
X134147Y227802D01*
X134149Y227804D01*
X134122Y228148D01*
X134118Y228152D01*
X134121Y228156D01*
X134040Y228492D01*
X134035Y228495D01*
X134038Y228499D01*
X133906Y228818D01*
X133900Y228821D01*
X133902Y228825D01*
X133722Y229119D01*
X133717Y229121D01*
X133718Y229125D01*
X133494Y229388D01*
X133488Y229389D01*
X133488Y229394D01*
X133225Y229618D01*
X133219Y229618D01*
X133219Y229622D01*
X132925Y229802D01*
X132919Y229801D01*
X132918Y229806D01*
X132599Y229938D01*
X132593Y229936D01*
X132592Y229940D01*
X132256Y230021D01*
X132250Y230019D01*
X132248Y230022D01*
X131904Y230049D01*
X131901Y230047D01*
X131900Y230049D01*
X121756Y230022D01*
X121749Y230017D01*
X121744Y230021D01*
X121408Y229940D01*
X121405Y229935D01*
X121401Y229938D01*
X121082Y229806D01*
X121079Y229800D01*
X121075Y229802D01*
X120781Y229622D01*
X120779Y229617D01*
X120775Y229618D01*
X120512Y229394D01*
X120511Y229388D01*
X120507Y229388D01*
X120283Y229125D01*
X120282Y229119D01*
X120278Y229119D01*
X120098Y228825D01*
X120099Y228819D01*
X120095Y228818D01*
X119963Y228499D01*
X119964Y228493D01*
X119960Y228492D01*
X119879Y228156D01*
X119881Y228150D01*
X119878Y228148D01*
X119851Y227804D01*
X119853Y227801D01*
X119851Y227800D01*
X119851Y223500D01*
X119853Y223498D01*
X119851Y223496D01*
X119878Y223152D01*
X119882Y223148D01*
X119879Y223144D01*
X119960Y222808D01*
X119965Y222805D01*
X119963Y222801D01*
X120095Y222482D01*
X120100Y222479D01*
X120098Y222475D01*
X120278Y222181D01*
X120283Y222179D01*
X120283Y222175D01*
X120507Y221912D01*
X120512Y221911D01*
X120512Y221907D01*
X120775Y221683D01*
X120781Y221682D01*
X120781Y221678D01*
X121075Y221498D01*
X121081Y221499D01*
X121082Y221495D01*
X121401Y221363D01*
X121407Y221364D01*
X121408Y221360D01*
X121744Y221279D01*
X121750Y221281D01*
X121752Y221278D01*
X122096Y221251D01*
X122099Y221253D01*
X122100Y221251D01*
X132244Y221278D01*
G37*
G36*
X119402Y323053D02*
X119402Y323053D01*
X119404Y323051D01*
X119748Y323078D01*
X119752Y323082D01*
X119756Y323079D01*
X120092Y323160D01*
X120095Y323165D01*
X120099Y323163D01*
X120418Y323295D01*
X120421Y323300D01*
X120425Y323298D01*
X120719Y323478D01*
X120721Y323483D01*
X120725Y323483D01*
X120988Y323707D01*
X120989Y323712D01*
X120994Y323712D01*
X121218Y323975D01*
X121218Y323981D01*
X121222Y323981D01*
X121402Y324275D01*
X121401Y324281D01*
X121406Y324282D01*
X121538Y324601D01*
X121536Y324607D01*
X121540Y324608D01*
X121621Y324944D01*
X121619Y324950D01*
X121622Y324952D01*
X121649Y325296D01*
X121647Y325299D01*
X121649Y325300D01*
X121622Y335444D01*
X121617Y335451D01*
X121621Y335456D01*
X121540Y335792D01*
X121535Y335795D01*
X121538Y335799D01*
X121406Y336118D01*
X121400Y336121D01*
X121402Y336125D01*
X121222Y336419D01*
X121217Y336421D01*
X121218Y336425D01*
X120994Y336688D01*
X120988Y336689D01*
X120988Y336694D01*
X120725Y336918D01*
X120719Y336918D01*
X120719Y336922D01*
X120425Y337102D01*
X120419Y337101D01*
X120418Y337106D01*
X120099Y337238D01*
X120093Y337236D01*
X120092Y337240D01*
X119756Y337321D01*
X119750Y337319D01*
X119748Y337322D01*
X119404Y337349D01*
X119401Y337348D01*
X119400Y337349D01*
X115100Y337349D01*
X115098Y337347D01*
X115096Y337349D01*
X114752Y337322D01*
X114748Y337318D01*
X114744Y337321D01*
X114408Y337240D01*
X114405Y337235D01*
X114401Y337238D01*
X114082Y337106D01*
X114079Y337100D01*
X114075Y337102D01*
X113781Y336922D01*
X113779Y336917D01*
X113775Y336918D01*
X113512Y336694D01*
X113511Y336688D01*
X113507Y336688D01*
X113283Y336425D01*
X113282Y336419D01*
X113278Y336419D01*
X113098Y336125D01*
X113099Y336119D01*
X113095Y336118D01*
X112963Y335799D01*
X112964Y335793D01*
X112960Y335792D01*
X112879Y335456D01*
X112881Y335450D01*
X112878Y335448D01*
X112851Y335104D01*
X112853Y335101D01*
X112851Y335100D01*
X112878Y324956D01*
X112883Y324949D01*
X112879Y324944D01*
X112960Y324608D01*
X112965Y324605D01*
X112963Y324601D01*
X113095Y324282D01*
X113100Y324279D01*
X113098Y324275D01*
X113278Y323981D01*
X113283Y323979D01*
X113283Y323975D01*
X113507Y323712D01*
X113512Y323711D01*
X113512Y323707D01*
X113775Y323483D01*
X113781Y323482D01*
X113781Y323478D01*
X114075Y323298D01*
X114081Y323299D01*
X114082Y323295D01*
X114401Y323163D01*
X114407Y323164D01*
X114408Y323160D01*
X114744Y323079D01*
X114750Y323081D01*
X114752Y323078D01*
X115096Y323051D01*
X115099Y323053D01*
X115100Y323051D01*
X119400Y323051D01*
X119402Y323053D01*
G37*
G36*
X138902Y323053D02*
X138902Y323053D01*
X138904Y323051D01*
X139248Y323078D01*
X139252Y323082D01*
X139256Y323079D01*
X139592Y323160D01*
X139595Y323165D01*
X139599Y323163D01*
X139918Y323295D01*
X139921Y323300D01*
X139925Y323298D01*
X140219Y323478D01*
X140221Y323483D01*
X140225Y323483D01*
X140488Y323707D01*
X140489Y323712D01*
X140494Y323712D01*
X140718Y323975D01*
X140718Y323981D01*
X140722Y323981D01*
X140902Y324275D01*
X140901Y324281D01*
X140906Y324282D01*
X141038Y324601D01*
X141036Y324607D01*
X141040Y324608D01*
X141121Y324944D01*
X141119Y324950D01*
X141122Y324952D01*
X141149Y325296D01*
X141147Y325299D01*
X141149Y325300D01*
X141122Y335444D01*
X141117Y335451D01*
X141121Y335456D01*
X141040Y335792D01*
X141035Y335795D01*
X141038Y335799D01*
X140906Y336118D01*
X140900Y336121D01*
X140902Y336125D01*
X140722Y336419D01*
X140717Y336421D01*
X140718Y336425D01*
X140494Y336688D01*
X140488Y336689D01*
X140488Y336694D01*
X140225Y336918D01*
X140219Y336918D01*
X140219Y336922D01*
X139925Y337102D01*
X139919Y337101D01*
X139918Y337106D01*
X139599Y337238D01*
X139593Y337236D01*
X139592Y337240D01*
X139256Y337321D01*
X139250Y337319D01*
X139248Y337322D01*
X138904Y337349D01*
X138901Y337348D01*
X138900Y337349D01*
X134600Y337349D01*
X134598Y337347D01*
X134596Y337349D01*
X134252Y337322D01*
X134248Y337318D01*
X134244Y337321D01*
X133908Y337240D01*
X133905Y337235D01*
X133901Y337238D01*
X133582Y337106D01*
X133579Y337100D01*
X133575Y337102D01*
X133281Y336922D01*
X133279Y336917D01*
X133275Y336918D01*
X133012Y336694D01*
X133011Y336688D01*
X133007Y336688D01*
X132783Y336425D01*
X132782Y336419D01*
X132778Y336419D01*
X132598Y336125D01*
X132599Y336119D01*
X132595Y336118D01*
X132463Y335799D01*
X132464Y335793D01*
X132460Y335792D01*
X132379Y335456D01*
X132381Y335450D01*
X132378Y335448D01*
X132351Y335104D01*
X132353Y335101D01*
X132351Y335100D01*
X132378Y324956D01*
X132383Y324949D01*
X132379Y324944D01*
X132460Y324608D01*
X132465Y324605D01*
X132463Y324601D01*
X132595Y324282D01*
X132600Y324279D01*
X132598Y324275D01*
X132778Y323981D01*
X132783Y323979D01*
X132783Y323975D01*
X133007Y323712D01*
X133012Y323711D01*
X133012Y323707D01*
X133275Y323483D01*
X133281Y323482D01*
X133281Y323478D01*
X133575Y323298D01*
X133581Y323299D01*
X133582Y323295D01*
X133901Y323163D01*
X133907Y323164D01*
X133908Y323160D01*
X134244Y323079D01*
X134250Y323081D01*
X134252Y323078D01*
X134596Y323051D01*
X134599Y323053D01*
X134600Y323051D01*
X138900Y323051D01*
X138902Y323053D01*
G37*
G36*
X304002Y234153D02*
X304002Y234153D01*
X304004Y234151D01*
X304348Y234178D01*
X304352Y234182D01*
X304356Y234179D01*
X304692Y234260D01*
X304695Y234265D01*
X304699Y234263D01*
X305018Y234395D01*
X305021Y234400D01*
X305025Y234398D01*
X305319Y234578D01*
X305321Y234583D01*
X305325Y234583D01*
X305588Y234807D01*
X305589Y234812D01*
X305594Y234812D01*
X305818Y235075D01*
X305818Y235081D01*
X305822Y235081D01*
X306002Y235375D01*
X306001Y235381D01*
X306006Y235382D01*
X306138Y235701D01*
X306136Y235707D01*
X306140Y235708D01*
X306221Y236044D01*
X306219Y236050D01*
X306222Y236052D01*
X306249Y236396D01*
X306247Y236399D01*
X306249Y236400D01*
X306222Y246544D01*
X306217Y246551D01*
X306221Y246556D01*
X306140Y246892D01*
X306135Y246895D01*
X306138Y246899D01*
X306006Y247218D01*
X306000Y247221D01*
X306002Y247225D01*
X305822Y247519D01*
X305817Y247521D01*
X305818Y247525D01*
X305594Y247788D01*
X305588Y247789D01*
X305588Y247794D01*
X305325Y248018D01*
X305319Y248018D01*
X305319Y248022D01*
X305025Y248202D01*
X305019Y248201D01*
X305018Y248206D01*
X304699Y248338D01*
X304693Y248336D01*
X304692Y248340D01*
X304356Y248421D01*
X304350Y248419D01*
X304348Y248422D01*
X304004Y248449D01*
X304001Y248448D01*
X304000Y248449D01*
X299700Y248449D01*
X299698Y248447D01*
X299696Y248449D01*
X299352Y248422D01*
X299348Y248418D01*
X299344Y248421D01*
X299008Y248340D01*
X299005Y248335D01*
X299001Y248338D01*
X298682Y248206D01*
X298679Y248200D01*
X298675Y248202D01*
X298381Y248022D01*
X298379Y248017D01*
X298375Y248018D01*
X298112Y247794D01*
X298111Y247788D01*
X298107Y247788D01*
X297883Y247525D01*
X297882Y247519D01*
X297878Y247519D01*
X297698Y247225D01*
X297699Y247219D01*
X297695Y247218D01*
X297563Y246899D01*
X297564Y246893D01*
X297560Y246892D01*
X297479Y246556D01*
X297481Y246550D01*
X297478Y246548D01*
X297451Y246204D01*
X297453Y246201D01*
X297451Y246200D01*
X297478Y236056D01*
X297483Y236049D01*
X297479Y236044D01*
X297560Y235708D01*
X297565Y235705D01*
X297563Y235701D01*
X297695Y235382D01*
X297700Y235379D01*
X297698Y235375D01*
X297878Y235081D01*
X297883Y235079D01*
X297883Y235075D01*
X298107Y234812D01*
X298112Y234811D01*
X298112Y234807D01*
X298375Y234583D01*
X298381Y234582D01*
X298381Y234578D01*
X298675Y234398D01*
X298681Y234399D01*
X298682Y234395D01*
X299001Y234263D01*
X299007Y234264D01*
X299008Y234260D01*
X299344Y234179D01*
X299350Y234181D01*
X299352Y234178D01*
X299696Y234151D01*
X299699Y234153D01*
X299700Y234151D01*
X304000Y234151D01*
X304002Y234153D01*
G37*
G36*
X360702Y234153D02*
X360702Y234153D01*
X360704Y234151D01*
X361048Y234178D01*
X361052Y234182D01*
X361056Y234179D01*
X361392Y234260D01*
X361395Y234265D01*
X361399Y234263D01*
X361718Y234395D01*
X361721Y234400D01*
X361725Y234398D01*
X362019Y234578D01*
X362021Y234583D01*
X362025Y234583D01*
X362288Y234807D01*
X362289Y234812D01*
X362294Y234812D01*
X362518Y235075D01*
X362518Y235081D01*
X362522Y235081D01*
X362702Y235375D01*
X362701Y235381D01*
X362706Y235382D01*
X362838Y235701D01*
X362836Y235707D01*
X362840Y235708D01*
X362921Y236044D01*
X362919Y236050D01*
X362922Y236052D01*
X362949Y236396D01*
X362947Y236399D01*
X362949Y236400D01*
X362922Y246544D01*
X362917Y246551D01*
X362921Y246556D01*
X362840Y246892D01*
X362835Y246895D01*
X362838Y246899D01*
X362706Y247218D01*
X362700Y247221D01*
X362702Y247225D01*
X362522Y247519D01*
X362517Y247521D01*
X362518Y247525D01*
X362294Y247788D01*
X362288Y247789D01*
X362288Y247794D01*
X362025Y248018D01*
X362019Y248018D01*
X362019Y248022D01*
X361725Y248202D01*
X361719Y248201D01*
X361718Y248206D01*
X361399Y248338D01*
X361393Y248336D01*
X361392Y248340D01*
X361056Y248421D01*
X361050Y248419D01*
X361048Y248422D01*
X360704Y248449D01*
X360701Y248448D01*
X360700Y248449D01*
X356400Y248449D01*
X356398Y248447D01*
X356396Y248449D01*
X356052Y248422D01*
X356048Y248418D01*
X356044Y248421D01*
X355708Y248340D01*
X355705Y248335D01*
X355701Y248338D01*
X355382Y248206D01*
X355379Y248200D01*
X355375Y248202D01*
X355081Y248022D01*
X355079Y248017D01*
X355075Y248018D01*
X354812Y247794D01*
X354811Y247788D01*
X354807Y247788D01*
X354583Y247525D01*
X354582Y247519D01*
X354578Y247519D01*
X354398Y247225D01*
X354399Y247219D01*
X354395Y247218D01*
X354263Y246899D01*
X354264Y246893D01*
X354260Y246892D01*
X354179Y246556D01*
X354181Y246550D01*
X354178Y246548D01*
X354151Y246204D01*
X354153Y246201D01*
X354151Y246200D01*
X354178Y236056D01*
X354183Y236049D01*
X354179Y236044D01*
X354260Y235708D01*
X354265Y235705D01*
X354263Y235701D01*
X354395Y235382D01*
X354400Y235379D01*
X354398Y235375D01*
X354578Y235081D01*
X354583Y235079D01*
X354583Y235075D01*
X354807Y234812D01*
X354812Y234811D01*
X354812Y234807D01*
X355075Y234583D01*
X355081Y234582D01*
X355081Y234578D01*
X355375Y234398D01*
X355381Y234399D01*
X355382Y234395D01*
X355701Y234263D01*
X355707Y234264D01*
X355708Y234260D01*
X356044Y234179D01*
X356050Y234181D01*
X356052Y234178D01*
X356396Y234151D01*
X356399Y234153D01*
X356400Y234151D01*
X360700Y234151D01*
X360702Y234153D01*
G37*
G36*
X284502Y234153D02*
X284502Y234153D01*
X284504Y234151D01*
X284848Y234178D01*
X284852Y234182D01*
X284856Y234179D01*
X285192Y234260D01*
X285195Y234265D01*
X285199Y234263D01*
X285518Y234395D01*
X285521Y234400D01*
X285525Y234398D01*
X285819Y234578D01*
X285821Y234583D01*
X285825Y234583D01*
X286088Y234807D01*
X286089Y234812D01*
X286094Y234812D01*
X286318Y235075D01*
X286318Y235081D01*
X286322Y235081D01*
X286502Y235375D01*
X286501Y235381D01*
X286506Y235382D01*
X286638Y235701D01*
X286636Y235707D01*
X286640Y235708D01*
X286721Y236044D01*
X286719Y236050D01*
X286722Y236052D01*
X286749Y236396D01*
X286747Y236399D01*
X286749Y236400D01*
X286722Y246544D01*
X286717Y246551D01*
X286721Y246556D01*
X286640Y246892D01*
X286635Y246895D01*
X286638Y246899D01*
X286506Y247218D01*
X286500Y247221D01*
X286502Y247225D01*
X286322Y247519D01*
X286317Y247521D01*
X286318Y247525D01*
X286094Y247788D01*
X286088Y247789D01*
X286088Y247794D01*
X285825Y248018D01*
X285819Y248018D01*
X285819Y248022D01*
X285525Y248202D01*
X285519Y248201D01*
X285518Y248206D01*
X285199Y248338D01*
X285193Y248336D01*
X285192Y248340D01*
X284856Y248421D01*
X284850Y248419D01*
X284848Y248422D01*
X284504Y248449D01*
X284501Y248448D01*
X284500Y248449D01*
X280200Y248449D01*
X280198Y248447D01*
X280196Y248449D01*
X279852Y248422D01*
X279848Y248418D01*
X279844Y248421D01*
X279508Y248340D01*
X279505Y248335D01*
X279501Y248338D01*
X279182Y248206D01*
X279179Y248200D01*
X279175Y248202D01*
X278881Y248022D01*
X278879Y248017D01*
X278875Y248018D01*
X278612Y247794D01*
X278611Y247788D01*
X278607Y247788D01*
X278383Y247525D01*
X278382Y247519D01*
X278378Y247519D01*
X278198Y247225D01*
X278199Y247219D01*
X278195Y247218D01*
X278063Y246899D01*
X278064Y246893D01*
X278060Y246892D01*
X277979Y246556D01*
X277981Y246550D01*
X277978Y246548D01*
X277951Y246204D01*
X277953Y246201D01*
X277951Y246200D01*
X277978Y236056D01*
X277983Y236049D01*
X277979Y236044D01*
X278060Y235708D01*
X278065Y235705D01*
X278063Y235701D01*
X278195Y235382D01*
X278200Y235379D01*
X278198Y235375D01*
X278378Y235081D01*
X278383Y235079D01*
X278383Y235075D01*
X278607Y234812D01*
X278612Y234811D01*
X278612Y234807D01*
X278875Y234583D01*
X278881Y234582D01*
X278881Y234578D01*
X279175Y234398D01*
X279181Y234399D01*
X279182Y234395D01*
X279501Y234263D01*
X279507Y234264D01*
X279508Y234260D01*
X279844Y234179D01*
X279850Y234181D01*
X279852Y234178D01*
X280196Y234151D01*
X280199Y234153D01*
X280200Y234151D01*
X284500Y234151D01*
X284502Y234153D01*
G37*
G36*
X227802Y234153D02*
X227802Y234153D01*
X227804Y234151D01*
X228148Y234178D01*
X228152Y234182D01*
X228156Y234179D01*
X228492Y234260D01*
X228495Y234265D01*
X228499Y234263D01*
X228818Y234395D01*
X228821Y234400D01*
X228825Y234398D01*
X229119Y234578D01*
X229121Y234583D01*
X229125Y234583D01*
X229388Y234807D01*
X229389Y234812D01*
X229394Y234812D01*
X229618Y235075D01*
X229618Y235081D01*
X229622Y235081D01*
X229802Y235375D01*
X229801Y235381D01*
X229806Y235382D01*
X229938Y235701D01*
X229936Y235707D01*
X229940Y235708D01*
X230021Y236044D01*
X230019Y236050D01*
X230022Y236052D01*
X230049Y236396D01*
X230047Y236399D01*
X230049Y236400D01*
X230022Y246544D01*
X230017Y246551D01*
X230021Y246556D01*
X229940Y246892D01*
X229935Y246895D01*
X229938Y246899D01*
X229806Y247218D01*
X229800Y247221D01*
X229802Y247225D01*
X229622Y247519D01*
X229617Y247521D01*
X229618Y247525D01*
X229394Y247788D01*
X229388Y247789D01*
X229388Y247794D01*
X229125Y248018D01*
X229119Y248018D01*
X229119Y248022D01*
X228825Y248202D01*
X228819Y248201D01*
X228818Y248206D01*
X228499Y248338D01*
X228493Y248336D01*
X228492Y248340D01*
X228156Y248421D01*
X228150Y248419D01*
X228148Y248422D01*
X227804Y248449D01*
X227801Y248448D01*
X227800Y248449D01*
X223500Y248449D01*
X223498Y248447D01*
X223496Y248449D01*
X223152Y248422D01*
X223148Y248418D01*
X223144Y248421D01*
X222808Y248340D01*
X222805Y248335D01*
X222801Y248338D01*
X222482Y248206D01*
X222479Y248200D01*
X222475Y248202D01*
X222181Y248022D01*
X222179Y248017D01*
X222175Y248018D01*
X221912Y247794D01*
X221911Y247788D01*
X221907Y247788D01*
X221683Y247525D01*
X221682Y247519D01*
X221678Y247519D01*
X221498Y247225D01*
X221499Y247219D01*
X221495Y247218D01*
X221363Y246899D01*
X221364Y246893D01*
X221360Y246892D01*
X221279Y246556D01*
X221281Y246550D01*
X221278Y246548D01*
X221251Y246204D01*
X221253Y246201D01*
X221251Y246200D01*
X221278Y236056D01*
X221283Y236049D01*
X221279Y236044D01*
X221360Y235708D01*
X221365Y235705D01*
X221363Y235701D01*
X221495Y235382D01*
X221500Y235379D01*
X221498Y235375D01*
X221678Y235081D01*
X221683Y235079D01*
X221683Y235075D01*
X221907Y234812D01*
X221912Y234811D01*
X221912Y234807D01*
X222175Y234583D01*
X222181Y234582D01*
X222181Y234578D01*
X222475Y234398D01*
X222481Y234399D01*
X222482Y234395D01*
X222801Y234263D01*
X222807Y234264D01*
X222808Y234260D01*
X223144Y234179D01*
X223150Y234181D01*
X223152Y234178D01*
X223496Y234151D01*
X223499Y234153D01*
X223500Y234151D01*
X227800Y234151D01*
X227802Y234153D01*
G37*
G36*
X208302Y234153D02*
X208302Y234153D01*
X208304Y234151D01*
X208648Y234178D01*
X208652Y234182D01*
X208656Y234179D01*
X208992Y234260D01*
X208995Y234265D01*
X208999Y234263D01*
X209318Y234395D01*
X209321Y234400D01*
X209325Y234398D01*
X209619Y234578D01*
X209621Y234583D01*
X209625Y234583D01*
X209888Y234807D01*
X209889Y234812D01*
X209894Y234812D01*
X210118Y235075D01*
X210118Y235081D01*
X210122Y235081D01*
X210302Y235375D01*
X210301Y235381D01*
X210306Y235382D01*
X210438Y235701D01*
X210436Y235707D01*
X210440Y235708D01*
X210521Y236044D01*
X210519Y236050D01*
X210522Y236052D01*
X210549Y236396D01*
X210547Y236399D01*
X210549Y236400D01*
X210522Y246544D01*
X210517Y246551D01*
X210521Y246556D01*
X210440Y246892D01*
X210435Y246895D01*
X210438Y246899D01*
X210306Y247218D01*
X210300Y247221D01*
X210302Y247225D01*
X210122Y247519D01*
X210117Y247521D01*
X210118Y247525D01*
X209894Y247788D01*
X209888Y247789D01*
X209888Y247794D01*
X209625Y248018D01*
X209619Y248018D01*
X209619Y248022D01*
X209325Y248202D01*
X209319Y248201D01*
X209318Y248206D01*
X208999Y248338D01*
X208993Y248336D01*
X208992Y248340D01*
X208656Y248421D01*
X208650Y248419D01*
X208648Y248422D01*
X208304Y248449D01*
X208301Y248448D01*
X208300Y248449D01*
X204000Y248449D01*
X203998Y248447D01*
X203996Y248449D01*
X203652Y248422D01*
X203648Y248418D01*
X203644Y248421D01*
X203308Y248340D01*
X203305Y248335D01*
X203301Y248338D01*
X202982Y248206D01*
X202979Y248200D01*
X202975Y248202D01*
X202681Y248022D01*
X202679Y248017D01*
X202675Y248018D01*
X202412Y247794D01*
X202411Y247788D01*
X202407Y247788D01*
X202183Y247525D01*
X202182Y247519D01*
X202178Y247519D01*
X201998Y247225D01*
X201999Y247219D01*
X201995Y247218D01*
X201863Y246899D01*
X201864Y246893D01*
X201860Y246892D01*
X201779Y246556D01*
X201781Y246550D01*
X201778Y246548D01*
X201751Y246204D01*
X201753Y246201D01*
X201751Y246200D01*
X201778Y236056D01*
X201783Y236049D01*
X201779Y236044D01*
X201860Y235708D01*
X201865Y235705D01*
X201863Y235701D01*
X201995Y235382D01*
X202000Y235379D01*
X201998Y235375D01*
X202178Y235081D01*
X202183Y235079D01*
X202183Y235075D01*
X202407Y234812D01*
X202412Y234811D01*
X202412Y234807D01*
X202675Y234583D01*
X202681Y234582D01*
X202681Y234578D01*
X202975Y234398D01*
X202981Y234399D01*
X202982Y234395D01*
X203301Y234263D01*
X203307Y234264D01*
X203308Y234260D01*
X203644Y234179D01*
X203650Y234181D01*
X203652Y234178D01*
X203996Y234151D01*
X203999Y234153D01*
X204000Y234151D01*
X208300Y234151D01*
X208302Y234153D01*
G37*
G36*
X342102Y234153D02*
X342102Y234153D01*
X342104Y234151D01*
X342448Y234178D01*
X342452Y234182D01*
X342456Y234179D01*
X342792Y234260D01*
X342795Y234265D01*
X342799Y234263D01*
X343118Y234395D01*
X343121Y234400D01*
X343125Y234398D01*
X343419Y234578D01*
X343421Y234583D01*
X343425Y234583D01*
X343688Y234807D01*
X343689Y234812D01*
X343694Y234812D01*
X343918Y235075D01*
X343918Y235081D01*
X343922Y235081D01*
X344102Y235375D01*
X344101Y235381D01*
X344106Y235382D01*
X344238Y235701D01*
X344236Y235707D01*
X344240Y235708D01*
X344321Y236044D01*
X344319Y236050D01*
X344322Y236052D01*
X344349Y236396D01*
X344347Y236399D01*
X344349Y236400D01*
X344322Y246544D01*
X344317Y246551D01*
X344321Y246556D01*
X344240Y246892D01*
X344235Y246895D01*
X344238Y246899D01*
X344106Y247218D01*
X344100Y247221D01*
X344102Y247225D01*
X343922Y247519D01*
X343917Y247521D01*
X343918Y247525D01*
X343694Y247788D01*
X343688Y247789D01*
X343688Y247794D01*
X343425Y248018D01*
X343419Y248018D01*
X343419Y248022D01*
X343125Y248202D01*
X343119Y248201D01*
X343118Y248206D01*
X342799Y248338D01*
X342793Y248336D01*
X342792Y248340D01*
X342456Y248421D01*
X342450Y248419D01*
X342448Y248422D01*
X342104Y248449D01*
X342101Y248448D01*
X342100Y248449D01*
X337800Y248449D01*
X337798Y248447D01*
X337796Y248449D01*
X337452Y248422D01*
X337448Y248418D01*
X337444Y248421D01*
X337108Y248340D01*
X337105Y248335D01*
X337101Y248338D01*
X336782Y248206D01*
X336779Y248200D01*
X336775Y248202D01*
X336481Y248022D01*
X336479Y248017D01*
X336475Y248018D01*
X336212Y247794D01*
X336211Y247788D01*
X336207Y247788D01*
X335983Y247525D01*
X335982Y247519D01*
X335978Y247519D01*
X335798Y247225D01*
X335799Y247219D01*
X335795Y247218D01*
X335663Y246899D01*
X335664Y246893D01*
X335660Y246892D01*
X335579Y246556D01*
X335581Y246550D01*
X335578Y246548D01*
X335551Y246204D01*
X335553Y246201D01*
X335551Y246200D01*
X335578Y236056D01*
X335583Y236049D01*
X335579Y236044D01*
X335660Y235708D01*
X335665Y235705D01*
X335663Y235701D01*
X335795Y235382D01*
X335800Y235379D01*
X335798Y235375D01*
X335978Y235081D01*
X335983Y235079D01*
X335983Y235075D01*
X336207Y234812D01*
X336212Y234811D01*
X336212Y234807D01*
X336475Y234583D01*
X336481Y234582D01*
X336481Y234578D01*
X336775Y234398D01*
X336781Y234399D01*
X336782Y234395D01*
X337101Y234263D01*
X337107Y234264D01*
X337108Y234260D01*
X337444Y234179D01*
X337450Y234181D01*
X337452Y234178D01*
X337796Y234151D01*
X337799Y234153D01*
X337800Y234151D01*
X342100Y234151D01*
X342102Y234153D01*
G37*
G36*
X322602Y234153D02*
X322602Y234153D01*
X322604Y234151D01*
X322948Y234178D01*
X322952Y234182D01*
X322956Y234179D01*
X323292Y234260D01*
X323295Y234265D01*
X323299Y234263D01*
X323618Y234395D01*
X323621Y234400D01*
X323625Y234398D01*
X323919Y234578D01*
X323921Y234583D01*
X323925Y234583D01*
X324188Y234807D01*
X324189Y234812D01*
X324194Y234812D01*
X324418Y235075D01*
X324418Y235081D01*
X324422Y235081D01*
X324602Y235375D01*
X324601Y235381D01*
X324606Y235382D01*
X324738Y235701D01*
X324736Y235707D01*
X324740Y235708D01*
X324821Y236044D01*
X324819Y236050D01*
X324822Y236052D01*
X324849Y236396D01*
X324847Y236399D01*
X324849Y236400D01*
X324822Y246544D01*
X324817Y246551D01*
X324821Y246556D01*
X324740Y246892D01*
X324735Y246895D01*
X324738Y246899D01*
X324606Y247218D01*
X324600Y247221D01*
X324602Y247225D01*
X324422Y247519D01*
X324417Y247521D01*
X324418Y247525D01*
X324194Y247788D01*
X324188Y247789D01*
X324188Y247794D01*
X323925Y248018D01*
X323919Y248018D01*
X323919Y248022D01*
X323625Y248202D01*
X323619Y248201D01*
X323618Y248206D01*
X323299Y248338D01*
X323293Y248336D01*
X323292Y248340D01*
X322956Y248421D01*
X322950Y248419D01*
X322948Y248422D01*
X322604Y248449D01*
X322601Y248448D01*
X322600Y248449D01*
X318300Y248449D01*
X318298Y248447D01*
X318296Y248449D01*
X317952Y248422D01*
X317948Y248418D01*
X317944Y248421D01*
X317608Y248340D01*
X317605Y248335D01*
X317601Y248338D01*
X317282Y248206D01*
X317279Y248200D01*
X317275Y248202D01*
X316981Y248022D01*
X316979Y248017D01*
X316975Y248018D01*
X316712Y247794D01*
X316711Y247788D01*
X316707Y247788D01*
X316483Y247525D01*
X316482Y247519D01*
X316478Y247519D01*
X316298Y247225D01*
X316299Y247219D01*
X316295Y247218D01*
X316163Y246899D01*
X316164Y246893D01*
X316160Y246892D01*
X316079Y246556D01*
X316081Y246550D01*
X316078Y246548D01*
X316051Y246204D01*
X316053Y246201D01*
X316051Y246200D01*
X316078Y236056D01*
X316083Y236049D01*
X316079Y236044D01*
X316160Y235708D01*
X316165Y235705D01*
X316163Y235701D01*
X316295Y235382D01*
X316300Y235379D01*
X316298Y235375D01*
X316478Y235081D01*
X316483Y235079D01*
X316483Y235075D01*
X316707Y234812D01*
X316712Y234811D01*
X316712Y234807D01*
X316975Y234583D01*
X316981Y234582D01*
X316981Y234578D01*
X317275Y234398D01*
X317281Y234399D01*
X317282Y234395D01*
X317601Y234263D01*
X317607Y234264D01*
X317608Y234260D01*
X317944Y234179D01*
X317950Y234181D01*
X317952Y234178D01*
X318296Y234151D01*
X318299Y234153D01*
X318300Y234151D01*
X322600Y234151D01*
X322602Y234153D01*
G37*
G36*
X380202Y234153D02*
X380202Y234153D01*
X380204Y234151D01*
X380548Y234178D01*
X380552Y234182D01*
X380556Y234179D01*
X380892Y234260D01*
X380895Y234265D01*
X380899Y234263D01*
X381218Y234395D01*
X381221Y234400D01*
X381225Y234398D01*
X381519Y234578D01*
X381521Y234583D01*
X381525Y234583D01*
X381788Y234807D01*
X381789Y234812D01*
X381794Y234812D01*
X382018Y235075D01*
X382018Y235081D01*
X382022Y235081D01*
X382202Y235375D01*
X382201Y235381D01*
X382206Y235382D01*
X382338Y235701D01*
X382336Y235707D01*
X382340Y235708D01*
X382421Y236044D01*
X382419Y236050D01*
X382422Y236052D01*
X382449Y236396D01*
X382447Y236399D01*
X382449Y236400D01*
X382422Y246544D01*
X382417Y246551D01*
X382421Y246556D01*
X382340Y246892D01*
X382335Y246895D01*
X382338Y246899D01*
X382206Y247218D01*
X382200Y247221D01*
X382202Y247225D01*
X382022Y247519D01*
X382017Y247521D01*
X382018Y247525D01*
X381794Y247788D01*
X381788Y247789D01*
X381788Y247794D01*
X381525Y248018D01*
X381519Y248018D01*
X381519Y248022D01*
X381225Y248202D01*
X381219Y248201D01*
X381218Y248206D01*
X380899Y248338D01*
X380893Y248336D01*
X380892Y248340D01*
X380556Y248421D01*
X380550Y248419D01*
X380548Y248422D01*
X380204Y248449D01*
X380201Y248448D01*
X380200Y248449D01*
X375900Y248449D01*
X375898Y248447D01*
X375896Y248449D01*
X375552Y248422D01*
X375548Y248418D01*
X375544Y248421D01*
X375208Y248340D01*
X375205Y248335D01*
X375201Y248338D01*
X374882Y248206D01*
X374879Y248200D01*
X374875Y248202D01*
X374581Y248022D01*
X374579Y248017D01*
X374575Y248018D01*
X374312Y247794D01*
X374311Y247788D01*
X374307Y247788D01*
X374083Y247525D01*
X374082Y247519D01*
X374078Y247519D01*
X373898Y247225D01*
X373899Y247219D01*
X373895Y247218D01*
X373763Y246899D01*
X373764Y246893D01*
X373760Y246892D01*
X373679Y246556D01*
X373681Y246550D01*
X373678Y246548D01*
X373651Y246204D01*
X373653Y246201D01*
X373651Y246200D01*
X373678Y236056D01*
X373683Y236049D01*
X373679Y236044D01*
X373760Y235708D01*
X373765Y235705D01*
X373763Y235701D01*
X373895Y235382D01*
X373900Y235379D01*
X373898Y235375D01*
X374078Y235081D01*
X374083Y235079D01*
X374083Y235075D01*
X374307Y234812D01*
X374312Y234811D01*
X374312Y234807D01*
X374575Y234583D01*
X374581Y234582D01*
X374581Y234578D01*
X374875Y234398D01*
X374881Y234399D01*
X374882Y234395D01*
X375201Y234263D01*
X375207Y234264D01*
X375208Y234260D01*
X375544Y234179D01*
X375550Y234181D01*
X375552Y234178D01*
X375896Y234151D01*
X375899Y234153D01*
X375900Y234151D01*
X380200Y234151D01*
X380202Y234153D01*
G37*
G36*
X265902Y234153D02*
X265902Y234153D01*
X265904Y234151D01*
X266248Y234178D01*
X266252Y234182D01*
X266256Y234179D01*
X266592Y234260D01*
X266595Y234265D01*
X266599Y234263D01*
X266918Y234395D01*
X266921Y234400D01*
X266925Y234398D01*
X267219Y234578D01*
X267221Y234583D01*
X267225Y234583D01*
X267488Y234807D01*
X267489Y234812D01*
X267494Y234812D01*
X267718Y235075D01*
X267718Y235081D01*
X267722Y235081D01*
X267902Y235375D01*
X267901Y235381D01*
X267906Y235382D01*
X268038Y235701D01*
X268036Y235707D01*
X268040Y235708D01*
X268121Y236044D01*
X268119Y236050D01*
X268122Y236052D01*
X268149Y236396D01*
X268147Y236399D01*
X268149Y236400D01*
X268122Y246544D01*
X268117Y246551D01*
X268121Y246556D01*
X268040Y246892D01*
X268035Y246895D01*
X268038Y246899D01*
X267906Y247218D01*
X267900Y247221D01*
X267902Y247225D01*
X267722Y247519D01*
X267717Y247521D01*
X267718Y247525D01*
X267494Y247788D01*
X267488Y247789D01*
X267488Y247794D01*
X267225Y248018D01*
X267219Y248018D01*
X267219Y248022D01*
X266925Y248202D01*
X266919Y248201D01*
X266918Y248206D01*
X266599Y248338D01*
X266593Y248336D01*
X266592Y248340D01*
X266256Y248421D01*
X266250Y248419D01*
X266248Y248422D01*
X265904Y248449D01*
X265901Y248448D01*
X265900Y248449D01*
X261600Y248449D01*
X261598Y248447D01*
X261596Y248449D01*
X261252Y248422D01*
X261248Y248418D01*
X261244Y248421D01*
X260908Y248340D01*
X260905Y248335D01*
X260901Y248338D01*
X260582Y248206D01*
X260579Y248200D01*
X260575Y248202D01*
X260281Y248022D01*
X260279Y248017D01*
X260275Y248018D01*
X260012Y247794D01*
X260011Y247788D01*
X260007Y247788D01*
X259783Y247525D01*
X259782Y247519D01*
X259778Y247519D01*
X259598Y247225D01*
X259599Y247219D01*
X259595Y247218D01*
X259463Y246899D01*
X259464Y246893D01*
X259460Y246892D01*
X259379Y246556D01*
X259381Y246550D01*
X259378Y246548D01*
X259351Y246204D01*
X259353Y246201D01*
X259351Y246200D01*
X259378Y236056D01*
X259383Y236049D01*
X259379Y236044D01*
X259460Y235708D01*
X259465Y235705D01*
X259463Y235701D01*
X259595Y235382D01*
X259600Y235379D01*
X259598Y235375D01*
X259778Y235081D01*
X259783Y235079D01*
X259783Y235075D01*
X260007Y234812D01*
X260012Y234811D01*
X260012Y234807D01*
X260275Y234583D01*
X260281Y234582D01*
X260281Y234578D01*
X260575Y234398D01*
X260581Y234399D01*
X260582Y234395D01*
X260901Y234263D01*
X260907Y234264D01*
X260908Y234260D01*
X261244Y234179D01*
X261250Y234181D01*
X261252Y234178D01*
X261596Y234151D01*
X261599Y234153D01*
X261600Y234151D01*
X265900Y234151D01*
X265902Y234153D01*
G37*
G36*
X246402Y234153D02*
X246402Y234153D01*
X246404Y234151D01*
X246748Y234178D01*
X246752Y234182D01*
X246756Y234179D01*
X247092Y234260D01*
X247095Y234265D01*
X247099Y234263D01*
X247418Y234395D01*
X247421Y234400D01*
X247425Y234398D01*
X247719Y234578D01*
X247721Y234583D01*
X247725Y234583D01*
X247988Y234807D01*
X247989Y234812D01*
X247994Y234812D01*
X248218Y235075D01*
X248218Y235081D01*
X248222Y235081D01*
X248402Y235375D01*
X248401Y235381D01*
X248406Y235382D01*
X248538Y235701D01*
X248536Y235707D01*
X248540Y235708D01*
X248621Y236044D01*
X248619Y236050D01*
X248622Y236052D01*
X248649Y236396D01*
X248647Y236399D01*
X248649Y236400D01*
X248622Y246544D01*
X248617Y246551D01*
X248621Y246556D01*
X248540Y246892D01*
X248535Y246895D01*
X248538Y246899D01*
X248406Y247218D01*
X248400Y247221D01*
X248402Y247225D01*
X248222Y247519D01*
X248217Y247521D01*
X248218Y247525D01*
X247994Y247788D01*
X247988Y247789D01*
X247988Y247794D01*
X247725Y248018D01*
X247719Y248018D01*
X247719Y248022D01*
X247425Y248202D01*
X247419Y248201D01*
X247418Y248206D01*
X247099Y248338D01*
X247093Y248336D01*
X247092Y248340D01*
X246756Y248421D01*
X246750Y248419D01*
X246748Y248422D01*
X246404Y248449D01*
X246401Y248448D01*
X246400Y248449D01*
X242100Y248449D01*
X242098Y248447D01*
X242096Y248449D01*
X241752Y248422D01*
X241748Y248418D01*
X241744Y248421D01*
X241408Y248340D01*
X241405Y248335D01*
X241401Y248338D01*
X241082Y248206D01*
X241079Y248200D01*
X241075Y248202D01*
X240781Y248022D01*
X240779Y248017D01*
X240775Y248018D01*
X240512Y247794D01*
X240511Y247788D01*
X240507Y247788D01*
X240283Y247525D01*
X240282Y247519D01*
X240278Y247519D01*
X240098Y247225D01*
X240099Y247219D01*
X240095Y247218D01*
X239963Y246899D01*
X239964Y246893D01*
X239960Y246892D01*
X239879Y246556D01*
X239881Y246550D01*
X239878Y246548D01*
X239851Y246204D01*
X239853Y246201D01*
X239851Y246200D01*
X239878Y236056D01*
X239883Y236049D01*
X239879Y236044D01*
X239960Y235708D01*
X239965Y235705D01*
X239963Y235701D01*
X240095Y235382D01*
X240100Y235379D01*
X240098Y235375D01*
X240278Y235081D01*
X240283Y235079D01*
X240283Y235075D01*
X240507Y234812D01*
X240512Y234811D01*
X240512Y234807D01*
X240775Y234583D01*
X240781Y234582D01*
X240781Y234578D01*
X241075Y234398D01*
X241081Y234399D01*
X241082Y234395D01*
X241401Y234263D01*
X241407Y234264D01*
X241408Y234260D01*
X241744Y234179D01*
X241750Y234181D01*
X241752Y234178D01*
X242096Y234151D01*
X242099Y234153D01*
X242100Y234151D01*
X246400Y234151D01*
X246402Y234153D01*
G37*
G36*
X436902Y170653D02*
X436902Y170653D01*
X436904Y170651D01*
X437248Y170678D01*
X437252Y170682D01*
X437256Y170679D01*
X437592Y170760D01*
X437595Y170765D01*
X437599Y170763D01*
X437918Y170895D01*
X437921Y170900D01*
X437925Y170898D01*
X438219Y171078D01*
X438221Y171083D01*
X438225Y171083D01*
X438488Y171307D01*
X438489Y171312D01*
X438494Y171312D01*
X438718Y171575D01*
X438718Y171581D01*
X438722Y171581D01*
X438902Y171875D01*
X438901Y171881D01*
X438906Y171882D01*
X439038Y172201D01*
X439036Y172207D01*
X439040Y172208D01*
X439121Y172544D01*
X439119Y172550D01*
X439122Y172552D01*
X439149Y172896D01*
X439147Y172899D01*
X439149Y172900D01*
X439122Y183044D01*
X439117Y183051D01*
X439121Y183056D01*
X439040Y183392D01*
X439035Y183395D01*
X439038Y183399D01*
X438906Y183718D01*
X438900Y183721D01*
X438902Y183725D01*
X438722Y184019D01*
X438717Y184021D01*
X438718Y184025D01*
X438494Y184288D01*
X438488Y184289D01*
X438488Y184294D01*
X438225Y184518D01*
X438219Y184518D01*
X438219Y184522D01*
X437925Y184702D01*
X437919Y184701D01*
X437918Y184706D01*
X437599Y184838D01*
X437593Y184836D01*
X437592Y184840D01*
X437256Y184921D01*
X437250Y184919D01*
X437248Y184922D01*
X436904Y184949D01*
X436901Y184948D01*
X436900Y184949D01*
X432600Y184949D01*
X432598Y184947D01*
X432596Y184949D01*
X432252Y184922D01*
X432248Y184918D01*
X432244Y184921D01*
X431908Y184840D01*
X431905Y184835D01*
X431901Y184838D01*
X431582Y184706D01*
X431579Y184700D01*
X431575Y184702D01*
X431281Y184522D01*
X431279Y184517D01*
X431275Y184518D01*
X431012Y184294D01*
X431011Y184288D01*
X431007Y184288D01*
X430783Y184025D01*
X430782Y184019D01*
X430778Y184019D01*
X430598Y183725D01*
X430599Y183719D01*
X430595Y183718D01*
X430463Y183399D01*
X430464Y183393D01*
X430460Y183392D01*
X430379Y183056D01*
X430381Y183050D01*
X430378Y183048D01*
X430351Y182704D01*
X430353Y182701D01*
X430351Y182700D01*
X430378Y172556D01*
X430383Y172549D01*
X430379Y172544D01*
X430460Y172208D01*
X430465Y172205D01*
X430463Y172201D01*
X430595Y171882D01*
X430600Y171879D01*
X430598Y171875D01*
X430778Y171581D01*
X430783Y171579D01*
X430783Y171575D01*
X431007Y171312D01*
X431012Y171311D01*
X431012Y171307D01*
X431275Y171083D01*
X431281Y171082D01*
X431281Y171078D01*
X431575Y170898D01*
X431581Y170899D01*
X431582Y170895D01*
X431901Y170763D01*
X431907Y170764D01*
X431908Y170760D01*
X432244Y170679D01*
X432250Y170681D01*
X432252Y170678D01*
X432596Y170651D01*
X432599Y170653D01*
X432600Y170651D01*
X436900Y170651D01*
X436902Y170653D01*
G37*
G36*
X456402Y170653D02*
X456402Y170653D01*
X456404Y170651D01*
X456748Y170678D01*
X456752Y170682D01*
X456756Y170679D01*
X457092Y170760D01*
X457095Y170765D01*
X457099Y170763D01*
X457418Y170895D01*
X457421Y170900D01*
X457425Y170898D01*
X457719Y171078D01*
X457721Y171083D01*
X457725Y171083D01*
X457988Y171307D01*
X457989Y171312D01*
X457994Y171312D01*
X458218Y171575D01*
X458218Y171581D01*
X458222Y171581D01*
X458402Y171875D01*
X458401Y171881D01*
X458406Y171882D01*
X458538Y172201D01*
X458536Y172207D01*
X458540Y172208D01*
X458621Y172544D01*
X458619Y172550D01*
X458622Y172552D01*
X458649Y172896D01*
X458647Y172899D01*
X458649Y172900D01*
X458622Y183044D01*
X458617Y183051D01*
X458621Y183056D01*
X458540Y183392D01*
X458535Y183395D01*
X458538Y183399D01*
X458406Y183718D01*
X458400Y183721D01*
X458402Y183725D01*
X458222Y184019D01*
X458217Y184021D01*
X458218Y184025D01*
X457994Y184288D01*
X457988Y184289D01*
X457988Y184294D01*
X457725Y184518D01*
X457719Y184518D01*
X457719Y184522D01*
X457425Y184702D01*
X457419Y184701D01*
X457418Y184706D01*
X457099Y184838D01*
X457093Y184836D01*
X457092Y184840D01*
X456756Y184921D01*
X456750Y184919D01*
X456748Y184922D01*
X456404Y184949D01*
X456401Y184948D01*
X456400Y184949D01*
X452100Y184949D01*
X452098Y184947D01*
X452096Y184949D01*
X451752Y184922D01*
X451748Y184918D01*
X451744Y184921D01*
X451408Y184840D01*
X451405Y184835D01*
X451401Y184838D01*
X451082Y184706D01*
X451079Y184700D01*
X451075Y184702D01*
X450781Y184522D01*
X450779Y184517D01*
X450775Y184518D01*
X450512Y184294D01*
X450511Y184288D01*
X450507Y184288D01*
X450283Y184025D01*
X450282Y184019D01*
X450278Y184019D01*
X450098Y183725D01*
X450099Y183719D01*
X450095Y183718D01*
X449963Y183399D01*
X449964Y183393D01*
X449960Y183392D01*
X449879Y183056D01*
X449881Y183050D01*
X449878Y183048D01*
X449851Y182704D01*
X449853Y182701D01*
X449851Y182700D01*
X449878Y172556D01*
X449883Y172549D01*
X449879Y172544D01*
X449960Y172208D01*
X449965Y172205D01*
X449963Y172201D01*
X450095Y171882D01*
X450100Y171879D01*
X450098Y171875D01*
X450278Y171581D01*
X450283Y171579D01*
X450283Y171575D01*
X450507Y171312D01*
X450512Y171311D01*
X450512Y171307D01*
X450775Y171083D01*
X450781Y171082D01*
X450781Y171078D01*
X451075Y170898D01*
X451081Y170899D01*
X451082Y170895D01*
X451401Y170763D01*
X451407Y170764D01*
X451408Y170760D01*
X451744Y170679D01*
X451750Y170681D01*
X451752Y170678D01*
X452096Y170651D01*
X452099Y170653D01*
X452100Y170651D01*
X456400Y170651D01*
X456402Y170653D01*
G37*
G36*
X132244Y201778D02*
X132244Y201778D01*
X132251Y201783D01*
X132256Y201779D01*
X132592Y201860D01*
X132595Y201865D01*
X132599Y201863D01*
X132918Y201995D01*
X132921Y202000D01*
X132925Y201998D01*
X133219Y202178D01*
X133221Y202183D01*
X133225Y202183D01*
X133488Y202407D01*
X133489Y202412D01*
X133494Y202412D01*
X133718Y202675D01*
X133718Y202681D01*
X133722Y202681D01*
X133902Y202975D01*
X133901Y202981D01*
X133906Y202982D01*
X134038Y203301D01*
X134036Y203307D01*
X134040Y203308D01*
X134121Y203644D01*
X134119Y203650D01*
X134122Y203652D01*
X134149Y203996D01*
X134148Y203999D01*
X134149Y204000D01*
X134149Y208300D01*
X134147Y208302D01*
X134149Y208304D01*
X134122Y208648D01*
X134118Y208652D01*
X134121Y208656D01*
X134040Y208992D01*
X134035Y208995D01*
X134038Y208999D01*
X133906Y209318D01*
X133900Y209321D01*
X133902Y209325D01*
X133722Y209619D01*
X133717Y209621D01*
X133718Y209625D01*
X133494Y209888D01*
X133488Y209889D01*
X133488Y209894D01*
X133225Y210118D01*
X133219Y210118D01*
X133219Y210122D01*
X132925Y210302D01*
X132919Y210301D01*
X132918Y210306D01*
X132599Y210438D01*
X132593Y210436D01*
X132592Y210440D01*
X132256Y210521D01*
X132250Y210519D01*
X132248Y210522D01*
X131904Y210549D01*
X131901Y210547D01*
X131900Y210549D01*
X121756Y210522D01*
X121749Y210517D01*
X121744Y210521D01*
X121408Y210440D01*
X121405Y210435D01*
X121401Y210438D01*
X121082Y210306D01*
X121079Y210300D01*
X121075Y210302D01*
X120781Y210122D01*
X120779Y210117D01*
X120775Y210118D01*
X120512Y209894D01*
X120511Y209888D01*
X120507Y209888D01*
X120283Y209625D01*
X120282Y209619D01*
X120278Y209619D01*
X120098Y209325D01*
X120099Y209319D01*
X120095Y209318D01*
X119963Y208999D01*
X119964Y208993D01*
X119960Y208992D01*
X119879Y208656D01*
X119881Y208650D01*
X119878Y208648D01*
X119851Y208304D01*
X119853Y208301D01*
X119851Y208300D01*
X119851Y204000D01*
X119853Y203998D01*
X119851Y203996D01*
X119878Y203652D01*
X119882Y203648D01*
X119879Y203644D01*
X119960Y203308D01*
X119965Y203305D01*
X119963Y203301D01*
X120095Y202982D01*
X120100Y202979D01*
X120098Y202975D01*
X120278Y202681D01*
X120283Y202679D01*
X120283Y202675D01*
X120507Y202412D01*
X120512Y202411D01*
X120512Y202407D01*
X120775Y202183D01*
X120781Y202182D01*
X120781Y202178D01*
X121075Y201998D01*
X121081Y201999D01*
X121082Y201995D01*
X121401Y201863D01*
X121407Y201864D01*
X121408Y201860D01*
X121744Y201779D01*
X121750Y201781D01*
X121752Y201778D01*
X122096Y201751D01*
X122099Y201753D01*
X122100Y201751D01*
X132244Y201778D01*
G37*
D10*
X213870Y455000D03*
X213870Y442500D03*
X213870Y430000D03*
X213870Y417500D03*
X213870Y405000D03*
X213870Y392500D03*
X213870Y380000D03*
X213870Y367500D03*
X213870Y355000D03*
X213870Y342500D03*
X213870Y330000D03*
X213870Y317500D03*
D11*
X235650Y302130D03*
X248150Y302130D03*
X260650Y302130D03*
X273150Y302130D03*
X285650Y302130D03*
X298150Y302130D03*
X310650Y302130D03*
X323150Y302130D03*
D10*
X344930Y317500D03*
X344930Y330000D03*
X344930Y342500D03*
X344930Y355000D03*
X344930Y367500D03*
X344930Y380000D03*
X344930Y392500D03*
X344930Y405000D03*
X344930Y417500D03*
X344930Y430000D03*
X344930Y442500D03*
X344930Y455000D03*
X344930Y467500D03*
X344930Y480000D03*
D12*
X475996Y205994D03*
X475996Y228854D03*
X475996Y251714D03*
D13*
X413004Y228600D03*
D12*
X475996Y282194D03*
X475996Y305054D03*
X475996Y327914D03*
D13*
X413004Y304800D03*
D12*
X475996Y358394D03*
X475996Y381254D03*
X475996Y404114D03*
D13*
X413004Y381000D03*
D12*
X475996Y434594D03*
X475996Y457454D03*
X475996Y480314D03*
D13*
X413004Y457200D03*
D12*
X475996Y510794D03*
X475996Y533654D03*
X475996Y556514D03*
D13*
X413004Y533400D03*
D14*
X101600Y533400D03*
X101600Y558800D03*
D15*
X39800Y323850D03*
X61800Y333350D03*
X61800Y314350D03*
D16*
X381000Y187800D03*
X390500Y167800D03*
X371500Y167800D03*
X330200Y187800D03*
X339700Y167800D03*
X320700Y167800D03*
X279400Y187800D03*
X288900Y167800D03*
X269900Y167800D03*
X228600Y187800D03*
X238100Y167800D03*
X219100Y167800D03*
X177800Y187800D03*
X187300Y167800D03*
X168300Y167800D03*
X139700Y429100D03*
X149200Y409100D03*
X130200Y409100D03*
X139700Y391000D03*
X149200Y371000D03*
X130200Y371000D03*
D17*
X70612Y493014D03*
X70612Y469900D03*
X70612Y446786D03*
D18*
X132590Y469900D03*
M02*
